<svg width="114" height="179" viewBox="0 0 114 179" fill="none" xmlns="http://www.w3.org/2000/svg">
<path d="M107.2 23.2715C107.429 23.2189 107.561 23.2329 107.793 23.2481C107.912 23.3472 108.045 23.4535 108.136 23.5793C108.317 23.8291 108.413 24.4273 108.324 24.719C108.203 25.1153 108.039 25.2729 107.69 25.4531C107.582 25.4681 107.495 25.4847 107.382 25.4769C107.115 25.4586 106.843 25.308 106.691 25.0845C106.541 24.8633 106.524 24.6884 106.557 24.4323C106.625 23.8962 106.772 23.5982 107.2 23.2715Z" fill="#3D83AB"/>
<path d="M82.5864 13C82.8378 13.0559 83.0781 13.1137 83.3071 13.2501C83.5975 13.423 83.8922 13.7262 83.9701 14.1086C84.0276 14.3907 84.0053 14.706 83.8754 14.9553C83.5674 15.5454 83.0856 15.8115 82.5267 15.9711C82.1517 16.012 81.8544 16.043 81.5115 15.8186C81.2575 15.6524 81.0857 15.4046 81.0282 15.0746C80.9568 14.6641 81.0216 14.3381 81.2145 13.9924C81.564 13.3661 81.9776 13.1546 82.5864 13Z" fill="#3D83AB"/>
<path d="M75.3055 8.91405L76.5443 8.83688L76.6145 8.95653C76.281 9.50922 75.5941 9.72267 75.003 9.88583C73.0166 10.434 70.8733 10.4047 68.8481 10.8044C65.587 11.4483 62.3441 12.6905 59.2315 13.8384C58.9575 13.9207 58.7113 14.0564 58.4326 13.9765L58.4014 13.7795C58.4582 13.6566 58.4572 13.6385 58.5641 13.523C59.0054 13.046 60.0354 12.6813 60.6222 12.4139C65.3089 10.277 70.2065 9.34442 75.3055 8.91405Z" fill="#3D83AB"/>
<path d="M86.4819 8.00112C86.7798 7.99065 87.1443 8.05347 87.4136 8.19925C87.6432 8.32358 87.8748 8.65886 87.9504 8.91733C88.0503 9.25903 87.9941 9.68356 87.8288 9.99084C87.5199 10.5656 87.096 10.8071 86.5206 10.968C86.257 10.9954 86.0233 11.0377 85.7678 10.9326C85.4668 10.8089 85.1851 10.5767 85.0615 10.2519C84.9267 9.89792 85.0352 9.43347 85.179 9.10028C85.4363 8.50365 85.931 8.21941 86.4819 8.00112Z" fill="#3D83AB"/>
<path d="M83.6572 0.00485158C83.9302 -0.0137731 84.1816 0.0159046 84.4207 0.187984C84.7069 0.39395 84.8717 0.798595 84.9484 1.17085C85.081 1.81392 84.9488 2.51677 84.6586 3.07418C84.3754 3.61793 83.9562 3.84399 83.4527 4C83.144 3.98514 82.847 4.01616 82.562 3.8436C82.3024 3.68629 82.1364 3.41764 82.0573 3.08866C81.9128 2.48768 82.0576 1.76622 82.3129 1.23436C82.615 0.604959 83.0757 0.202437 83.6572 0.00485158Z" fill="#3D83AB"/>
<path d="M75.303 3.00992C75.6402 2.99603 75.9189 2.98067 76.2427 3.08524L76.262 3.28025C75.6744 4.04595 74.1695 4.36987 73.2595 4.65145L68.0671 6.20102L58.3046 9.43599L49.2247 13.3467L42.8424 16.3581L42.7443 16.3989C42.4605 16.4984 42.3492 16.5489 42.0787 16.4192C41.9901 16.15 41.9648 16.137 42.0631 15.8758C43.2997 14.8016 44.9703 14.0371 46.4241 13.2905C50.1054 11.4005 53.9254 9.70443 57.8324 8.33718L65.735 5.81224L68.9537 4.7443C71.0621 3.9866 73.0538 3.22714 75.303 3.00992Z" fill="#3D83AB"/>
<path d="M106.395 0.157098L107.033 0.120054C109.011 0.0444878 110.929 0.484156 112.41 1.879C113.333 2.74816 113.862 3.90936 113.864 5.18256C113.867 7.62462 111.066 9.44626 109.192 10.5243C108.473 10.9377 107.499 11.3313 106.935 11.9478C105.638 13.365 107.567 16.912 107.542 18.6579C107.537 18.9643 107.47 19.3079 107.199 19.4951C106.972 19.6514 106.77 19.6709 106.509 19.6293C105.501 18.8855 105.112 16.62 104.895 15.4358C104.712 14.1418 104.478 12.7411 104.957 11.484C105.382 10.3712 106.546 9.92363 107.512 9.38715C108.949 8.58818 110.633 7.80461 111.606 6.4238C111.887 6.02463 112.391 4.99231 112.232 4.47943L112.161 4.28754C112 3.84342 111.807 3.51154 111.486 3.16036C110.615 2.20751 109.276 1.61174 107.995 1.56973C107.623 1.55754 107.238 1.53548 106.868 1.58514C105.956 1.70757 104.614 2.22937 103.979 2.89385C103.631 3.25771 103.385 3.74302 103.071 4.14242C102.783 4.27106 102.654 4.25612 102.353 4.21448L102.13 3.90464C102.064 3.43527 102.093 3.06138 102.34 2.64499C103.106 1.35286 104.978 0.483212 106.395 0.157098Z" fill="#3D83AB"/>
<path d="M57.6251 21.3181L71.8216 21.4693L79.7225 22.156L84.5392 22.634C86.2815 22.8263 87.9268 23.0096 89.5746 23.6608C90.6287 24.0772 91.6489 24.6301 92.6658 25.1302C97.0274 27.2749 101.191 30.0778 104.385 33.7794C105.316 34.8578 106.203 35.9636 106.773 37.2798C107.262 38.4084 107.306 39.7058 107.321 40.9212C107.352 43.391 107.174 45.5012 106.244 47.8144C107.104 48.3008 108.161 48.6813 108.712 49.5455C109.042 50.0639 109.056 50.3488 108.94 50.9263C108.578 52.7387 108.01 61.1992 107.279 62.1287C106.763 62.4047 106.057 62.346 105.483 62.399C105.382 62.4084 104.385 62.5289 104.375 62.5414C104.338 62.5921 104.338 63.0416 104.331 63.1337L104.102 65.159L102.632 73.9944L100.975 81.4548C100.589 82.9376 100.21 84.7026 99.4052 86.0208C98.7832 87.0392 98.0093 87.7719 96.915 88.2531C96.1041 88.6098 94.531 88.5446 94.0429 89.2153C93.8086 89.5371 93.6534 90.1665 93.5377 90.5556C92.9417 92.563 92.7668 94.7608 91.3858 96.4064C92.32 98.0688 93.2629 99.6897 94.0581 101.426C96.0559 105.787 97.5107 110.431 98.5275 115.114C98.8474 116.588 99.1274 118.108 99.2751 119.611C99.3266 120.135 99.3907 123.283 99.5538 123.507C99.5824 123.545 99.9895 123.71 100.062 123.745C100.634 124.025 101.295 124.462 101.579 125.055C102.046 126.029 101.12 128.044 100.773 129.028C102.397 129.509 103.754 130.334 104.672 131.797C105.263 132.738 105.656 133.897 105.375 135.006C105.157 135.866 104.667 136.358 103.926 136.796C103.882 136.822 103.812 136.825 103.793 136.872C103.768 136.932 104.034 137.916 104.055 138.041C104.151 138.616 104.109 139.388 103.943 139.946C103.647 140.942 103.16 141.695 102.216 142.173C100.827 142.877 99.7154 142.741 98.3062 142.285C97.9155 142.612 97.5175 142.972 97.0576 143.196C96.1782 143.624 94.9792 143.649 94.0682 143.3C92.773 142.803 92.2174 141.617 91.7025 140.432C91.2846 140.481 90.8766 140.524 90.4608 140.435C89.7076 140.274 89.0111 139.78 88.5864 139.144C88.0083 138.279 87.7784 137.212 88.0241 136.194C88.6088 133.772 90.287 131.677 92.4122 130.425C91.7179 129.019 91.3993 127.533 91.2951 125.972C91.2553 125.377 91.2095 124.728 91.3548 124.143C91.5773 123.247 92.2929 122.791 93.0457 122.378C92.7253 120.326 90.1946 109.788 89.1674 109.037C89.0338 109.171 89.0123 109.215 88.9645 109.393L87.4421 115.837L84.5501 127.101C84.0968 128.933 83.8425 130.919 83.1291 132.671C82.9317 133.156 82.8362 133.325 82.3435 133.53C82.1384 133.472 81.8842 133.384 81.6703 133.417C81.2102 133.487 80.6563 133.768 80.2158 133.929L77.493 134.883L71.6574 136.554L71.3399 141.451C71.1008 147.194 71.429 152.899 72.9518 158.468C73.537 160.608 74.1921 162.714 74.9752 164.79L76.7242 169.075C77.4538 170.783 78.168 172.429 78.2253 174.304C85.5802 173.837 93.1594 174.255 100.455 175.265C100.973 175.337 101.419 175.342 101.749 175.779L101.65 175.878C101.386 176.093 100.906 176.18 100.567 176.2C99.003 176.293 97.3238 176.101 95.7458 176.101L85.7563 176.477L75.8273 177.26C74.065 177.484 72.2939 178.05 70.5278 178.354C65.7876 179.169 60.7288 179.238 55.9873 178.418C55.7376 178.06 55.4297 177.707 55.3702 177.263L55.3554 177.111C54.7477 177.087 54.0222 177.322 53.4057 177.389L48.6663 177.776C44.0285 178.029 39.2935 177.907 34.6526 177.741L19.3207 177.539L11.6785 177.678C11.3101 177.673 10.9713 177.725 10.6694 177.504C10.6411 177.172 10.6107 177.178 10.82 176.926C12.9614 176.528 15.2859 176.438 17.4599 176.241L32.5143 175.077C32.5254 173.476 32.9303 172.502 33.9271 171.272C36.1945 168.472 40.1056 167.14 43.5741 166.754L42.338 160.659C41.3547 154.984 40.7236 149.127 40.5243 143.373C40.4342 140.775 40.3632 138.228 40.6505 135.639C40.5128 135.492 39.9287 135.437 39.7065 135.384C38.59 135.117 37.5306 134.53 36.6641 133.782C33.9101 131.402 32.9192 127.125 31.7829 123.798L29.4488 116.905C28.3196 113.102 27.5384 109.335 26.8037 105.443C26.283 102.684 25.7708 99.8354 25.5699 97.0356L24.2114 96.9825C16.7596 96.4175 8.48119 93.0108 3.63011 87.1888C2.4215 85.7382 1.35983 83.995 0.814737 82.1793C-0.0490859 79.3017 0.0455276 76.26 0.364664 73.3077C0.97523 67.6609 2.58466 62.289 4.72031 57.0414L6.69628 52.5885C6.87278 52.2102 7.38566 51.4086 7.43061 51.0314C7.45359 50.8364 7.08376 50.091 7.0263 49.8404C6.88982 49.2452 6.91732 48.4812 6.98587 47.8727C7.12009 46.6792 7.74112 45.4154 8.68519 44.6565C9.55045 43.9609 10.7047 43.6956 11.7869 43.8267L11.9673 43.8495L12.3794 42.2875C13.0273 39.9562 14.8089 38.471 16.8424 37.3348C18.2591 36.5432 20.0885 35.8401 21.7224 36.3815C22.4243 36.614 23.0773 37.4007 23.3564 38.063L23.4125 38.2021C23.6466 38.7673 23.6462 39.5201 23.5807 40.1255C23.3242 42.5032 20.3836 43.0226 18.8038 44.2778C19.4492 44.5908 20.1314 44.8812 20.6353 45.408C21.6278 46.4461 21.8461 47.9283 21.7839 49.307C21.7117 50.9101 21.0905 51.9995 19.645 52.7619C19.301 52.9433 18.8965 53.0318 18.6055 53.2959C18.6763 53.4868 18.6888 53.4607 18.686 53.644C18.6816 53.9143 18.4596 54.2416 18.3184 54.4701C17.6046 55.6249 16.3728 56.5991 15.0441 56.933C14.7371 57.0102 13.747 56.8916 13.5943 57.0472C13.0084 57.644 12.5401 58.7717 12.123 59.5274C9.51105 64.26 7.98083 69.2884 8.10911 74.7335C8.18915 78.1235 9.10448 80.7763 11.5933 83.1355C15.0414 86.4038 20.2987 87.1116 24.8329 87.0109L24.4275 79.7058C23.7478 79.4206 23.1695 79.1154 22.6153 78.6224C20.5856 76.816 20.5205 73.8846 20.3879 71.3722C20.2439 68.6395 20.4228 65.8551 20.5876 63.1255C20.8709 58.4304 21.4285 53.9303 22.155 49.2847C23.1171 43.1314 24.4222 36.9607 26.7095 31.1495C27.6002 28.8866 28.5258 26.6254 30.1923 24.8107C30.7869 24.1632 31.6938 23.8705 32.5227 23.6456C34.6814 23.0599 37.0222 22.8983 39.24 22.6414L57.6251 21.3181Z" fill="#3D83AB"/>
<path d="M97.6298 125.477C98.1121 125.398 98.9511 125.607 99.4743 125.643C99.345 127.253 98.6539 128.795 98.0926 130.294L95.7015 130.521C95.2707 130.547 95.0983 130.617 94.7597 130.316C94.0216 128.83 93.651 127.179 93.291 125.569L94.1914 126.071C94.9745 126.427 96.4822 126.577 97.2738 126.142C97.5947 125.966 97.5607 125.803 97.6298 125.477Z" fill="white"/>
<path d="M20.218 38.3163C20.4497 38.2925 20.6478 38.32 20.8772 38.35C21.135 38.5531 21.4127 38.7426 21.5063 39.0744C21.6415 39.5545 21.5422 40.148 21.1637 40.4877C20.736 40.8717 20.0347 41.0108 19.5065 41.2245C17.9674 41.8463 16.5899 43.1107 15.8269 44.5784C15.5365 45.137 15.2403 45.9374 15.489 46.5654C15.5954 46.8332 15.7197 46.9699 16.0029 47.0475C16.2778 47.1228 16.53 46.9847 16.7514 46.8427L17.0541 46.6494C17.5514 46.3694 18.3028 46.1151 18.86 46.3622C19.317 46.5652 19.59 47.2049 19.7238 47.6486C19.9892 48.5283 19.9925 49.3672 19.5399 50.1748L19.1594 50.4316C18.7502 50.661 17.8886 50.7704 17.4396 50.6317C17.1656 50.2643 17.2366 49.9831 17.2343 49.5427C16.9283 48.9865 16.5185 48.5239 16.1503 48.0109C15.3573 46.9063 14.6876 45.9963 13.54 45.2205L13.376 45.1107C13.4671 44.4636 13.7581 43.7273 14.0411 43.1456C15.1851 40.7933 17.7967 39.1134 20.218 38.3163Z" fill="white"/>
<path d="M11.1752 45.9094L11.5854 45.8986C12.5096 45.9037 13.4038 46.4219 14.0427 47.0647C15.4649 48.4952 16.4999 50.9286 16.439 52.9575C16.4258 53.393 16.2701 53.8097 15.931 54.0966C15.5585 54.412 15.0231 54.4048 14.5677 54.3892C12.8993 54.0959 11.1588 53.0934 10.1472 51.712C9.46088 50.7755 8.9047 49.524 9.08366 48.3468L9.11527 48.1559C9.16924 47.7963 9.20475 47.4292 9.37489 47.1008C9.78022 46.3193 10.3937 46.1257 11.1752 45.9094Z" fill="white"/>
<path d="M96.1111 46.3425L98.5784 46.3045L96.7734 55.6282C96.6558 56.308 96.7529 57.8608 96.3504 58.3363C95.9892 58.4695 95.5818 58.3792 95.2066 58.3365L92.4912 57.7524C92.6472 54.9729 93.6575 52.5668 94.3128 49.9135C94.499 49.1599 94.4528 48.1676 94.8112 47.4889C95.1209 46.9018 95.4734 46.5371 96.1111 46.3425Z" fill="white"/>
<path d="M98.6814 130.867C99.5241 131.145 100.453 131.261 101.233 131.71C102.137 132.23 102.951 133.01 103.209 134.046C103.166 134.421 102.91 134.732 102.705 135.04C102.336 134.631 101.928 134.193 101.362 134.084C101.147 134.042 100.785 133.976 100.61 134.148C99.936 134.807 101.259 136.525 101.485 137.27C101.635 137.764 101.66 138.499 101.54 139.004C101.437 139.439 101.136 139.877 100.753 140.111C100.468 140.285 100.128 140.339 99.8059 140.251C98.7014 139.951 98.3687 139.206 97.8209 138.327C97.6727 138.089 97.4461 137.927 97.1631 137.894C96.8541 137.857 96.5518 138.008 96.3695 138.255C95.8804 138.915 96.3872 139.595 96.4399 140.292C96.4643 140.615 96.4491 140.651 96.2478 140.9C95.8841 141.046 95.5952 141.098 95.205 141.126C94.9903 141.067 94.7695 140.994 94.5731 140.887C94.2858 140.729 93.8724 140.334 93.8021 139.997C93.7351 139.678 93.7456 139.476 93.8961 139.197L94.075 139.2C94.3855 139.205 94.5994 139.228 94.8255 139.001C95.1486 138.677 95.4597 138.215 95.4297 137.74C95.3961 137.21 95.0607 136.703 94.6767 136.355C94.2334 135.953 93.5213 135.592 92.9074 135.662C91.6114 135.812 91.9129 137.216 91.33 137.996L90.9637 138.056C90.6739 138.067 90.458 137.905 90.2862 137.689C89.9667 137.286 89.972 136.695 90.058 136.217C90.4369 134.11 92.1715 132.429 93.8236 131.233C94.1557 131.42 94.4972 131.625 94.8672 131.726C96.074 132.054 97.6366 131.452 98.6814 130.867Z" fill="white"/>
<path d="M99.8282 46.6923C101.344 47.2211 102.763 47.9916 104.175 48.7454C105.279 49.3352 106.399 49.8902 107.463 50.5512L106.487 57.8124C106.358 58.7117 106.337 59.7892 106.067 60.6421L105.49 60.7823C104.994 60.749 104.449 60.7521 103.963 60.6503C103.124 60.4744 102.3 60.0728 101.482 59.8126L97.7979 58.749C97.907 56.5818 98.0556 54.2471 98.4476 52.1131C98.7836 50.2842 99.3162 48.478 99.8282 46.6923Z" fill="white"/>
<path d="M83.612 91.8827C84.3005 91.8299 85.0088 91.7638 85.5596 92.2225C86.6568 93.1362 87.5498 94.6223 88.3198 95.8231C92.617 102.526 95.4668 110.386 96.7579 118.229C97.144 120.574 96.9858 122.848 97.1932 125.185L95.6351 125.1L95.4746 124.068C94.6079 116.426 92.6283 108.042 87.4332 102.131C86.0532 100.561 84.5481 99.0305 83.0018 97.6257L80.1758 95.1401L80.5354 94.2305C81.204 92.8659 82.231 92.3145 83.612 91.8827Z" fill="white"/>
<path d="M43.3841 136.149C43.9073 135.974 44.8823 136.33 45.4282 136.454L44.9104 138.631C42.8251 147.992 45.7857 158.004 49.4114 166.606C50.5215 169.239 51.7116 171.971 53.2398 174.387L38.1304 175.1L34.6572 174.98C34.7863 174.235 34.9421 173.479 35.3667 172.84C36.721 170.802 39.2873 169.658 41.6144 169.208C43.2396 168.893 45.6209 168.668 47.1468 169.414C47.6374 169.653 48.1065 170.084 48.5613 170.394C48.7475 170.089 48.9359 169.776 49.0549 169.437C49.1306 169.221 49.1468 168.975 49.0276 168.773C48.5705 168.001 46.9236 167.557 46.0821 167.321L44.7625 160.198L43.4514 150.004C43.1249 146.741 42.8618 143.439 42.8737 140.158C42.8776 139.061 42.7364 137.063 43.3841 136.149Z" fill="white"/>
<path d="M69.214 136.756L69.6196 136.691C69.8299 136.886 69.7308 137.009 69.6996 137.268C68.758 145.101 69.144 152.754 71.3033 160.374C72.2324 163.653 73.4987 166.789 74.8513 169.911C75.4262 171.237 75.872 172.685 76.5182 173.97L76.5732 174.076C73.0262 175.897 69.3772 176.336 65.4636 176.454C62.8338 176.534 60.198 176.467 57.5714 176.285L57.4561 176.067C57.7717 174.516 59.0766 173.192 60.3143 172.28C62.7153 170.512 66.8647 169.125 69.8426 169.614C70.3701 169.701 71.2598 169.732 71.7181 169.995C71.9169 170.11 72.0885 170.429 72.2172 170.619C72.3877 170.872 72.5152 171.067 72.7686 171.244C73.1276 171.292 73.181 171.319 73.519 171.151C73.6417 170.978 73.7538 170.808 73.7794 170.592C73.8346 170.127 73.6571 169.851 73.3626 169.514C72.9045 168.991 72.0314 168.261 71.3624 168.083C70.9486 167.974 70.46 167.977 70.0323 167.952C69.4923 165.822 69.1732 163.634 68.7531 161.477C67.9871 157.545 67.1863 153.522 66.9318 149.519C66.6656 145.335 66.9614 141.068 67.769 136.956L69.214 136.756Z" fill="white"/>
<path d="M9.77845 52.7505C10.2646 53.2615 10.74 53.811 11.3308 54.2019L12.2295 54.8189L12.1883 54.9182L12.1165 55.0826C11.7992 55.83 11.3448 56.4835 10.9222 57.1725L9.43448 59.8029C7.11064 64.1062 5.84476 69.1379 5.80761 74.0206C5.77786 77.918 6.68889 81.4707 9.51165 84.2925C11.8589 86.6389 15.5178 88.4006 18.7904 88.92C20.7929 89.2377 22.7947 89.2143 24.8162 89.2148L25.3201 94.795L25.1859 94.9485L24.5964 94.9061C19.6374 94.4408 14.0567 92.5471 9.89605 89.7919C7.00843 87.8797 3.38608 84.3226 2.68685 80.7986C2.32585 78.9784 2.33344 77.0775 2.42908 75.2298C2.65566 70.8495 3.63523 66.5372 5.03163 62.3882C5.60731 60.6784 6.21213 58.9635 6.99201 57.3338C7.76717 55.7133 8.78287 54.2395 9.77845 52.7505Z" fill="white"/>
<path d="M47.9357 136.792C53.695 137.489 59.572 137.981 65.3587 137.29C65.4221 137.481 65.3132 137.741 65.2719 137.943L64.9573 139.796C64.6086 142.132 64.4321 144.419 64.499 146.783C64.6964 153.752 66.3761 160.617 67.471 167.481C65.5753 167.774 63.9213 168.164 62.1007 168.798C59.3142 170.031 57.178 171.359 55.6525 174.08C54.9881 173.186 54.5502 172.049 54.0685 171.045L50.7384 163.478C48.6444 158.046 47.1518 152.593 46.713 146.775C46.4579 143.393 46.5239 139.936 47.9357 136.792Z" fill="white"/>
<path d="M26.8369 79.7183C32.268 80.726 37.7356 80.5481 43.2323 80.8149L54.2237 81.5898L71.4932 82.6712L77.6058 83.3185C77.9763 83.3612 78.6587 83.3357 78.9838 83.4552C79.1385 83.512 79.3754 83.7407 79.5227 83.8484L81.1642 85.1067C79.7998 85.8328 78.7151 86.5727 78.1249 88.0516C79.4242 87.3226 80.8183 86.3715 82.2252 85.903C83.9756 86.6287 85.3322 87.7718 86.7075 89.0383C87.944 90.1768 89.0209 91.2585 89.9378 92.6771L89.1594 94.5308C88.0431 93.3971 86.9523 91.4787 85.4158 90.9544L85.2846 90.9117L85.0225 90.828C83.5018 90.4247 81.8808 91.106 80.5994 91.8812C79.6826 92.4359 79.0819 93.3279 78.8284 94.3651C78.5628 95.4527 78.6981 96.172 79.2933 97.1142C79.5984 97.5973 79.5681 98.0922 79.6294 98.643C79.7072 99.343 79.7914 100.066 79.9408 100.754C80.1021 101.496 80.3738 102.232 80.6802 102.925C81.9165 105.722 83.7634 107.232 86.5712 108.305C86.688 108.565 85.5278 113.132 85.3599 113.808L81.2481 130.64L81.2259 130.755C75.6514 133.338 69.8351 134.579 63.72 134.928C58.6052 135.221 53.5368 134.831 48.4553 134.305C45.8351 134.033 43.1695 133.759 40.6304 133.037C39.6112 132.747 38.5764 132.412 37.7865 131.663C37.0429 130.958 36.59 129.972 36.1783 129.052C35.4442 127.413 34.8736 125.704 34.2776 124.012C32.8904 120.073 31.5291 116.165 30.5054 112.109C29.2888 107.289 28.5564 102.354 28.0053 97.4204L26.8369 79.7183Z" fill="white"/>
<path d="M72.3603 128.248C72.5023 128.211 72.6544 128.217 72.8007 128.21L73.1363 128.556C73.156 128.71 73.1794 128.861 73.155 129.017C72.9541 130.3 71.1726 132.058 70.1327 132.822C69.713 132.807 69.6416 132.787 69.29 132.558C69.2913 132.266 69.2824 132.183 69.4653 131.94C69.8312 131.454 70.364 131.057 70.7839 130.612C71.4846 129.87 71.8507 129.117 72.3603 128.248Z" fill="#3D83AB"/>
<path d="M74.1789 100.952C74.3488 100.913 74.4862 100.931 74.6588 100.942C74.9822 101.295 74.9346 101.953 74.9319 102.406L74.7677 105.684C74.7072 106.318 74.7287 106.951 74.2557 107.417L74.0794 107.446C73.8329 107.312 73.8031 107.164 73.736 106.904C73.4038 105.614 73.602 103.753 73.7959 102.443C73.8725 101.927 73.9099 101.408 74.1789 100.952Z" fill="#3D83AB"/>
<path d="M73.383 120.039C73.624 119.977 73.6537 119.986 73.8918 120.064C74.0133 120.191 74.1048 120.286 74.1551 120.458C74.3626 121.168 74.2423 121.864 74.1666 122.58C74.0268 123.895 73.894 125.414 73.2822 126.606C73.164 126.793 73.107 126.878 72.9015 126.966L72.7259 126.882C72.655 126.77 72.6349 126.756 72.6031 126.606C72.4662 125.962 72.7866 124.939 72.8299 124.246C72.898 123.153 72.7913 122.041 72.983 120.957C73.0489 120.585 73.1501 120.335 73.383 120.039Z" fill="#3D83AB"/>
<path d="M77.0711 89.3563L77.2353 89.4124C77.0766 90.8143 76.4238 92.2271 76.087 93.6143C75.7687 94.9261 75.6827 96.364 75.2572 97.6377C75.1516 97.9539 75.153 97.9625 74.8529 98.1144L74.6143 97.8735L74.6719 95.3079C74.8347 93.2338 75.4266 90.7595 77.0711 89.3563Z" fill="#3D83AB"/>
<path d="M73.6842 110.906C73.8974 110.834 73.7991 110.848 74.0493 110.857C74.3147 110.867 74.2919 110.927 74.462 111.111C74.4639 112.574 74.7145 118.301 73.9288 119.139L73.6867 119.105C73.4268 118.782 73.3998 118.388 73.3365 117.992C73.1625 116.903 73.0556 115.826 73.0463 114.723C73.0371 113.599 72.8563 111.745 73.6842 110.906Z" fill="#3D83AB"/>
<path d="M45.6892 108.424C46.7564 108.303 47.8784 108.668 48.7897 109.193C50.0248 109.905 50.826 111.057 51.1899 112.425L51.2342 112.597L51.2802 112.769C51.635 114.178 51.3727 115.961 50.5963 117.2C49.7686 118.521 48.3615 119.242 46.8882 119.587C45.6077 119.694 44.3554 119.748 43.2373 118.997C42.0621 118.207 41.3001 116.785 41.037 115.413L40.9999 115.216L40.9401 114.901C40.708 113.328 41.2804 111.333 42.2651 110.085C43.1066 109.018 44.3876 108.585 45.6892 108.424Z" fill="#3D83AB"/>
<path d="M43.4134 111.727C43.7108 111.717 43.8286 111.782 44.0804 111.92C44.4999 112.55 44.1935 113.596 44.3548 114.361C44.4948 115.026 44.9215 115.611 45.0766 116.293C44.9561 116.611 44.7714 116.637 44.4792 116.796L44.0687 116.786C43.3724 116.195 43.0292 115.396 42.8886 114.504L42.8652 114.343L42.8394 114.183C42.7212 113.377 42.9141 112.383 43.4134 111.727Z" fill="white"/>
<path d="M45.5581 93.534C46.7444 93.4057 47.8419 93.5295 48.8948 94.1228C50.1939 94.8549 51.2734 96.2129 51.6227 97.6729C51.9905 99.2095 51.7299 100.77 50.9221 102.124C49.9503 103.753 48.5908 104.725 46.7696 105.197C45.6105 105.287 44.4117 105.21 43.3558 104.683C42.14 104.075 41.1682 102.905 40.7682 101.604C40.2923 100.056 40.4665 98.0571 41.2696 96.6418C42.2247 94.9581 43.7394 94.0401 45.5581 93.534Z" fill="#3D83AB"/>
<path d="M44.2728 96.4368L44.7356 96.3959C44.9285 96.4891 45.0665 96.5184 45.1949 96.6972C45.5972 97.2573 45.08 98.0111 44.9415 98.5903C44.8534 98.9585 44.8366 99.3933 44.8479 99.7718C44.8616 100.228 45.0318 100.958 44.9072 101.383C44.8358 101.627 44.6884 101.645 44.4791 101.748L44.2972 101.716C44.0774 101.653 43.9533 101.501 43.8418 101.315C43.198 100.243 42.9819 98.9431 43.3343 97.7312C43.5044 97.1456 43.7308 96.7268 44.2728 96.4368Z" fill="white"/>
<path d="M58.6393 23.6854C66.996 23.4506 75.2424 23.8968 83.5344 24.9057C84.7026 25.048 86.1688 24.9919 87.2701 25.3808C88.5051 25.817 89.9719 26.4339 91.0759 27.1393C91.0868 27.146 91.3144 27.2948 91.3158 27.2994C91.3991 27.5376 91.3113 28.1702 91.3296 28.4536L91.5842 30.9303C91.6306 31.4906 91.5711 32.1658 91.8145 32.6769C92.076 32.8166 92.0711 32.7903 92.3617 32.7121C92.5353 32.5028 92.7342 32.2526 92.8011 31.9826C92.9051 31.5637 92.8265 31.0028 92.8095 30.5718L92.6907 27.9645C94.0891 28.588 95.381 29.4132 96.6559 30.2551C99.0771 31.8535 101.346 33.6318 103.157 35.914C103.708 36.6085 104.265 37.3371 104.631 38.1506C104.993 38.9561 105.043 39.7496 105.09 40.6136C105.212 42.8584 104.97 44.4984 104.176 46.5842C103.115 46.0658 102.014 45.421 100.869 45.1143C99.9822 44.8767 99.005 45.0298 98.0961 45.0731L94.3814 45.2391C94.0095 46.0313 93.7823 46.8867 93.543 47.7257C92.8518 50.1485 92.4762 52.6285 91.929 55.0825C91.707 56.0787 91.2912 57.0767 91.1247 58.0715C91.0771 58.3567 91.0595 58.7682 91.1574 59.0439C91.2643 59.3453 91.6862 59.6173 91.9574 59.764L92.1291 59.8541C92.1142 60.2032 91.9508 60.5043 91.9309 60.8587C91.8451 62.3789 92.437 63.7808 93.4638 64.894C95.465 67.0639 98.5244 67.6509 101.324 67.7469L98.9535 79.7912L98.0638 83.0023C97.8406 83.6939 97.6433 84.3708 97.2045 84.9651C96.7358 85.6001 96.1168 86.0165 95.3271 86.1189C94.8803 86.177 94.4234 86.1532 93.9914 86.0217C91.3211 85.2091 88.7346 83.5053 86.2776 82.19C85.1139 81.5671 83.7316 81.03 82.6985 80.2082L84.5128 76.6653C85.1648 74.6939 85.6083 72.8264 85.8431 70.7589C85.8913 70.3343 85.8078 70.1582 85.5517 69.8362L85.2177 69.8103C84.7299 70.3669 84.5573 71.6191 84.3707 72.3374C83.9151 74.0907 83.4082 75.8512 82.7749 77.5493C82.5466 78.1613 82.3028 78.9253 81.8655 79.4208C81.6087 79.7114 81.2206 79.8616 80.874 80.0182C79.8872 80.4642 78.5538 80.9984 77.4702 81.0817C76.4365 81.1613 75.1226 80.8324 74.0751 80.7252L67.0803 80.1869L53.1738 79.8557L39.4021 79.0084C36.5151 78.8457 33.6591 79.0238 30.7741 78.669C28.7727 78.4229 25.5522 78.0377 24.0415 76.6152C22.8819 75.5236 22.8548 73.232 22.8089 71.7324C22.6642 67.0003 22.9556 62.2722 23.4081 57.5654C24.2198 49.1196 25.7227 40.5307 28.6405 32.5414C29.1696 31.0929 29.7445 29.7092 30.4767 28.3512C30.8057 27.741 31.1581 27.0625 31.6521 26.5698C32.0689 26.154 32.6444 25.9736 33.2004 25.8264C36.2157 25.0276 39.58 24.8817 42.6887 24.6055L53.7148 23.7679L58.6393 23.6854Z" fill="white"/>
<path d="M33.0377 45.6418C33.2316 45.5676 33.3445 45.5832 33.5475 45.6148C33.8215 45.8935 33.828 45.8701 33.8389 46.2575C33.6751 46.5506 33.5824 46.6432 33.2916 46.8109C33.1522 46.7973 32.9605 46.7784 32.8298 46.7173C32.6161 46.6175 32.5094 46.4671 32.4277 46.2575C32.5718 45.9495 32.7682 45.8278 33.0377 45.6418Z" fill="#3D83AB"/>
<path d="M66.4089 46.2575L66.506 46.2334C66.7562 46.1971 66.9727 46.295 67.1732 46.437C67.4777 46.6527 67.6413 47.0831 67.692 47.4375L67.4615 47.5915C67.2038 47.6407 66.929 47.6738 66.6761 47.5763C66.3303 47.4427 66.2441 47.2914 66.0752 46.9758C66.1119 46.5431 66.1257 46.5491 66.4089 46.2575Z" fill="#3D83AB"/>
<path d="M87.4043 60.3159C87.5465 60.3062 87.6452 60.3329 87.7828 60.3649C87.8995 60.6274 87.7977 60.9478 87.7511 61.223L87.2951 63.6152C87.1666 64.228 87.0765 65.2696 86.5514 65.6123C86.3383 65.5589 86.2862 65.5076 86.1234 65.3689C85.9999 64.3598 86.3043 63.1797 86.4812 62.1853C86.5581 61.7539 86.6131 61.1717 86.8061 60.7776C86.9487 60.4864 87.1172 60.4271 87.4043 60.3159Z" fill="#3D83AB"/>
<path d="M91.9814 35.5855C92.3081 35.5826 92.3915 35.5771 92.6757 35.7293C92.7223 35.8402 92.7377 35.858 92.7504 35.9959C92.8007 36.5357 92.5653 37.3663 92.4842 37.9105C92.2878 39.2302 92.1735 40.5948 91.8644 41.8916C91.8121 42.1108 91.7419 42.5978 91.6311 42.7686C91.5666 42.8679 91.4599 42.9324 91.3743 43.0143C91.1502 43.0245 91.0445 42.988 90.8448 42.888C90.7053 42.6793 90.5869 42.4763 90.5573 42.2225C90.411 40.9609 91.2214 36.4942 91.9814 35.5855Z" fill="#3D83AB"/>
<path d="M90.2013 46.5653L90.552 46.4859C90.7985 46.6392 90.7905 46.6999 90.8966 46.9758C90.7589 47.944 90.3661 48.8446 90.1545 49.7926L89.223 54.7054C89.0731 55.5073 88.9765 56.6564 88.5416 57.34C88.2007 57.3784 88.1092 57.451 87.8286 57.2374C87.8017 56.3658 87.9394 55.545 88.0394 54.6828C88.3429 52.0643 88.8499 48.8567 90.2013 46.5653Z" fill="#3D83AB"/>
<path d="M46.5127 70.5691C49.9084 70.4326 53.3611 71.1183 56.1777 73.1236C56.8437 73.5977 57.5474 74.4749 57.6806 75.2979C57.6016 75.5821 57.5072 75.7081 57.3216 75.9273L56.9986 75.9386C56.0379 75.4978 55.5 74.5 54.8158 73.9981C54.1315 73.4963 53.4657 73.0383 52.6331 72.7809C50.1463 72.0121 47.2989 72.1084 44.7327 72.3152L42.9104 72.4564C42.7826 72.4607 42.4731 72.5069 42.3758 72.4681C42.273 72.4271 42.2048 72.3273 42.1193 72.2569C42.031 71.9275 41.9912 71.8399 42.0811 71.5011C43.1064 70.6217 45.2218 70.6578 46.5127 70.5691Z" fill="#3D83AB"/>
<path d="M34.9716 42.8712L35.1955 42.8347C35.9939 43.1271 36.3687 44.6617 36.8834 45.3753C37.3989 45.467 37.7273 45.5446 38.0772 45.9497C38.0928 46.4607 37.9218 46.9886 37.8003 47.4822C37.6288 48.1787 37.473 48.9369 37.1951 49.5991C36.7648 50.6253 36.1661 51.484 35.1091 51.9213L34.592 51.9181C34.0397 51.8676 33.7472 51.6002 33.417 51.1708C32.9528 50.5672 32.8885 49.6743 32.994 48.9418L33.0211 48.7716L33.0422 48.6278C33.251 47.3205 34.5757 46.5367 35.5553 45.8069L34.5743 43.7948C34.6576 43.3385 34.6474 43.2216 34.9716 42.8712Z" fill="#3D83AB"/>
<path d="M68.1448 43.6921L68.2195 43.6752C68.5201 43.6483 68.6141 43.6873 68.8522 43.8655C69.8648 44.6238 70.6517 45.9203 71.4673 46.8849C71.8285 47.3124 72.3405 47.4603 72.4321 48.083C72.4629 48.2928 72.4672 48.639 72.3389 48.8229C72.2455 48.9569 71.965 49.0384 71.8777 49.1732C71.7626 49.3509 71.6887 49.7881 71.622 50.003C71.3158 50.9868 70.9926 51.8938 70.3416 52.7149C69.7595 53.449 69.0427 53.9816 68.0926 54.0967C67.8386 54.0466 67.5502 54.0019 67.3113 53.8981C66.8253 53.6867 66.4974 53.2062 66.3123 52.7276C65.9746 51.8537 65.9597 50.7196 66.3798 49.8708C67.1652 48.2847 68.6529 47.5839 70.2273 47.0096C69.479 46.2796 67.8817 45.0634 67.755 43.9999L68.1448 43.6921Z" fill="#3D83AB"/>
<path d="M49.5826 36.6765C50.2962 36.6075 51.1623 36.5855 51.7361 37.088C51.9873 37.308 52.0837 37.5686 52.1184 37.8943C51.922 38.1697 51.7697 38.1736 51.4562 38.2838C50.7185 38.0312 50.1778 38.0283 49.4738 38.3791C49.0303 38.6001 48.9088 38.8205 48.7448 39.2796C48.7935 39.3272 48.8325 39.3872 48.8907 39.4225C49.0775 39.5358 49.961 39.5267 50.2248 39.5606C51.528 39.7272 53.073 40.0367 54.1851 40.7702C56.3068 42.1691 57.5559 44.8369 58.0938 47.2324C58.5603 49.3087 58.3979 52.4974 57.42 54.4428C57.0865 55.1065 56.5215 55.6483 56.0468 56.2113C55.5142 56.843 55.0223 57.5365 54.432 58.1132C53.1973 59.3199 51.6692 60.0588 50.0497 60.5989L49.9181 60.6248C48.3779 60.9694 46.5823 61.1182 45.0344 60.7393L43.638 60.3309C41.48 59.471 39.7766 57.5461 38.8571 55.4482C37.7259 52.8668 37.7828 49.3204 38.8044 46.7193C39.988 43.7065 42.2209 41.1868 45.1781 39.8091C45.6163 39.6049 46.0817 39.4875 46.5478 39.366C46.5977 39.3531 46.8963 39.2983 46.9295 39.2685C47.0642 39.1481 47.1957 38.7873 47.3041 38.6126C47.8952 37.6599 48.5642 37.1146 49.5826 36.6765Z" fill="#3D83AB"/>
<path d="M48.1193 40.7903L48.2092 40.7661C49.9596 40.5738 52.5741 41.1784 54.0029 42.2638C55.6825 43.5398 56.6894 46.3346 56.933 48.3547C57.2439 50.9337 56.6599 53.6124 54.978 55.6407C54.5343 56.1757 54.029 56.4002 53.4197 56.7028C51.7612 57.5264 50.1959 57.9787 48.3463 58.1433C46.3061 58.4269 43.8058 57.7486 42.1282 56.5601C40.8206 55.6337 39.8671 54.0152 39.6057 52.443L39.5767 52.2605C39.4329 51.4104 39.4444 50.5208 39.565 49.667L39.5915 49.4899C39.7319 48.5138 40.042 47.62 40.418 46.7129C41.4326 44.2657 43.7388 41.9065 46.2811 41.0417C46.8779 40.8387 47.3975 41.1067 48.019 40.8373L48.1193 40.7903Z" fill="white"/>
<path d="M43.856 48.6177C44.0494 48.5512 44.2489 48.537 44.4525 48.5454C44.8229 48.561 45.1775 48.8254 45.4025 49.1078C45.894 49.7245 45.973 50.5528 45.8287 51.3267C45.6929 52.0545 45.2927 52.5797 44.6842 52.9766C44.4791 53.0915 44.3494 53.0733 44.1198 53.056C43.6873 52.8286 43.2769 52.5312 43.0419 52.0896C42.6684 51.3873 42.6261 50.6482 42.8767 49.9004C43.0544 49.3703 43.3497 48.8738 43.856 48.6177Z" fill="#3D83AB"/>
</svg>
