<svg width="22" height="23" viewBox="0 0 22 23" fill="none" xmlns="http://www.w3.org/2000/svg">
<path d="M14.3333 11.5C14.3333 13.3409 12.8409 14.8333 11 14.8333C9.1591 14.8333 7.66667 13.3409 7.66667 11.5C7.66667 9.6591 9.1591 8.16667 11 8.16667C12.8409 8.16667 14.3333 9.6591 14.3333 11.5ZM14.3333 11.5V12.6111C14.3333 14.452 15.8258 15.9444 17.6667 15.9444C19.5076 15.9444 21 14.452 21 12.6111V11.5C21 5.97711 16.5229 1.5 11 1.5C5.47711 1.5 1 5.97711 1 11.5C1 17.0229 5.47711 21.5 11 21.5" stroke="#212529" stroke-width="2" stroke-linecap="round" stroke-linejoin="round"/>
</svg>
