<svg width="120" height="40" viewBox="0 0 120 40" fill="none" xmlns="http://www.w3.org/2000/svg">
<path d="M25.9742 8.4364C26.5259 8.4364 27.0653 8.27279 27.524 7.96627C27.9828 7.65974 28.3403 7.22406 28.5514 6.71433C28.7626 6.20459 28.8178 5.64369 28.7102 5.10256C28.6026 4.56143 28.3369 4.06437 27.9467 3.67424C27.5566 3.2841 27.0595 3.01842 26.5184 2.91078C25.9773 2.80314 25.4164 2.85839 24.9066 3.06953C24.3969 3.28066 23.9612 3.63822 23.6547 4.09696C23.3482 4.55571 23.1846 5.09506 23.1846 5.64679C23.1846 6.38664 23.4785 7.09619 24.0016 7.61934C24.5248 8.1425 25.2343 8.4364 25.9742 8.4364Z" fill="#7DD6F7"/>
<path d="M19.3818 26.3152C17.5262 26.3152 15.7123 25.7649 14.1694 24.734C12.6266 23.703 11.4241 22.2377 10.714 20.5233C10.004 18.809 9.81826 16.9226 10.1804 15.1026C10.5424 13.2827 11.4361 11.611 12.7483 10.299C14.0605 8.98697 15.7322 8.09352 17.5522 7.73165C19.3722 7.36978 21.2586 7.55573 22.9729 8.26599C24.6871 8.97624 26.1523 10.1789 27.1831 11.7219C28.2138 13.2649 28.7639 15.0789 28.7636 16.9344C28.7607 19.4217 27.7713 21.8061 26.0124 23.5647C24.2536 25.3234 21.869 26.3125 19.3818 26.3152ZM19.3818 12.0131C18.4085 12.0131 17.457 12.3017 16.6477 12.8425C15.8384 13.3833 15.2076 14.1519 14.8351 15.0511C14.4626 15.9504 14.3652 16.9399 14.555 17.8946C14.7449 18.8492 15.2137 19.7261 15.9019 20.4144C16.5902 21.1026 17.4671 21.5713 18.4217 21.7612C19.3764 21.9511 20.3659 21.8537 21.2651 21.4812C22.1644 21.1087 22.933 20.4779 23.4738 19.6686C24.0145 18.8593 24.3032 17.9078 24.3032 16.9344C24.3017 15.6297 23.7827 14.3788 22.8601 13.4562C21.9375 12.5336 20.6866 12.0146 19.3818 12.0131Z" fill="#3C84AC"/>
<path d="M20.8696 37.1428C18.8423 37.1431 16.8978 36.3387 15.4632 34.9062C14.0287 33.4737 13.2214 31.5304 13.2188 29.5031H17.6815C17.6812 30.1339 17.8681 30.7506 18.2184 31.2752C18.5687 31.7999 19.0667 32.2088 19.6495 32.4504C20.2322 32.6919 20.8735 32.7552 21.4922 32.6323C22.1109 32.5094 22.6793 32.2057 23.1254 31.7597C23.5716 31.3138 23.8754 30.7455 23.9986 30.1268C24.1217 29.5081 24.0586 28.8668 23.8173 28.284C23.5759 27.7012 23.1672 27.203 22.6427 26.8525C22.1182 26.502 21.5015 26.315 20.8707 26.315H19.3824V21.8545H20.8696C22.8969 21.8545 24.8413 22.6599 26.2748 24.0934C27.7084 25.527 28.5137 27.4713 28.5137 29.4986C28.5137 31.526 27.7084 33.4703 26.2748 34.9039C24.8413 36.3374 22.8969 37.1428 20.8696 37.1428Z" fill="#1DBED0"/>
<path d="M20.869 21.8545H19.3818V26.315C21.7956 26.3159 24.1163 25.3833 25.8583 23.7124C24.4728 22.5131 22.7015 21.8534 20.869 21.8545Z" fill="#7DD6F7"/>
<path d="M45.7614 27V12.4545H50.8466C51.8598 12.4545 52.6955 12.6297 53.3537 12.9801C54.0118 13.3258 54.5019 13.7921 54.8239 14.3793C55.1458 14.9616 55.3068 15.608 55.3068 16.3182C55.3068 16.9432 55.1955 17.4593 54.973 17.8665C54.7552 18.2737 54.4664 18.5956 54.1065 18.8324C53.7514 19.0691 53.3655 19.2443 52.9489 19.358V19.5C53.3939 19.5284 53.8414 19.6847 54.2912 19.9688C54.741 20.2528 55.1174 20.66 55.4205 21.1903C55.7235 21.7206 55.875 22.3693 55.875 23.1364C55.875 23.8655 55.7093 24.5213 55.3778 25.1037C55.0464 25.6861 54.5232 26.1477 53.8082 26.4886C53.0933 26.8295 52.1629 27 51.017 27H45.7614ZM47.5227 25.4375H51.017C52.1676 25.4375 52.9844 25.215 53.4673 24.7699C53.955 24.3201 54.1989 23.7756 54.1989 23.1364C54.1989 22.6439 54.0734 22.1894 53.8224 21.7727C53.5715 21.3513 53.214 21.0152 52.75 20.7642C52.286 20.5085 51.7367 20.3807 51.1023 20.3807H47.5227V25.4375ZM47.5227 18.8466H50.7898C51.3201 18.8466 51.7983 18.7424 52.2244 18.5341C52.6553 18.3258 52.9962 18.0322 53.2472 17.6534C53.5028 17.2746 53.6307 16.8295 53.6307 16.3182C53.6307 15.679 53.4081 15.1368 52.9631 14.6918C52.518 14.242 51.8125 14.017 50.8466 14.017H47.5227V18.8466ZM61.7521 27.2557C61.0608 27.2557 60.4335 27.1255 59.87 26.8651C59.3066 26.5999 58.8591 26.2188 58.5277 25.7216C58.1963 25.2197 58.0305 24.6136 58.0305 23.9034C58.0305 23.2784 58.1536 22.7718 58.3999 22.3835C58.6461 21.9905 58.9751 21.6828 59.3871 21.4602C59.799 21.2377 60.2536 21.072 60.7507 20.9631C61.2526 20.8494 61.7569 20.7595 62.2635 20.6932C62.9264 20.608 63.4638 20.544 63.8757 20.5014C64.2924 20.4541 64.5954 20.3759 64.7848 20.267C64.9789 20.1581 65.076 19.9687 65.076 19.6989V19.642C65.076 18.9413 64.8842 18.3968 64.5007 18.0085C64.1219 17.6203 63.5466 17.4261 62.7749 17.4261C61.9747 17.4261 61.3473 17.6013 60.8928 17.9517C60.4382 18.3021 60.1186 18.6761 59.9339 19.0739L58.343 18.5057C58.6271 17.8428 59.0059 17.3267 59.4794 16.9574C59.9576 16.5833 60.4785 16.3229 61.0419 16.1761C61.6101 16.0246 62.1688 15.9489 62.718 15.9489C63.0684 15.9489 63.4709 15.9915 63.9254 16.0767C64.3847 16.1572 64.8274 16.3253 65.2536 16.581C65.6844 16.8366 66.0419 17.2225 66.326 17.7386C66.6101 18.2547 66.7521 18.946 66.7521 19.8125V27H65.076V25.5227H64.9908C64.8771 25.7595 64.6877 26.0128 64.4226 26.2827C64.1574 26.5526 63.8047 26.7822 63.3643 26.9716C62.924 27.161 62.3866 27.2557 61.7521 27.2557ZM62.0078 25.75C62.6707 25.75 63.2294 25.6198 63.6839 25.3594C64.1432 25.099 64.4889 24.7628 64.7209 24.3509C64.9576 23.9389 65.076 23.5057 65.076 23.0511V21.517C65.005 21.6023 64.8487 21.6804 64.6072 21.7514C64.3705 21.8177 64.0959 21.8769 63.7834 21.929C63.4756 21.9763 63.175 22.0189 62.8814 22.0568C62.5926 22.09 62.3582 22.1184 62.1783 22.142C61.7427 22.1989 61.3355 22.2912 60.9567 22.419C60.5826 22.5421 60.2796 22.7292 60.0476 22.9801C59.8203 23.2263 59.7067 23.5625 59.7067 23.9886C59.7067 24.571 59.9221 25.0114 60.353 25.3097C60.7886 25.6032 61.3402 25.75 62.0078 25.75ZM71.4876 20.4375V27H69.8114V16.0909H71.4308V17.7955H71.5728C71.8285 17.2415 72.2167 16.7964 72.7376 16.4602C73.2584 16.1193 73.9308 15.9489 74.7546 15.9489C75.4933 15.9489 76.1396 16.1004 76.6935 16.4034C77.2475 16.7017 77.6784 17.1562 77.9862 17.767C78.2939 18.3731 78.4478 19.1402 78.4478 20.0682V27H76.7717V20.1818C76.7717 19.3248 76.5491 18.6572 76.104 18.179C75.659 17.696 75.0482 17.4545 74.2717 17.4545C73.7366 17.4545 73.2584 17.5705 72.837 17.8026C72.4203 18.0346 72.0913 18.3731 71.8498 18.8182C71.6083 19.2633 71.4876 19.803 71.4876 20.4375ZM83.0732 23.0227L83.0447 20.9489H83.3857L88.1584 16.0909H90.2322L85.147 21.233H85.005L83.0732 23.0227ZM81.5107 27V12.4545H83.1868V27H81.5107ZM88.4425 27L84.1811 21.6023L85.3743 20.4375L90.5732 27H88.4425ZM92.3896 27V16.0909H94.0657V27H92.3896ZM93.2418 14.2727C92.9151 14.2727 92.6334 14.1615 92.3967 13.9389C92.1647 13.7164 92.0487 13.4489 92.0487 13.1364C92.0487 12.8239 92.1647 12.5563 92.3967 12.3338C92.6334 12.1113 92.9151 12 93.2418 12C93.5685 12 93.8479 12.1113 94.0799 12.3338C94.3166 12.5563 94.435 12.8239 94.435 13.1364C94.435 13.4489 94.3166 13.7164 94.0799 13.9389C93.8479 14.1615 93.5685 14.2727 93.2418 14.2727ZM98.8118 20.4375V27H97.1357V16.0909H98.755V17.7955H98.897C99.1527 17.2415 99.541 16.7964 100.062 16.4602C100.583 16.1193 101.255 15.9489 102.079 15.9489C102.817 15.9489 103.464 16.1004 104.018 16.4034C104.572 16.7017 105.003 17.1562 105.31 17.767C105.618 18.3731 105.772 19.1402 105.772 20.0682V27H104.096V20.1818C104.096 19.3248 103.873 18.6572 103.428 18.179C102.983 17.696 102.372 17.4545 101.596 17.4545C101.061 17.4545 100.583 17.5705 100.161 17.8026C99.7446 18.0346 99.4155 18.3731 99.174 18.8182C98.9325 19.2633 98.8118 19.803 98.8118 20.4375ZM113.238 31.3182C112.429 31.3182 111.733 31.214 111.15 31.0057C110.568 30.8021 110.083 30.5322 109.694 30.196C109.311 29.8646 109.005 29.5095 108.778 29.1307L110.113 28.1932C110.265 28.392 110.457 28.6193 110.689 28.875C110.921 29.1354 111.238 29.3603 111.64 29.5497C112.047 29.7438 112.58 29.8409 113.238 29.8409C114.119 29.8409 114.846 29.6278 115.419 29.2017C115.992 28.7756 116.278 28.108 116.278 27.1989V24.983H116.136C116.013 25.1818 115.838 25.428 115.61 25.7216C115.388 26.0104 115.066 26.2685 114.645 26.4957C114.228 26.7183 113.664 26.8295 112.954 26.8295C112.074 26.8295 111.283 26.6212 110.582 26.2045C109.886 25.7879 109.334 25.1818 108.927 24.3864C108.525 23.5909 108.324 22.625 108.324 21.4886C108.324 20.3712 108.52 19.3982 108.913 18.5696C109.306 17.7363 109.853 17.0923 110.554 16.6378C111.254 16.1785 112.064 15.9489 112.983 15.9489C113.693 15.9489 114.256 16.0672 114.673 16.304C115.094 16.536 115.416 16.8011 115.639 17.0994C115.866 17.393 116.041 17.6345 116.164 17.8239H116.335V16.0909H117.954V27.3125C117.954 28.25 117.741 29.0123 117.315 29.5994C116.894 30.1913 116.325 30.6245 115.61 30.8991C114.9 31.1785 114.109 31.3182 113.238 31.3182ZM113.181 25.3239C113.854 25.3239 114.422 25.17 114.886 24.8622C115.35 24.5545 115.703 24.1117 115.944 23.5341C116.186 22.9564 116.306 22.2652 116.306 21.4602C116.306 20.6742 116.188 19.9806 115.951 19.3793C115.715 18.7779 115.364 18.3068 114.9 17.9659C114.436 17.625 113.863 17.4545 113.181 17.4545C112.471 17.4545 111.879 17.6345 111.406 17.9943C110.937 18.3542 110.584 18.8371 110.348 19.4432C110.116 20.0492 110 20.7216 110 21.4602C110 22.2178 110.118 22.8878 110.355 23.4702C110.596 24.0478 110.951 24.5024 111.42 24.8338C111.894 25.1605 112.481 25.3239 113.181 25.3239Z" fill="#475058"/>
</svg>
