<svg width="26" height="26" viewBox="0 0 26 26" fill="none" xmlns="http://www.w3.org/2000/svg">
<g clip-path="url(#clip0_112_309)">
<path d="M22.9608 7.16342V6.80775C22.9608 5.17274 21.6306 3.84253 19.9956 3.84253H2.96522C1.33016 3.84258 0 5.17274 0 6.80775V7.16342H22.9608Z" fill="#232323"/>
<path d="M13.5651 16.7017C13.5651 15.1636 14.0598 13.7017 14.9731 12.4968H0V16.6331C0 18.2681 1.33016 19.5983 2.96522 19.5983H14.1911C13.7813 18.7007 13.5651 17.7179 13.5651 16.7017ZM11.4804 15.803H8.92125V14.2796H11.4804V15.803ZM3.41545 14.2796H7.39781V15.803H3.41545V14.2796Z" fill="#232323"/>
<path d="M16.5547 10.9734C17.7165 10.1606 19.0967 9.72262 20.5443 9.72262C21.3822 9.72262 22.1973 9.86974 22.9608 10.1509V8.68689H0V10.9734H16.5547Z" fill="#232323"/>
<path d="M26.0003 16.7018C26.0003 13.6887 23.5577 11.2461 20.5446 11.2461C17.5315 11.2461 15.0889 13.6887 15.0889 16.7018C15.0889 19.7149 17.5314 22.1575 20.5446 22.1575C23.5577 22.1575 26.0003 19.7149 26.0003 16.7018ZM21.28 19.6164V20.2364H20.5183V20.2364V20.2364H19.7566V19.6209C19.296 19.465 18.9192 19.1906 18.5513 18.9215L19.4506 17.6919C19.945 18.0534 20.198 18.2272 20.5446 18.2272C20.7406 18.2272 20.8993 18.1339 20.9588 17.9838C21.0308 17.802 20.9291 17.6345 20.6864 17.5357C20.6864 17.5357 19.5976 17.1726 19.0942 16.6593C18.6719 16.2288 18.5375 15.622 18.672 15.0447C18.8074 14.4635 19.1998 14.0091 19.7566 13.7822V13.1671H21.28V13.7567C21.6669 13.8641 21.9944 14.0229 22.1827 14.1251L21.4559 15.464C20.974 15.2024 20.5306 15.1239 20.3581 15.1829C20.1907 15.2401 20.1652 15.3493 20.1556 15.3904C20.1421 15.4486 20.1348 15.538 20.2279 15.6418C20.3176 15.7417 21.2608 16.1248 21.2608 16.1248C22.2786 16.5391 22.7575 17.5795 22.3751 18.5449C22.1764 19.0467 21.7764 19.4267 21.28 19.6164Z" fill="#232323"/>
</g>
<defs>
<clipPath id="clip0_112_309">
<rect width="26" height="26" fill="white"/>
</clipPath>
</defs>
</svg>
