<svg width="40" height="40" viewBox="0 0 40 40" fill="none" xmlns="http://www.w3.org/2000/svg">
<path d="M25.9739 8.43634C26.5256 8.43634 27.065 8.27273 27.5237 7.96621C27.9824 7.65968 28.34 7.224 28.5511 6.71427C28.7623 6.20453 28.8175 5.64363 28.7099 5.1025C28.6022 4.56137 28.3366 4.06431 27.9464 3.67418C27.5563 3.28404 27.0592 3.01836 26.5181 2.91072C25.977 2.80308 25.4161 2.85833 24.9063 3.06946C24.3966 3.2806 23.9609 3.63815 23.6544 4.0969C23.3479 4.55565 23.1843 5.095 23.1843 5.64673C23.1843 6.38658 23.4782 7.09613 24.0013 7.61928C24.5245 8.14243 25.234 8.43634 25.9739 8.43634Z" fill="#7DD6F7"/>
<path d="M19.3818 26.315C17.5262 26.315 15.7123 25.7648 14.1694 24.7338C12.6266 23.7029 11.4241 22.2376 10.714 20.5232C10.004 18.8089 9.81826 16.9224 10.1804 15.1025C10.5424 13.2826 11.4361 11.6109 12.7483 10.2989C14.0605 8.98685 15.7322 8.0934 17.5522 7.73153C19.3722 7.36966 21.2586 7.55561 22.9729 8.26586C24.6871 8.97612 26.1523 10.1788 27.1831 11.7218C28.2138 13.2647 28.7639 15.0787 28.7636 16.9343C28.7607 19.4215 27.7713 21.806 26.0124 23.5646C24.2536 25.3232 21.869 26.3124 19.3818 26.315ZM19.3818 12.013C18.4085 12.013 17.457 12.3016 16.6477 12.8424C15.8384 13.3831 15.2076 14.1518 14.8351 15.051C14.4626 15.9503 14.3652 16.9398 14.555 17.8944C14.7449 18.8491 15.2137 19.726 15.9019 20.4142C16.5902 21.1025 17.4671 21.5712 18.4217 21.7611C19.3764 21.951 20.3659 21.8535 21.2651 21.481C22.1644 21.1086 22.933 20.4778 23.4738 19.6685C24.0145 18.8592 24.3032 17.9077 24.3032 16.9343C24.3017 15.6296 23.7827 14.3787 22.8601 13.456C21.9375 12.5334 20.6866 12.0145 19.3818 12.013Z" fill="#3C84AC"/>
<path d="M20.8693 37.1429C18.842 37.1432 16.8975 36.3387 15.4629 34.9062C14.0284 33.4738 13.2211 31.5304 13.2184 29.5032H17.6812C17.6809 30.134 17.8678 30.7507 18.2181 31.2753C18.5684 31.7999 19.0664 32.2089 19.6492 32.4504C20.2319 32.692 20.8732 32.7553 21.4919 32.6324C22.1106 32.5094 22.679 32.2058 23.1251 31.7598C23.5713 31.3138 23.8751 30.7456 23.9983 30.1269C24.1214 29.5082 24.0583 28.8669 23.817 28.2841C23.5756 27.7012 23.1668 27.2031 22.6424 26.8526C22.1179 26.5021 21.5012 26.315 20.8704 26.315H19.3821V21.8546H20.8693C22.8966 21.8546 24.841 22.6599 26.2745 24.0935C27.7081 25.527 28.5134 27.4714 28.5134 29.4987C28.5134 31.5261 27.7081 33.4704 26.2745 34.9039C24.841 36.3375 22.8966 37.1429 20.8693 37.1429Z" fill="#1DBED0"/>
<path d="M20.8692 21.8546H19.382V26.315C21.7958 26.3159 24.1164 25.3834 25.8584 23.7124C24.473 22.5131 22.7016 21.8535 20.8692 21.8546Z" fill="#7DD6F7"/>
</svg>
