<svg width="238" height="140" viewBox="0 0 238 140" fill="none" xmlns="http://www.w3.org/2000/svg">
<path d="M141.19 0.0463225C141.392 -0.00970279 141.5 -0.00210031 141.707 0.00463997C141.819 0.132136 141.958 0.278957 142.028 0.434294C142.203 0.820111 142.112 0.997391 141.943 1.33954L141.535 1.35864C141.413 1.2152 141.267 1.05935 141.179 0.89234C140.996 0.545448 141.066 0.382285 141.19 0.0463225Z" fill="#1FBED0"/>
<path d="M123.222 6.51248L123.504 6.45352C123.876 6.57005 124.086 6.68159 124.356 6.96499C124.35 7.30149 124.315 7.34407 124.142 7.6154C123.791 7.60678 123.466 7.51714 123.175 7.31855C122.938 7.15634 122.972 7.12186 122.918 6.8357L123.222 6.51248Z" fill="#1FBED0"/>
<path d="M157.758 13.7543C158.037 13.6482 158.373 13.6783 158.671 13.6764C158.939 13.8898 158.925 13.8652 158.967 14.2069L158.671 14.5821C158.435 14.7325 158.234 14.7763 157.962 14.8274L157.67 14.6078C157.586 14.1836 157.577 14.1441 157.758 13.7543Z" fill="#1FBED0"/>
<path d="M141.109 3.79668L141.471 3.73566L141.792 4.01147C141.851 4.46726 141.944 4.93357 141.951 5.39228C141.964 6.18164 142.103 7.65295 141.534 8.24372L141.084 8.24406C140.653 7.82361 140.628 7.51694 140.597 6.92548C140.55 6.03356 140.501 4.47399 141.109 3.79668Z" fill="#3D83AB"/>
<path d="M125.624 8.58158C125.771 8.54625 125.923 8.51246 126.075 8.51453C126.858 8.52521 128.591 10.1739 129.093 10.78C129.046 11.2451 129.025 11.317 128.74 11.6852C128.611 11.7342 128.463 11.7716 128.322 11.7712C127.629 11.77 126.037 10.4278 125.566 9.92447C125.216 9.55056 125.26 9.38714 125.274 8.9055L125.624 8.58158Z" fill="#3D83AB"/>
<path d="M154.558 14.3815C154.79 14.3276 155.033 14.3884 155.265 14.422C155.628 14.7721 155.606 14.7977 155.652 15.3062C155.428 15.6613 154.96 15.7987 154.587 15.9594C153.475 16.4383 152.326 16.8799 151.164 17.2223C150.66 17.2119 150.45 17.1187 150.079 16.802C149.959 16.4314 149.963 16.3378 150.035 15.9528C150.819 14.9156 153.325 14.5558 154.558 14.3815Z" fill="#3D83AB"/>
<path d="M36.2836 20.0628C38.0049 19.8874 40.1375 20.0085 41.7519 20.6569C45.5993 22.2021 48.9715 24.4263 50.6509 28.3677C52.7878 33.3833 51.7759 39.7193 47.4247 43.1948C46.7527 43.7316 46.0739 44.1653 45.3255 44.5844C45.0723 44.7261 44.3058 45.0346 44.1442 45.2349C43.9485 45.4778 43.9148 46.1836 43.8654 46.4977L43.3253 50.2279C43.2334 50.7871 43.1824 51.4326 42.9458 51.9518C42.7991 52.2741 42.6012 52.4945 42.2755 52.6186C41.6944 52.8401 41.2481 52.6234 40.7249 52.3783C39.0904 51.1035 37.655 49.5315 36.3008 47.9673C35.7716 47.356 35.1277 46.3236 34.5074 45.8655C34.0342 45.5161 32.8475 45.2817 32.2506 45.0479C31.2719 44.6645 30.3825 44.167 29.5299 43.5538C27.0212 41.7497 25.1954 38.7488 24.7295 35.6932C24.1485 31.883 25.0447 28.1665 27.3519 25.0832C29.5115 22.1972 32.7752 20.5671 36.2836 20.0628Z" fill="#3D83AB"/>
<path d="M36.2649 21.6181C37.3791 21.516 38.591 21.5148 39.6949 21.7144C42.3467 22.1938 44.7478 23.7548 46.2792 25.9775C47.9244 28.3654 48.5064 31.5587 47.973 34.3998C47.47 37.0792 45.9889 39.9385 43.7192 41.5331C43.0633 41.9939 42.1077 42.3795 41.5268 42.907C41.3086 43.1051 41.327 43.4471 41.2882 43.7224L40.8075 48.3423L39.5307 47.101L37.6663 45.127C37.505 44.9672 37.2307 44.6188 37.0496 44.5259C36.8036 44.3995 36.1354 44.3976 35.8281 44.3538C34.1003 44.1072 32.3152 43.6615 30.875 42.6267C28.3039 40.7791 26.6942 38.1574 26.1991 35.0302C25.7004 31.8807 26.4324 28.7695 28.3153 26.1972C30.3163 23.4635 32.9602 22.143 36.2649 21.6181Z" fill="white"/>
<path d="M40.0832 28.6262C40.4633 28.584 40.94 28.6474 41.2759 28.8453C41.5301 28.9953 41.7479 29.2403 41.8151 29.5337C42.0848 30.7126 40.9261 31.3434 40.2107 32.1165C39.8149 32.5442 39.4759 33.0407 39.1472 33.5216C40.205 34.4934 41.3145 35.512 42.2083 36.6379C42.278 37.0766 42.3569 37.4681 42.0789 37.854C41.8093 38.2285 41.3571 38.462 40.9036 38.5058C39.5206 38.6393 37.9177 36.867 36.9066 36.0056C35.8789 36.8339 34.7606 38.2167 33.4421 38.3921C33.1431 38.4038 32.8892 38.2779 32.6691 38.0733C32.3613 37.787 32.205 37.5219 32.2167 37.0968C32.245 36.0645 34.417 34.5148 35.1773 33.8412C34.2191 32.7933 32.6858 31.9195 31.8913 30.7833C31.6965 30.5047 31.5447 30.0882 31.617 29.7474C31.7194 29.2644 32.1428 28.9414 32.5403 28.7085C32.7305 28.6955 32.9996 28.6435 33.1845 28.6643C33.3791 28.6862 33.8211 28.9953 33.9991 29.0981C35.1268 29.7498 36.1362 30.6388 37.1286 31.4759C37.8524 30.6807 39.046 28.8664 40.0832 28.6262Z" fill="#3D83AB"/>
<path d="M137.528 11.5211C138.691 11.4308 139.755 11.6194 140.854 11.985C142.471 12.5225 143.948 13.5224 144.706 15.1004C145.516 16.787 145.603 18.3331 145.013 20.0951C146.134 20.1925 147.241 20.1799 148.204 20.8379C148.99 21.3747 149.451 22.1692 149.691 23.0829C149.913 23.9317 149.943 24.8204 150.028 25.6902L150.415 31.3377L151.654 50.1802L152.002 56.5043C152.079 58.242 152.048 60.0629 152.393 61.7704C152.631 61.5621 152.783 61.1908 152.93 60.9112C153.214 60.3709 153.429 59.7655 153.416 59.146C153.399 58.2999 153.093 57.0946 153.491 56.3107C153.647 56.0032 153.925 55.7391 154.265 55.6503C154.611 55.56 155.158 55.7638 155.461 55.9439C156.643 56.6458 157.391 58.7769 157.639 60.0499C158.101 62.4185 157.087 64.1315 155.793 65.9974L155.873 66.1284C156.544 67.2024 157.561 68.199 158.48 69.06C162.273 72.6157 167.306 75.1246 172.367 76.2411C172.857 72.7718 173.246 69.441 174.452 66.1293C175.009 64.5999 175.61 63.1986 176.821 62.0646C177.73 61.2146 178.984 60.755 180.176 60.4914C182.275 60.0279 184.63 60.0218 186.781 59.8715C192.63 59.463 198.569 59.1577 204.432 59.3035C207.395 59.3771 215.331 59.7326 217.281 62.0775C218.224 63.211 218.411 64.9352 218.61 66.3415C219.031 69.3234 219.234 72.371 219.352 75.3804L219.431 78.5421C219.44 78.8134 219.418 79.4225 219.526 79.6545C219.565 79.7367 220.584 80.211 220.725 80.2839C222.755 81.3377 224.595 82.7273 226.165 84.3936C230.889 89.4053 233.071 96.5187 232.799 103.323C232.76 104.318 232.645 105.337 232.466 106.317C232.385 106.756 232.076 107.597 232.116 108.007C232.129 108.164 232.592 108.756 232.691 108.935C233.402 110.215 233.529 111.508 233.485 112.943C233.416 115.127 232.598 116.944 230.982 118.426C230.137 119.201 228.859 119.671 227.718 119.6C226.847 119.545 226.229 119.258 225.665 118.588C225.214 118.05 225.128 117.361 225.226 116.675C225.373 115.657 226.519 114.748 227.261 114.168L226.784 112.412C226.043 112.598 225.275 112.804 224.508 112.814C223.822 112.823 223.116 112.783 222.604 112.271C222.163 111.83 221.965 111.32 221.969 110.701C221.974 109.966 222.353 109.282 222.869 108.778C224.53 107.151 227.138 107.26 229.268 107.307C230.145 103.461 230.23 99.1477 229.232 95.3166C227.737 89.5774 224.751 85.7106 219.684 82.7245L219.706 95.5509L219.308 103.407C219.28 103.914 219.095 104.841 219.184 105.314C219.248 105.646 219.443 105.944 219.517 106.283C219.414 106.414 219.15 106.676 219.093 106.819C218.904 107.301 218.961 108.246 218.918 108.801C218.772 110.64 218.774 113.604 217.451 115.038C216.92 115.612 216.236 115.992 215.529 116.306C212.62 117.597 208.647 117.45 205.509 117.533C205.49 120.398 205.699 123.034 206.599 125.779C207.022 127.066 207.632 128.21 207.891 129.556L209.784 129.55C210.167 129.795 210.519 130.051 210.815 130.404C211.653 131.406 211.883 132.961 211.751 134.223L211.737 134.351C220.448 134.661 229.233 134.294 237.886 135.521C228.55 136.505 219.102 136.699 209.721 136.909C207.759 136.953 205.837 137.322 203.875 137.323C202.401 137.324 201.03 136.974 199.582 136.884C197.081 136.728 194.53 136.828 192.022 136.826L170.135 136.521C164.755 136.382 159.312 136.313 153.967 135.636C157.665 135.019 161.548 134.988 165.29 134.85L184.335 134.348L184.357 133.822C184.436 132.434 184.902 131.42 185.944 130.504C187.542 129.1 189.456 129.108 191.464 129.224C189.918 125.035 189.126 120.853 188.927 116.394C187.427 116.298 185.731 116.06 184.244 116.156C183.521 116.202 182.834 116.419 182.091 116.424C180.02 116.438 177.654 115.616 176.182 114.107C175.229 113.131 174.729 112.028 174.339 110.745C173.705 108.665 173.518 106.45 173.245 104.302C172.159 95.7648 172.041 87.1831 172.223 78.5919C166.483 77.5119 161.014 75.1028 156.762 71.0071C156.132 70.4012 155.48 69.7935 154.918 69.124C154.392 68.4972 153.911 67.6813 153.259 67.1876L152.68 67.2857C152.629 67.3313 152.553 67.3591 152.527 67.4225C152.486 67.5236 152.54 67.9511 152.544 68.0893L152.68 70.3322L153.066 78.0389C153.091 79.0324 153.236 80.2505 152.987 81.2117C152.617 82.6461 151.569 83.9647 150.299 84.7033C149.65 85.081 148.85 85.3357 148.105 85.4218C145.672 85.7037 143.155 85.6903 140.707 85.818L122.983 86.6218L108.049 87.4101L95.6038 88.0611C94.1143 88.1131 92.1486 88.4122 90.7039 87.9945C89.768 87.7239 89.123 87.0614 88.657 86.2283C88.4527 85.8633 86.9424 85.448 86.4346 84.9942C85.3187 83.9967 85.2576 82.8535 85.1616 81.4382L84.6426 72.4012L84.1025 61.5411C83.2558 61.6095 82.4265 61.5537 81.5813 61.5016C80.6951 63.4739 79.8063 65.3537 78.5008 67.0886C74.5182 72.3814 68.6462 74.0113 62.42 74.8955L63.0051 78.3725C64.295 87.2971 64.8272 96.8141 63.8159 105.787C63.5885 107.806 63.5586 110.07 62.2807 111.758C61.752 112.456 61.1102 112.983 60.3008 113.324C58.7561 113.975 56.8511 114.114 55.2006 114.367L47.9506 115.45C48.8778 118.809 48.2735 122.657 47.7922 126.051C47.5948 127.443 47.4428 128.952 46.9608 130.275L46.9044 130.427L48.9682 130.497C50.5221 130.683 51.9751 131.23 52.958 132.497C53.5742 133.29 53.6589 134.164 53.5352 135.132L82.1698 135.78L92.6016 136.302C94.0936 136.434 95.5534 136.507 97.022 136.821L83.4254 137.551L52.8774 137.965C51.2457 137.988 49.7407 138.504 48.1045 138.53C46.4879 138.556 45.0846 138.078 43.5193 137.886C42.3892 137.747 41.1432 137.852 40.0033 137.862C39.6627 137.865 38.9651 137.776 38.6596 137.874C38.3516 137.973 37.822 138.659 37.4622 138.868C35.7267 139.874 32.8662 140.062 30.8651 139.984C29.4467 139.929 27.4946 139.848 26.1811 139.314C25.7629 139.144 25.293 138.893 24.9952 138.549C24.8211 138.348 24.6464 137.981 24.459 137.821C24.4156 137.784 23.8837 137.77 23.8039 137.764C21.6046 137.593 19.3166 137.71 17.1077 137.698L5.0162 137.345C3.40914 137.24 1.66439 137.245 0.113281 136.8L25.0285 135.428C25.1475 134.417 25.1836 133.301 25.8475 132.479C26.6975 131.425 28.1575 131.315 29.4008 131.193C30.5854 128.422 31.3691 125.534 31.6405 122.524C31.7791 120.988 31.7286 119.411 31.7309 117.869L28.344 118.049C26.2602 118.223 23.5907 118.652 21.8103 117.3C19.3475 115.43 18.7351 111.358 18.1177 108.493C17.2619 104.522 16.591 100.586 16.1935 96.5383L15.186 85.2958L15.0783 85.3131C11.941 87.757 9.83912 90.4457 8.12698 94.0263C5.67051 99.1631 6.07935 105.914 7.96842 111.168C8.04126 111.371 8.53977 112.735 8.65486 112.801C8.74573 112.853 9.25042 112.652 9.37204 112.616C10.3431 112.333 11.4588 112.115 12.4665 112.038C13.5666 111.954 14.8273 112.138 15.8255 112.631C16.5356 112.983 17.1596 113.653 17.3619 114.436C17.51 115.009 17.342 115.709 17.0505 116.217C16.7134 116.804 15.8815 117.443 15.2174 117.576C14.2261 117.775 13.4834 117.266 12.6979 116.748C12.5744 117.4 12.191 118.688 12.3481 119.293C12.3758 119.399 12.377 119.366 12.4936 119.406C13.5285 119.765 15.1064 120.201 15.6651 121.234C15.9019 121.673 15.876 122.12 15.6982 122.578C15.3691 123.426 14.464 124.26 13.6391 124.603C12.5433 125.06 11.4741 124.76 10.4373 124.303C8.00467 123.23 5.21701 120.082 5.58084 117.263C5.65282 116.705 5.77461 116.179 5.9713 115.652C6.06148 115.41 6.33719 114.846 6.33066 114.605C6.32757 114.493 6.12092 114.18 6.05959 114.054L5.35289 112.444C2.7171 105.58 3.41381 98.0386 6.5861 91.5084C7.51475 89.5967 8.62273 87.6937 10.038 86.0995C10.8796 85.1517 11.7978 84.2703 12.7458 83.4311L14.5842 81.8712C14.6844 81.788 15.0326 81.5599 15.0855 81.4561C15.26 81.1139 15.0551 79.5581 15.0389 79.1222L14.8376 69.9113C14.8477 67.9833 14.74 65.242 15.5659 63.4782C16.0698 62.4025 17.1967 61.845 18.2723 61.5016C20.2561 60.8684 22.4202 60.3571 24.4697 59.9836C28.9454 59.1677 33.4509 58.6602 37.9773 58.2359C42.6585 57.797 47.5663 57.3804 52.2518 57.9001C53.3127 58.0177 54.4794 58.0291 55.427 58.5723C56.0026 58.9022 56.5487 59.6854 56.9534 60.2122C58.7372 62.5349 59.9155 65.1936 60.778 67.9819L61.9839 72.3724L67.519 71.1642C73.2888 69.3536 76.6948 65.6006 79.445 60.3652C77.9751 59.3787 77.093 57.8291 76.7306 56.1094C76.4102 54.5896 76.6917 52.8491 77.567 51.5539C78.1745 50.6546 79.0498 50.0685 80.1141 49.8751C80.5432 49.797 80.9562 49.839 81.3051 50.1167C82.4193 51.0037 81.3506 52.8811 81.593 54.0509C81.7048 54.5902 81.9711 54.6741 82.3993 54.9329C82.8465 54.951 83.1825 54.9497 83.6121 54.7886C83.794 54.3292 83.6705 53.6693 83.6487 53.1706L83.4499 49.0045L82.8661 35.5724L82.5208 31.7606C82.3845 29.4629 82.1113 26.1531 83.7475 24.3444C84.4715 23.544 85.4661 23.1608 86.5107 22.9891C88.4273 22.6738 90.5486 22.7333 92.4942 22.6559L101.854 22.2228L132.225 20.6614C131.978 20.1116 131.75 19.5485 131.631 18.9554C131.325 17.4302 131.669 15.9756 132.541 14.6989C133.737 12.9464 135.478 11.8873 137.528 11.5211Z" fill="#3D83AB"/>
<path d="M215.517 107.253L215.924 107.227C216.118 107.55 215.992 108.075 215.955 108.437C215.826 109.657 215.678 110.839 215.408 112.038L215.307 112.304C215.127 111.985 215.24 111.604 215.255 111.239L215.517 107.253Z" fill="white"/>
<path d="M21.4003 108.417C21.5097 108.44 21.5956 108.495 21.694 108.546C21.8416 109.685 22.0683 110.822 22.3243 111.941C22.4636 112.55 22.8967 113.447 22.7486 114.029L22.2977 114.002C21.9058 113.628 21.705 112.503 21.5908 111.956C21.4386 111.227 20.9849 109.056 21.4003 108.417Z" fill="white"/>
<path d="M37.4872 113.849C37.605 113.866 37.7091 113.907 37.8216 113.945L37.8208 114.912L34.4719 115.459C34.2007 115.458 34.1732 115.47 33.9566 115.312L33.9033 114.56C34.3386 114.107 36.775 113.958 37.4872 113.849Z" fill="white"/>
<path d="M49.8623 59.5981L54.1958 59.853C54.8251 60.4645 55.3337 61.1242 55.8549 61.8258L53.4043 61.721C53.215 61.7098 52.7085 61.7415 52.5519 61.6691C52.2942 61.5498 51.9407 61.183 51.7052 60.9979L49.8623 59.5981Z" fill="white"/>
<path d="M44.1402 59.534L46.9234 59.4522C47.9142 59.9403 48.723 60.7205 49.6138 61.3699C49.912 61.5874 50.4997 61.9003 50.6308 62.2497L50.19 62.3316C49.8289 62.3526 49.3999 62.4588 49.049 62.4152C48.8722 62.3931 48.8073 62.3602 48.6288 62.428L48.5151 62.4828C47.9237 62.3311 47.4564 61.9408 46.9462 61.6222C45.9458 60.9977 44.9386 60.4257 44.0059 59.6981L44.1402 59.534Z" fill="white"/>
<path d="M182.501 61.7245C182.767 61.6972 182.891 61.6259 183.107 61.797C182.341 62.6571 181.869 63.4 181.424 64.464C180.91 64.5976 180.297 64.5714 179.766 64.6064L177.318 64.8639C177.04 64.9034 176.862 64.8917 176.585 64.836C176.712 64.5562 176.851 64.3051 177.047 64.0675C178.452 62.3625 180.402 61.9365 182.501 61.7245Z" fill="white"/>
<path d="M176.124 111.521L176.368 111.496C177.734 112.268 179.323 112.688 180.851 113.002C181.573 113.15 182.896 113.085 183.481 113.461C183.243 113.842 183.184 114.064 183.198 114.501L183.203 114.625C183.074 114.791 183.006 114.826 182.808 114.897C181.87 115.234 180.18 114.835 179.274 114.441C177.876 113.83 176.698 112.975 176.124 111.521Z" fill="white"/>
<path d="M187.158 61.4554C187.851 61.3195 188.708 61.3992 189.421 61.3856C188.638 62.1849 188.143 63.1453 187.619 64.1234L185.113 64.271L182.919 64.3856C183.17 63.9834 183.422 63.5442 183.742 63.1941C184.618 62.2318 185.856 61.5037 187.158 61.4554Z" fill="white"/>
<path d="M61.571 109.581L61.6593 109.84C61.5032 110.178 61.3412 110.55 61.1115 110.845C59.8384 112.48 56.346 112.506 54.4086 112.791L54.376 111.277L61.571 109.581Z" fill="white"/>
<path d="M184.721 113.719C185.538 113.385 187.359 113.72 188.313 113.746C191.375 113.833 194.38 113.797 197.438 114.064L197.95 115.327L188.301 114.841C187.349 114.788 185.765 114.908 184.93 114.524L184.721 113.719Z" fill="white"/>
<path d="M52.5517 111.65L52.8762 111.645C53.0726 111.989 53.0528 112.301 53.0585 112.685C52.4813 113.264 50.0506 113.359 49.1749 113.461L40.0126 114.571C39.8011 114.584 39.6594 114.556 39.4571 114.495L39.4502 113.719C39.5302 113.661 39.5996 113.584 39.6905 113.545C39.9051 113.453 40.4927 113.478 40.7581 113.454L43.5556 113.151L52.5517 111.65Z" fill="white"/>
<path d="M19.6623 63.4996L22.7988 68.4703C22.822 68.5115 21.966 71.2809 21.8803 71.5953C21.8805 71.7386 21.7803 71.9391 21.7333 72.078C20.8963 71.2671 20.3171 70.2835 19.5443 69.4408L19.4809 69.3731C19.3182 67.4525 19.4707 65.4117 19.6623 63.4996Z" fill="white"/>
<path d="M201.499 60.9131L206.239 60.9808C204.944 61.9588 204.286 62.9602 203.375 64.2874L202.719 64.2844L197.787 63.8721C198.862 62.5502 199.917 61.5931 201.499 60.9131Z" fill="white"/>
<path d="M213.783 63.6722L213.904 63.7265C214.374 65.4478 214.395 67.4366 214.36 69.2109C213.673 70.0018 213.074 71.0082 212.33 71.7185C212.11 71.5457 212.05 71.2087 211.968 70.9488C211.521 69.6891 211.007 68.6684 210.162 67.6283C211.621 66.425 212.67 65.1954 213.783 63.6722Z" fill="white"/>
<path d="M31.5906 60.6832L31.6078 60.6794C31.8698 60.6591 32.6629 60.5449 32.8891 60.6113C33.1712 60.6942 33.5816 61.0171 33.8422 61.1736C34.8929 61.8054 35.8532 62.5367 36.8222 63.2866L32.7838 63.9749L30.7699 64.4277C30.7456 64.4281 30.606 64.4093 30.5738 64.379C30.2215 64.0475 29.9044 63.5041 29.5969 63.1181C29.0654 62.451 28.4759 61.8435 27.875 61.2402L31.5906 60.6832Z" fill="white"/>
<path d="M40.0347 59.7805L40.0402 59.7777C40.5214 59.7453 41.3595 59.5948 41.8089 59.686C41.9621 59.7172 42.4857 60.2528 42.6606 60.393L45.4637 62.5435C45.0105 62.7078 44.2652 62.634 43.7773 62.6535L40.5978 62.8712C40.1854 62.9322 39.2689 63.0798 38.8783 62.9979C38.5912 62.9377 38.0347 62.3649 37.8021 62.176C36.9744 61.5038 36.1578 60.8817 35.248 60.3266L40.0347 59.7805Z" fill="white"/>
<path d="M195.87 60.9608L198.897 60.9119C198.421 61.3277 197.88 61.7169 197.449 62.1772C197 62.6585 196.651 63.3391 196.315 63.9064L192.175 64.0012C191.352 64.0076 190.024 64.1722 189.267 63.9309C189.404 63.4706 189.653 63.1301 189.976 62.7857C191.728 60.9284 193.515 61.0465 195.87 60.9608Z" fill="white"/>
<path d="M23.434 107.9C23.8744 107.812 24.3004 107.837 24.7457 107.853C25.0219 108.218 25.0845 108.973 25.1889 109.433C25.4825 110.724 25.9487 112.62 26.8504 113.599C27.9673 114.813 30.0779 114.598 31.574 114.674C31.7664 115.009 31.6733 115.406 31.6582 115.788L31.2667 115.918C29.6117 116.097 27.835 116.437 26.2273 115.863C25.5958 115.637 25.0733 115.078 24.8065 114.469C24.3252 113.37 23.0715 108.86 23.434 107.9Z" fill="white"/>
<path d="M154.614 57.0768C154.864 57.1505 155.112 57.4397 155.254 57.6581C156.154 59.0415 156.293 61.0903 155.944 62.6876C155.694 63.8309 155.043 64.9559 154.032 65.5772C153.298 66.0287 152.252 66.1567 151.422 65.9483C151.166 65.7873 150.893 65.6225 150.674 65.4125C150.087 64.8501 149.99 64.3277 149.985 63.5429C150.717 62.9326 151.8 63.2055 152.689 62.8259C153.927 62.2977 154.708 60.8178 154.664 59.4956C154.636 58.6238 154.287 57.9103 154.614 57.0768Z" fill="white"/>
<path d="M208.087 61.1338C209.64 61.1798 211.468 61.5365 212.933 62.0569L209.614 66.2585C209.508 66.3797 209.441 66.4479 209.29 66.5177C209.109 66.6012 209.051 66.4607 208.907 66.345C207.718 65.3869 206.433 65.064 205.024 64.572C205.72 63.1124 206.801 62.0609 208.087 61.1338Z" fill="white"/>
<path d="M80.1609 51.2574C80.399 51.2224 80.4107 51.222 80.6232 51.3343C80.4416 52.3577 80.225 53.1986 80.164 54.2636C80.4128 54.8287 80.6768 55.3353 81.125 55.7699C81.922 56.5426 82.8003 56.5017 83.8298 56.5027C83.8583 57.2707 84.1643 59.455 83.8264 60.0511C83.4198 60.1435 82.9945 60.0744 82.5824 60.0408C81.198 59.6812 79.8291 58.9711 79.0564 57.7163C78.3201 56.5208 78.0832 54.8227 78.4249 53.4677C78.6651 52.5158 79.3452 51.7513 80.1609 51.2574Z" fill="white"/>
<path d="M25.48 61.4533L25.9685 61.445C26.2614 62.0971 26.7788 62.5691 27.2459 63.0953L28.7418 64.9158C27.1873 65.3947 25.6263 65.8846 24.2849 66.84L24.1961 66.9051L23.968 67.123C23.6893 67.0796 23.6512 66.9338 23.4811 66.7114C22.5949 65.5512 21.9397 64.1523 20.8907 63.134L20.7656 63.0153C22.1833 62.0692 23.8202 61.7081 25.48 61.4533Z" fill="white"/>
<path d="M212.18 106.865C212.266 106.835 212.319 106.81 212.407 106.797C212.79 106.74 213.238 106.904 213.547 107.124L213.23 110.422C213.023 111.853 212.881 113.862 211.61 114.768C210.563 115.513 208.707 115.605 207.461 115.688C207.037 115.717 206.497 115.801 206.089 115.71C205.86 115.66 205.783 114.661 205.566 114.343C205.022 114.252 204.465 114.168 203.921 114.311C203.337 114.465 203.294 114.974 203.017 115.42L201.99 115.448L199.791 115.299L199.25 114.116C199.683 113.948 200.401 114.012 200.87 113.993L205.176 113.902C206.801 113.892 208.452 114.103 209.914 113.202C211.871 111.996 211.706 108.889 212.18 106.865Z" fill="white"/>
<path d="M188.868 130.357C189.921 130.271 191.153 130.3 192.168 130.624C192.488 130.727 192.78 131.048 193.113 131.052C193.445 131.055 193.799 130.926 194.029 130.689C194.401 130.303 195.159 130.371 195.683 130.333C195.879 130.687 196.104 131.068 196.203 131.462C196.451 132.442 196.087 133.174 195.576 133.977C195.107 134.162 194.644 134.224 194.149 134.293L194.068 134.304C192.553 134.372 187.022 134.752 186.032 133.893C186.022 133.166 186.082 132.488 186.445 131.84C186.951 130.938 187.929 130.584 188.868 130.357Z" fill="white"/>
<path d="M46.6355 131.767C48.3214 131.72 49.9693 131.704 51.3897 132.746C51.8353 133.073 52.2782 133.862 52.3137 134.43C52.3342 134.758 52.2002 135.042 51.986 135.271C51.1843 136.131 48.486 136.006 47.3163 136.051L45.1651 135.879C44.3397 135.736 42.6873 135.488 42.2244 134.73C41.9123 134.219 42.0267 133.658 42.1581 133.117C42.4458 132.743 42.7105 132.489 43.1211 132.247C43.9558 131.754 43.9035 132.073 44.7786 132.268C45.4824 132.425 45.9896 132.192 46.5691 131.812L46.6355 131.767Z" fill="white"/>
<path d="M208 130.402L209.252 130.493C209.346 130.56 209.422 130.629 209.494 130.721C210.401 131.886 210.279 132.839 210.085 134.241C207.584 134.845 204.799 134.958 202.235 134.998C201.59 134.995 200.905 135.059 200.371 134.669C200.275 134.392 200.206 134.181 200.268 133.885C200.295 133.763 200.326 133.665 200.324 133.539C200.319 133.182 200.548 132.893 200.757 132.62C202.034 130.953 203.454 130.95 205.375 130.694C206.043 130.605 206.618 131.06 207.306 131.091C207.682 130.931 207.804 130.756 208 130.402Z" fill="white"/>
<path d="M28.1686 132.729H28.6323C28.6941 133.087 28.7542 133.312 28.9846 133.597C30.0536 134.009 31.2839 133.064 32.2912 133.026C33.6287 132.977 35.5748 133.315 36.5749 134.266C36.9504 134.623 37.2119 135.117 37.2306 135.639C36.9013 136.448 36.4414 136.647 35.6931 136.987C34.3431 137.293 32.906 137.301 31.5288 137.301C30.2133 137.302 28.7654 137.294 27.4875 136.965C26.9849 136.835 26.5632 136.682 26.2871 136.221C26.29 135.066 26.4189 134.249 26.8664 133.176C27.2841 132.955 27.7151 132.848 28.1686 132.729Z" fill="white"/>
<path d="M12.2018 113.448C12.7125 113.402 13.1863 113.393 13.6941 113.48C14.5887 113.634 15.3299 113.867 15.854 114.625C15.8006 114.998 15.6161 115.334 15.3261 115.579C15.222 115.666 14.6119 116.114 14.503 116.112C13.4587 116.087 13.1232 114.427 12.0551 114.327C10.9323 115.806 10.9691 118.391 10.8561 120.175C11.0689 120.421 11.6535 120.663 11.9678 120.749C12.7405 120.96 13.4089 121.21 14.1306 121.565L14.503 121.831C14.4908 121.941 14.4841 122.026 14.4301 122.125C14.2054 122.538 13.8073 122.955 13.3435 123.072C12.4016 123.31 11.1747 122.761 10.3802 122.299C9.20783 121.617 7.70818 119.868 7.38077 118.545C7.02965 117.125 7.327 115.874 8.04917 114.628C9.22174 113.858 10.8336 113.572 12.2018 113.448Z" fill="white"/>
<path d="M227.445 108.043C227.787 108.133 228.207 108.038 228.56 108.018C229.534 107.963 230.605 108.162 231.327 108.879C232.084 109.631 232.363 111.278 232.378 112.297C232.406 114.078 231.892 115.51 230.65 116.786C229.978 117.477 229.037 118.012 228.046 117.985C227.505 117.97 227.161 117.88 226.799 117.47C226.735 117.054 226.706 116.8 226.864 116.396L226.902 116.306C227.515 115.569 228.542 115.347 229.039 114.537C229.077 114.357 229.104 114.159 229.051 113.978C228.9 113.46 228.59 112.983 228.42 112.468C228.219 111.861 228.178 111.034 227.878 110.488C227.745 110.248 227.651 110.263 227.403 110.2C226.96 110.427 226.794 110.832 226.575 111.254C225.643 111.422 224.858 111.535 223.925 111.319C223.549 111.018 223.478 110.93 223.291 110.486C223.327 110.146 223.392 109.861 223.593 109.577C224.353 108.511 226.239 108.248 227.445 108.043Z" fill="white"/>
<path d="M19.9051 72.2314C20.4991 72.8766 21.044 73.7032 21.4401 74.4851L21.3979 77.7034C21.3998 80.3905 21.6887 83.0305 21.913 85.7007L23.1548 97.8706L23.7909 102.119C23.8832 102.616 24.5622 105.301 24.4727 105.634C24.4437 105.742 24.3537 105.824 24.2941 105.919L22.9413 106.006L22.8731 105.947C22.6386 105.671 22.5886 104.958 22.5162 104.592C22.1669 102.828 21.9556 101.064 21.754 99.2785L20.206 82.8812C19.97 79.3504 19.7412 75.7687 19.9051 72.2314Z" fill="white"/>
<path d="M214.357 71.6744L214.726 88.7935L214.319 98.9387L214.01 103.05C213.938 103.871 213.924 104.736 213.682 105.528L213.115 105.667L212.949 105.96L212.394 105.892C212.066 105.453 212.476 103.482 212.522 102.889C213.27 93.214 213.33 83.344 212.576 73.6708L214.357 71.6744Z" fill="white"/>
<path d="M137.782 12.8221C138.456 12.8 139.25 12.9157 139.832 13.2774C141.509 14.3193 142.054 16.3694 142.468 18.1609C141.996 18.7758 141.078 19.3472 140.45 19.8153L135.498 23.4131L133.382 24.9915L134.623 20.7884C134.002 20.1212 133.2 18.9864 133.021 18.0905C132.817 17.0742 133.03 16.149 133.619 15.3062C134.639 13.8476 136.08 13.1051 137.782 12.8221Z" fill="white"/>
<path d="M191.611 116.49L202.896 117.299C202.914 121.592 203.907 125.819 205.814 129.657C204.399 129.639 203.074 129.894 201.721 130.29C200.109 131.164 199.266 131.622 198.881 133.518C198.831 133.768 198.83 133.964 198.637 134.152C198.366 134.129 198.106 134.142 197.888 133.958L197.905 132.855C197.904 131.851 197.593 130.405 196.833 129.693C196.136 129.04 194.848 129.264 193.946 129.275C193.336 128.469 193.097 127.168 192.867 126.185C192.106 122.939 191.72 119.817 191.611 116.49Z" fill="white"/>
<path d="M45.1686 115.918L45.5335 115.927C45.7989 116.377 45.7699 117.066 45.7989 117.583C46.0112 121.38 45.2277 125.322 44.2618 128.975C44.1866 129.259 44.046 130.173 43.883 130.376C43.82 130.455 43.002 130.666 42.8463 130.733C42.3875 130.93 41.8347 131.31 41.5119 131.695C40.6202 132.758 40.6786 133.924 40.8033 135.223C40.4211 135.27 39.062 135.403 38.732 135.26C38.6758 135.235 38.2546 134.117 38.1603 133.958C37.7154 133.207 36.8355 132.719 36.0771 132.357C35.3333 132.111 34.5625 131.92 33.7837 131.824C33.2951 131.764 32.7432 131.815 32.2773 131.669C33.7624 128.028 34.2027 124.586 34.2827 120.687C34.2992 119.887 34.4071 118.975 34.3241 118.188C34.3021 117.98 34.3162 117.807 34.3408 117.599C35.626 117.195 37.2009 117.137 38.5415 116.94L45.1686 115.918Z" fill="white"/>
<path d="M131.219 22.1518C131.552 22.1284 131.728 22.062 132.019 22.2376L130.49 29.5142L141.491 22.7489C142.475 22.8127 144.368 22.7574 145.099 23.4752C145.913 24.2746 145.876 25.8207 145.947 26.8865L146.167 30.6432L106.477 33.1938L84.4067 34.3515L84.201 29.7468C84.1699 28.9169 84.0609 27.9922 84.1883 27.1724C84.2706 26.6438 84.3725 26.0682 84.6983 25.6288C84.9354 25.309 85.3363 24.8395 85.7455 24.7783C87.8567 24.4623 89.989 24.4023 92.121 24.3033L101.784 23.8855L131.219 22.1518Z" fill="white"/>
<path d="M98.3632 27.333C98.5752 27.3209 98.8175 27.3242 99.019 27.3982C99.3066 27.5037 99.6376 27.7884 99.7592 28.0746C99.8919 28.3871 99.9278 28.9839 99.8013 29.2987C99.6228 29.743 99.3124 29.9338 98.8902 30.1086C98.6607 30.1356 98.4635 30.1325 98.2414 30.0579C97.9044 29.9445 97.4931 29.6945 97.362 29.3449C97.2559 29.0613 97.1968 28.4083 97.3388 28.1348C97.5713 27.6869 97.8985 27.4799 98.3632 27.333Z" fill="#3D83AB"/>
<path d="M88.0441 27.9796C88.254 27.924 88.4955 27.8897 88.7125 27.8962C89.0701 27.9069 89.4757 28.2151 89.6817 28.497C89.8806 28.769 89.9637 29.1898 89.9182 29.5209C89.8488 30.0243 89.4752 30.2943 89.0938 30.5661C88.8344 30.6582 88.5347 30.6789 88.2616 30.6473C87.9017 30.6056 87.6455 30.4037 87.4332 30.1186C87.1761 29.773 87.101 29.3905 87.1929 28.9697C87.3042 28.4599 87.6193 28.2329 88.0441 27.9796Z" fill="#3D83AB"/>
<path d="M93.3059 27.5916C93.5143 27.5976 93.7593 27.6504 93.942 27.7538C94.2789 27.9445 94.5359 28.3665 94.6393 28.7309C94.7353 29.0693 94.7229 29.4863 94.5299 29.7902C94.2722 30.1956 93.9183 30.3525 93.4798 30.482C93.2501 30.4811 92.9862 30.4478 92.7794 30.3403C92.4054 30.1458 92.0988 29.7457 91.9961 29.3375C91.9009 28.9593 91.9853 28.5649 92.188 28.2375C92.4517 27.8114 92.8454 27.7009 93.3059 27.5916Z" fill="#3D83AB"/>
<path d="M191.785 67.8047L195.872 67.8619L202.032 68.1994C203.315 68.292 204.732 68.3136 205.95 68.7592C206.591 68.9936 207.156 69.3772 207.611 69.8857C208.218 70.5622 208.754 71.6497 209.006 72.5262C209.851 75.4362 209.91 78.6391 210.054 81.6478L210.164 97.0753L209.549 103.952C209.431 105.085 209.408 106.459 209.058 107.543C208.917 107.98 208.733 108.328 208.388 108.633C206.88 109.965 194.949 109.679 192.426 109.553L184.742 109.057C181.593 108.76 178.321 108.35 175.299 107.378C175.049 106.475 174.975 105.486 174.858 104.556L174.329 99.1065C173.855 93.2909 173.491 87.5241 173.614 81.684C173.704 77.3792 173.982 73.1266 175.148 68.9614C180.571 68.0197 186.292 67.915 191.785 67.8047Z" fill="white"/>
<path d="M58.0598 65.612L58.2757 65.6504C58.3767 65.7744 58.4629 65.9011 58.5387 66.0424C59.0898 67.0695 59.3964 68.3691 59.7099 69.4927C61.2262 74.9273 61.9322 80.6359 62.3761 86.2533C62.6743 90.0297 62.903 93.7448 62.8561 97.5368C62.8279 99.8112 62.8914 102.222 62.1968 104.405C59.1763 105.74 55.8675 106.547 52.6468 107.235L46.1959 108.285C42.1891 108.867 38.1354 109.333 34.0903 109.531C32.6051 109.603 30.8157 109.841 29.3715 109.439C28.9086 109.198 28.5526 108.949 28.3302 108.452C27.727 107.107 27.5927 105.484 27.3617 104.04L26.4079 97.7626C25.5411 91.3783 24.651 85.1059 24.4443 78.6514C24.3794 76.6209 24.183 73.8284 24.9619 71.9332C25.4022 70.8621 26.5543 69.8254 27.58 69.332C29.0022 68.648 30.8069 68.4365 32.3425 68.1174C37.6927 67.0059 43.0082 65.9988 48.4924 65.8233L53.46 65.7735L56.3456 65.8114C56.8903 65.8157 57.4675 65.885 57.9742 65.6552L58.0598 65.612Z" fill="white"/>
<path d="M46.0568 95.8446C46.3641 95.8276 46.6632 95.8446 46.969 95.8763C48.0338 95.9865 48.8039 96.463 49.4613 97.3053C50.0823 98.1008 50.4262 99.1558 50.2943 100.169C50.1911 100.96 49.9806 101.577 49.5465 102.254C48.8723 103.306 47.5843 103.952 46.3983 104.194C45.5973 104.244 44.7542 104.151 44.0485 103.738C43.1877 103.234 42.4534 102.103 42.2187 101.147C41.932 99.98 42.1627 98.8028 42.8239 97.8129C43.5842 96.6747 44.7535 96.0982 46.0568 95.8446Z" fill="#3D83AB"/>
<path d="M46.3634 99.3648C46.7755 99.2794 47.0658 99.2127 47.4776 99.3648C47.8942 99.7523 47.9079 99.8652 48.0196 100.399C47.8638 100.827 47.8392 100.91 47.4846 101.186C47.2335 101.272 46.9726 101.304 46.7116 101.346C46.522 101.271 46.361 101.193 46.2255 101.034C45.9965 100.766 45.8173 100.435 45.8598 100.073C45.9068 99.673 46.0683 99.6176 46.3634 99.3648Z" fill="white"/>
<path d="M44.1321 71.6784C44.839 71.6382 45.741 71.4792 46.3258 71.9416C46.6336 73.0992 46.6972 74.411 46.8013 75.6043L47.2491 84.5619L47.6754 89.7951C47.7871 90.9314 47.985 92.0781 47.9144 93.2219C47.8646 93.2869 47.7253 93.5146 47.6657 93.5453C47.1939 93.7882 46.172 93.6581 45.6172 93.7365C44.9081 93.8365 44.1761 94.0842 43.4675 94.2295L43.0405 94.2421L42.8577 94.0432C42.2882 91.3207 42.0563 88.4596 41.6386 85.7043L40.1616 76.7C39.963 75.4029 39.4959 73.6997 39.7551 72.42C40.6079 71.7396 42.9941 71.774 44.1321 71.6784Z" fill="#3D83AB"/>
<path d="M144.494 32.2567L146.29 32.1745L148.028 69.8544L148.359 76.2128C148.383 76.852 148.526 77.6772 148.38 78.2952C148.181 79.1427 147.625 79.9682 146.898 80.4447C146.474 80.7224 146.065 80.8662 145.568 80.9584C141.431 81.7264 137.119 81.9312 132.927 82.2528L107.192 83.7321L94.9714 84.2868C92.9063 84.362 90.5031 84.6707 88.4817 84.2729C88.0677 84.1501 87.614 83.9327 87.3029 83.6233C87.0487 83.3708 86.9493 83.047 86.8981 82.7024C86.6507 81.0368 86.6524 79.257 86.5464 77.5741L85.9193 66.4244L84.5186 35.888L144.494 32.2567Z" fill="white"/>
<path d="M130.467 37.8004L130.522 37.7932C132.317 37.685 135.557 37.461 136.908 38.7801C137.394 39.2545 137.766 39.8012 137.942 40.4631C138.339 41.9553 138.402 43.6764 138.527 45.2182L139.054 54.1233L139.587 71.2367C139.602 72.7425 139.767 74.2426 138.611 75.3923C138.117 75.8825 137.532 76.2283 136.87 76.4336C135.947 76.72 134.931 76.8162 133.975 76.9563L128.873 77.6055C120.842 78.4385 112.729 78.9505 104.655 78.9777C102.834 79.0089 99.9352 79.2223 98.4603 77.9963C98.0863 77.6855 97.8122 77.2943 97.6227 76.847C97.0101 75.4002 96.833 73.52 96.6307 71.9619L95.8812 65.5263C95.1994 58.3993 94.8527 51.0336 95.2154 43.8862C95.2659 42.8908 95.0886 41.1022 95.7723 40.338C96.1158 39.9537 96.57 39.7205 97.0732 39.636C98.1061 39.4624 99.2646 39.5033 100.32 39.4352L107.423 38.9656L130.467 37.8004Z" fill="#3D83AB"/>
<path d="M130.169 39.498C131.67 39.4114 134.742 38.9617 135.932 39.9731C136.698 40.6238 137.066 48.1007 137.16 49.5629L137.854 66.6292C137.905 68.7268 138.198 71.0488 137.969 73.1256C137.924 73.531 137.712 74.0037 137.427 74.2918C136.315 75.4135 132.614 75.4457 131.061 75.6253C122.276 76.641 113.379 77.1073 104.539 77.2583C103.211 77.242 101.398 77.4332 100.134 77.0923C99.5881 76.9455 99.2306 76.6136 98.9642 76.1225C98.5451 75.35 98.486 74.2542 98.34 73.3838C97.7982 70.1566 97.5676 66.8733 97.3581 63.6094L96.8944 47.0369C96.8965 45.3708 96.6385 43.1382 97.086 41.5638C97.1763 41.4897 97.334 41.319 97.4343 41.2782C97.6228 41.2015 98.1051 41.2518 98.3303 41.2539L100.604 41.226L130.169 39.498Z" fill="white"/>
<path d="M127.303 60.9647L127.667 60.9321C128.643 60.8613 130.889 60.6441 131.615 61.2854C131.776 61.7301 131.75 61.9914 131.667 62.4436C131.41 62.6937 131.31 62.8006 130.944 62.8694C130.254 62.999 129.451 62.9622 128.744 63.0106L123.708 63.3367L107.618 64.3347C106.747 64.3755 104.656 64.715 103.934 64.3435C103.682 64.214 103.545 64.0125 103.477 63.7368C103.366 63.2857 103.488 62.9323 103.722 62.5633C104.244 62.2624 104.964 62.3171 105.552 62.2636L109.519 61.9478L127.303 60.9647Z" fill="#3D83AB"/>
<path d="M129.103 70.2565L131.099 70.1952C131.351 70.3574 131.539 70.4601 131.617 70.7797C131.685 71.0585 131.676 71.4943 131.499 71.734C131.277 72.0328 130.929 72.2091 130.575 72.2893C129.727 72.4815 128.808 72.4832 127.942 72.5594L122.865 72.993L106.974 74.326C106.286 74.3607 104.992 74.5875 104.4 74.1752C104.09 73.8184 104.046 73.5663 103.986 73.1126C104.031 72.9235 104.062 72.8232 104.195 72.6744C104.449 72.3891 104.533 72.347 104.902 72.2652C105.902 72.043 107.022 72.019 108.045 71.9433L112.602 71.5739L129.103 70.2565Z" fill="#3D83AB"/>
<path d="M127.616 65.4907L131.228 65.4304C131.658 65.7521 131.711 65.9058 131.906 66.3878C131.881 66.6288 131.853 66.8426 131.691 67.0339C131.444 67.3263 131.117 67.408 130.755 67.4709C128.332 67.8917 125.737 67.8691 123.281 68.0527L108.134 69.1562L104.494 69.2803C104.248 69.1196 104.004 68.9434 103.892 68.659C103.746 68.2891 103.827 67.8391 104.002 67.5088C104.705 66.8939 109.514 66.7869 110.815 66.6838L127.616 65.4907Z" fill="#3D83AB"/>
<path d="M108.748 43.8948C110.098 43.7693 112.431 43.4428 113.517 44.4033C113.843 44.6911 114.137 45.1591 114.161 45.6007C114.178 45.9062 114.163 46.3201 114.027 46.598C113.672 47.3251 112.93 48.0219 112.374 48.6104L110.443 50.7823L113.336 53.5887C113.721 53.9826 114.225 54.41 114.523 54.8658C114.662 55.0788 114.689 55.3226 114.705 55.5715L114.712 55.7189L114.72 55.8294C114.734 56.1214 114.612 56.4448 114.406 56.6526C113.499 57.5698 105.461 57.6179 103.708 57.6857C102.803 57.7205 101.642 57.9208 100.759 57.8003C100.374 57.7479 100.291 57.6224 100.074 57.3355C99.9958 56.9947 100.054 56.737 100.192 56.4202C100.529 55.6477 103.129 52.5041 103.83 52.2677C104.09 52.1802 104.285 52.0364 104.512 51.8835L104.621 51.9687L104.333 52.4198L101.639 56.3173L113.161 55.4314L109.513 51.7363C108.968 52.1948 108.174 53.0171 107.458 53.1217C107.148 53.1671 106.932 53.1554 106.674 52.9845C105.629 52.291 104.957 51.3476 104.098 50.4703C103.09 49.4396 100.658 47.649 100.436 46.2334C100.371 45.815 100.415 45.5135 100.693 45.1793C101.643 44.0379 103.677 44.1732 105.022 44.102L108.748 43.8948Z" fill="#3D83AB"/>
<path d="M102.557 44.4995C103.193 44.3813 103.991 44.454 104.651 44.4442L109.608 44.5485C110.582 44.5909 111.829 44.4969 112.668 45.046C112.835 45.1553 113.046 45.5342 113.054 45.7336C113.091 46.5811 110.184 48.8131 109.514 49.4075C108.979 48.8647 108.526 48.3216 107.759 48.1308L107.65 48.1057L107.325 48.1424C106.861 48.233 106.584 48.4897 106.332 48.8719C106.335 49.1863 106.304 49.2717 106.491 49.5339C106.639 49.3434 106.71 49.246 106.942 49.1551C107.521 49.3723 107.948 49.9173 108.368 50.3574C107.766 50.6816 107.182 50.961 106.538 51.192L103.815 48.5849C102.791 47.6287 101.383 46.6554 101.029 45.2439L101.23 44.9396C101.67 44.6654 102.055 44.5886 102.557 44.4995Z" fill="white"/>
<path d="M129.746 45.0382C130.582 44.9194 131.647 44.9019 132.337 45.4409C132.942 45.9131 133.022 46.5976 133.091 47.3075C133.274 49.1903 133.315 51.1431 133.345 53.035C133.356 53.7128 133.463 54.6204 133.329 55.2757C133.263 55.6015 133.087 55.8971 132.874 56.149C132.648 56.4174 132.355 56.6198 132.012 56.7035C130.961 56.9597 129.668 56.9266 128.585 56.9904L122.249 57.4027C121.328 57.4153 120.041 57.6322 119.28 57.0325C118.907 56.7391 118.693 56.2981 118.636 55.8308C118.435 54.1729 118.403 52.4411 118.327 50.7718C118.279 49.7261 118.131 48.4533 118.296 47.4195C118.35 47.0799 118.484 46.7336 118.712 46.4725C119.018 46.1229 119.476 45.96 119.918 45.8707C121.111 45.6302 122.437 45.6707 123.654 45.5854L129.746 45.0382Z" fill="#3D83AB"/>
<path d="M189.199 96.8445C188.896 96.8277 188.602 96.8445 188.301 96.8757C187.253 96.9842 186.495 97.4532 185.848 98.2822C185.236 99.0653 184.898 100.104 185.028 101.101C185.129 101.88 185.337 102.487 185.764 103.154C186.428 104.189 187.695 104.824 188.863 105.063C189.651 105.112 190.481 105.021 191.175 104.614C192.023 104.118 192.746 103.005 192.977 102.064C193.259 100.915 193.032 99.7562 192.381 98.7819C191.633 97.6615 190.482 97.0941 189.199 96.8445Z" fill="#3D83AB"/>
<path d="M191.093 73.058C190.397 73.0185 189.51 72.8621 188.934 73.3171C188.631 74.4565 188.568 75.7478 188.466 76.9223L188.025 85.7392L187.605 90.8901C187.496 92.0086 187.301 93.1373 187.37 94.2631C187.419 94.327 187.556 94.5512 187.615 94.5814C188.079 94.8205 189.085 94.6924 189.631 94.7696C190.329 94.868 191.05 95.1118 191.747 95.2548L192.168 95.2672L192.348 95.0714C192.908 92.3917 193.136 89.5756 193.548 86.8636L195.001 78.0007C195.197 76.7241 195.656 75.0477 195.401 73.788C194.562 73.1183 192.213 73.1522 191.093 73.058Z" fill="#3D83AB"/>
<path d="M188.897 100.309C188.491 100.225 188.205 100.16 187.8 100.309C187.39 100.691 187.376 100.802 187.266 101.328C187.42 101.749 187.444 101.831 187.793 102.102C188.04 102.186 188.297 102.218 188.554 102.259C188.74 102.186 188.899 102.108 189.032 101.952C189.258 101.688 189.434 101.363 189.392 101.007C189.346 100.613 189.187 100.558 188.897 100.309Z" fill="white"/>
</svg>
