<svg width="89" height="40" viewBox="0 0 89 40" fill="none" xmlns="http://www.w3.org/2000/svg">
<path d="M25.9732 8.4364C26.5249 8.4364 27.0643 8.27279 27.523 7.96627C27.9818 7.65974 28.3393 7.22406 28.5505 6.71433C28.7616 6.20459 28.8169 5.64369 28.7092 5.10256C28.6016 4.56143 28.3359 4.06437 27.9458 3.67424C27.5556 3.2841 27.0586 3.01842 26.5174 2.91078C25.9763 2.80314 25.4154 2.85839 24.9057 3.06953C24.3959 3.28066 23.9603 3.63822 23.6537 4.09696C23.3472 4.55571 23.1836 5.09506 23.1836 5.64679C23.1836 6.38664 23.4775 7.09619 24.0007 7.61934C24.5238 8.1425 25.2334 8.4364 25.9732 8.4364Z" fill="#7DD6F7"/>
<path d="M19.3818 26.315C17.5262 26.315 15.7123 25.7648 14.1694 24.7338C12.6266 23.7029 11.4241 22.2376 10.714 20.5232C10.004 18.8089 9.81826 16.9224 10.1804 15.1025C10.5424 13.2826 11.4361 11.6109 12.7483 10.2989C14.0605 8.98685 15.7322 8.0934 17.5522 7.73153C19.3722 7.36966 21.2586 7.55561 22.9729 8.26586C24.6871 8.97612 26.1523 10.1788 27.1831 11.7218C28.2138 13.2647 28.7639 15.0787 28.7636 16.9343C28.7607 19.4215 27.7713 21.806 26.0124 23.5646C24.2536 25.3232 21.869 26.3124 19.3818 26.315ZM19.3818 12.013C18.4085 12.013 17.457 12.3016 16.6477 12.8424C15.8384 13.3831 15.2076 14.1518 14.8351 15.051C14.4626 15.9503 14.3652 16.9398 14.555 17.8944C14.7449 18.8491 15.2137 19.726 15.9019 20.4142C16.5902 21.1025 17.4671 21.5712 18.4217 21.7611C19.3764 21.951 20.3659 21.8535 21.2651 21.481C22.1644 21.1086 22.933 20.4778 23.4738 19.6685C24.0145 18.8592 24.3032 17.9077 24.3032 16.9343C24.3017 15.6296 23.7827 14.3787 22.8601 13.456C21.9375 12.5334 20.6866 12.0145 19.3818 12.013Z" fill="#3C84AC"/>
<path d="M20.8696 37.1428C18.8423 37.1431 16.8978 36.3387 15.4632 34.9062C14.0287 33.4737 13.2214 31.5304 13.2188 29.5031H17.6815C17.6812 30.1339 17.8681 30.7506 18.2184 31.2752C18.5687 31.7999 19.0667 32.2088 19.6495 32.4504C20.2322 32.6919 20.8735 32.7552 21.4922 32.6323C22.1109 32.5094 22.6793 32.2057 23.1254 31.7597C23.5716 31.3138 23.8754 30.7455 23.9986 30.1268C24.1217 29.5081 24.0586 28.8668 23.8173 28.284C23.5759 27.7012 23.1672 27.203 22.6427 26.8525C22.1182 26.502 21.5015 26.315 20.8707 26.315H19.3824V21.8545H20.8696C22.8969 21.8545 24.8413 22.6599 26.2748 24.0934C27.7084 25.527 28.5137 27.4713 28.5137 29.4986C28.5137 31.526 27.7084 33.4703 26.2748 34.9039C24.8413 36.3374 22.8969 37.1428 20.8696 37.1428Z" fill="#1DBED0"/>
<path d="M20.87 21.8545H19.3828V26.315C21.7966 26.3159 24.1173 25.3833 25.8592 23.7124C24.4738 22.5131 22.7024 21.8534 20.87 21.8545Z" fill="#7DD6F7"/>
<path d="M57.4659 17H55.7045C55.6004 16.4934 55.4181 16.0483 55.1577 15.6648C54.902 15.2812 54.5895 14.9593 54.2202 14.6989C53.8556 14.4337 53.4508 14.2348 53.0057 14.1023C52.5606 13.9697 52.0966 13.9034 51.6136 13.9034C50.733 13.9034 49.9351 14.1259 49.2202 14.571C48.5099 15.0161 47.9441 15.6719 47.5227 16.5384C47.1061 17.4048 46.8977 18.4678 46.8977 19.7273C46.8977 20.9867 47.1061 22.0497 47.5227 22.9162C47.9441 23.7827 48.5099 24.4384 49.2202 24.8835C49.9351 25.3286 50.733 25.5511 51.6136 25.5511C52.0966 25.5511 52.5606 25.4848 53.0057 25.3523C53.4508 25.2197 53.8556 25.0232 54.2202 24.7628C54.5895 24.4976 54.902 24.1733 55.1577 23.7898C55.4181 23.4015 55.6004 22.9564 55.7045 22.4545H57.4659C57.3333 23.1979 57.0919 23.8632 56.7415 24.4503C56.3911 25.0374 55.9555 25.5369 55.4347 25.9489C54.9138 26.3561 54.3291 26.6662 53.6804 26.8793C53.0365 27.0923 52.3475 27.1989 51.6136 27.1989C50.3731 27.1989 49.2699 26.8958 48.304 26.2898C47.3381 25.6837 46.5781 24.822 46.0241 23.7045C45.4702 22.5871 45.1932 21.2614 45.1932 19.7273C45.1932 18.1932 45.4702 16.8674 46.0241 15.75C46.5781 14.6326 47.3381 13.7708 48.304 13.1648C49.2699 12.5587 50.3731 12.2557 51.6136 12.2557C52.3475 12.2557 53.0365 12.3622 53.6804 12.5753C54.3291 12.7884 54.9138 13.1009 55.4347 13.5128C55.9555 13.92 56.3911 14.4171 56.7415 15.0043C57.0919 15.5866 57.3333 16.2519 57.4659 17ZM61.761 20.4375V27H60.0849V12.4545H61.761V17.7955H61.9031C62.1587 17.232 62.5423 16.7846 63.0536 16.4531C63.5697 16.117 64.2563 15.9489 65.1133 15.9489C65.8567 15.9489 66.5077 16.098 67.0664 16.3963C67.6251 16.6899 68.0584 17.142 68.3661 17.7528C68.6786 18.3589 68.8349 19.1307 68.8349 20.0682V27H67.1587V20.1818C67.1587 19.3153 66.9338 18.6454 66.484 18.1719C66.0389 17.6937 65.421 17.4545 64.6303 17.4545C64.0811 17.4545 63.5887 17.5705 63.1531 17.8026C62.7222 18.0346 62.3813 18.3731 62.1303 18.8182C61.8841 19.2633 61.761 19.803 61.761 20.4375ZM75.1115 27.2557C74.4202 27.2557 73.7929 27.1255 73.2294 26.8651C72.666 26.5999 72.2185 26.2188 71.8871 25.7216C71.5556 25.2197 71.3899 24.6136 71.3899 23.9034C71.3899 23.2784 71.513 22.7718 71.7592 22.3835C72.0054 21.9905 72.3345 21.6828 72.7464 21.4602C73.1584 21.2377 73.6129 21.072 74.1101 20.9631C74.612 20.8494 75.1162 20.7595 75.6229 20.6932C76.2857 20.608 76.8232 20.544 77.2351 20.5014C77.6518 20.4541 77.9548 20.3759 78.1442 20.267C78.3383 20.1581 78.4354 19.9687 78.4354 19.6989V19.642C78.4354 18.9413 78.2436 18.3968 77.8601 18.0085C77.4813 17.6203 76.906 17.4261 76.1342 17.4261C75.334 17.4261 74.7067 17.6013 74.2521 17.9517C73.7976 18.3021 73.478 18.6761 73.2933 19.0739L71.7024 18.5057C71.9865 17.8428 72.3653 17.3267 72.8388 16.9574C73.317 16.5833 73.8378 16.3229 74.4013 16.1761C74.9695 16.0246 75.5282 15.9489 76.0774 15.9489C76.4278 15.9489 76.8303 15.9915 77.2848 16.0767C77.7441 16.1572 78.1868 16.3253 78.6129 16.581C79.0438 16.8366 79.4013 17.2225 79.6854 17.7386C79.9695 18.2547 80.1115 18.946 80.1115 19.8125V27H78.4354V25.5227H78.3501C78.2365 25.7595 78.0471 26.0128 77.782 26.2827C77.5168 26.5526 77.1641 26.7822 76.7237 26.9716C76.2834 27.161 75.746 27.2557 75.1115 27.2557ZM75.3672 25.75C76.0301 25.75 76.5888 25.6198 77.0433 25.3594C77.5026 25.099 77.8482 24.7628 78.0803 24.3509C78.317 23.9389 78.4354 23.5057 78.4354 23.0511V21.517C78.3643 21.6023 78.2081 21.6804 77.9666 21.7514C77.7299 21.8177 77.4553 21.8769 77.1428 21.929C76.835 21.9763 76.5343 22.0189 76.2408 22.0568C75.9519 22.09 75.7176 22.1184 75.5376 22.142C75.102 22.1989 74.6948 22.2912 74.3161 22.419C73.942 22.5421 73.639 22.7292 73.407 22.9801C73.1797 23.2263 73.0661 23.5625 73.0661 23.9886C73.0661 24.571 73.2815 25.0114 73.7124 25.3097C74.148 25.6032 74.6996 25.75 75.3672 25.75ZM87.9151 16.0909V17.5114H82.2617V16.0909H87.9151ZM83.9094 13.4773H85.5856V23.875C85.5856 24.3485 85.6542 24.7036 85.7915 24.9403C85.9336 25.1723 86.1135 25.3286 86.3313 25.4091C86.5539 25.4848 86.7882 25.5227 87.0344 25.5227C87.2191 25.5227 87.3706 25.5133 87.489 25.4943C87.6074 25.4706 87.7021 25.4517 87.7731 25.4375L88.114 26.9432C88.0004 26.9858 87.8417 27.0284 87.6381 27.071C87.4345 27.1184 87.1765 27.142 86.864 27.142C86.3905 27.142 85.9265 27.0402 85.4719 26.8366C85.0221 26.633 84.6481 26.3229 84.3498 25.9062C84.0562 25.4896 83.9094 24.964 83.9094 24.3295V13.4773Z" fill="#475058"/>
</svg>
