<svg width="20" height="20" viewBox="0 0 20 20" fill="none" xmlns="http://www.w3.org/2000/svg">
<path d="M17.5003 13.25C17.9145 13.25 18.2503 12.9142 18.2503 12.5C18.2503 12.0858 17.9145 11.75 17.5003 11.75V13.25ZM2.50033 11.75C2.08611 11.75 1.75033 12.0858 1.75033 12.5C1.75033 12.9142 2.08611 13.25 2.50033 13.25V11.75ZM17.5003 8.25002C17.9145 8.25002 18.2503 7.91423 18.2503 7.50002C18.2503 7.08581 17.9145 6.75002 17.5003 6.75002V8.25002ZM2.50033 6.75002C2.08611 6.75002 1.75033 7.08581 1.75033 7.50002C1.75033 7.91423 2.08611 8.25002 2.50033 8.25002V6.75002ZM17.5837 10C17.5837 14.1882 14.1885 17.5834 10.0003 17.5834V19.0834C15.0169 19.0834 19.0837 15.0166 19.0837 10H17.5837ZM10.0003 17.5834C5.81217 17.5834 2.41699 14.1882 2.41699 10H0.916992C0.916992 15.0166 4.98374 19.0834 10.0003 19.0834V17.5834ZM2.41699 10C2.41699 5.81186 5.81217 2.41669 10.0003 2.41669V0.916687C4.98374 0.916687 0.916992 4.98343 0.916992 10H2.41699ZM10.0003 2.41669C14.1885 2.41669 17.5837 5.81186 17.5837 10H19.0837C19.0837 4.98343 15.0169 0.916687 10.0003 0.916687V2.41669ZM5.91699 10C5.91699 12.6679 6.80583 14.8797 7.68248 16.4138C8.12169 17.1824 8.56148 17.7875 8.89384 18.2029C9.06021 18.4109 9.2002 18.572 9.30052 18.6831C9.3507 18.7386 9.39101 18.7817 9.41979 18.8119C9.43418 18.8271 9.4457 18.839 9.45413 18.8476C9.45835 18.8519 9.4618 18.8554 9.46445 18.8581C9.46578 18.8594 9.4669 18.8606 9.46783 18.8615C9.46829 18.862 9.4687 18.8624 9.46907 18.8628C9.46925 18.8629 9.46948 18.8632 9.46957 18.8633C9.46979 18.8635 9.47 18.8637 10.0003 18.3334C10.5307 17.803 10.5308 17.8032 10.531 17.8034C10.531 17.8034 10.5312 17.8036 10.5313 17.8037C10.5314 17.8038 10.5315 17.8039 10.5316 17.804C10.5317 17.8041 10.5316 17.804 10.5314 17.8037C10.5308 17.8032 10.5295 17.8018 10.5274 17.7997C10.5232 17.7954 10.516 17.788 10.506 17.7775C10.4859 17.7564 10.4546 17.723 10.4137 17.6776C10.3317 17.5869 10.2113 17.4485 10.0651 17.2659C9.77251 16.9001 9.37896 16.3593 8.98484 15.6696C8.19482 14.2871 7.41699 12.3322 7.41699 10H5.91699ZM10.0003 18.3334C10.5307 18.8637 10.5309 18.8635 10.5311 18.8633C10.5312 18.8632 10.5314 18.8629 10.5316 18.8628C10.5319 18.8624 10.5324 18.862 10.5328 18.8615C10.5337 18.8606 10.5349 18.8594 10.5362 18.8581C10.5389 18.8554 10.5423 18.8519 10.5465 18.8476C10.555 18.839 10.5665 18.8271 10.5809 18.8119C10.6096 18.7817 10.65 18.7386 10.7001 18.6831C10.8005 18.572 10.9404 18.4109 11.1068 18.2029C11.4392 17.7875 11.879 17.1824 12.3182 16.4138C13.1948 14.8797 14.0837 12.6679 14.0837 10H12.5837C12.5837 12.3322 11.8058 14.2871 11.0158 15.6696C10.6217 16.3593 10.2281 16.9001 9.93551 17.2659C9.78937 17.4485 9.66895 17.5869 9.58698 17.6776C9.54601 17.723 9.5147 17.7564 9.49466 17.7775C9.48464 17.788 9.47744 17.7954 9.47326 17.7997C9.47117 17.8018 9.46984 17.8032 9.46928 17.8037C9.46901 17.804 9.46893 17.8041 9.46904 17.804C9.4691 17.8039 9.46921 17.8038 9.46937 17.8037C9.46945 17.8036 9.46961 17.8034 9.46965 17.8034C9.46981 17.8032 9.47 17.803 10.0003 18.3334ZM14.0837 10C14.0837 7.33219 13.1948 5.12038 12.3182 3.58625C11.879 2.81762 11.4392 2.21258 11.1068 1.79712C10.9404 1.58917 10.8005 1.42803 10.7001 1.31697C10.65 1.26141 10.6096 1.21832 10.5809 1.1881C10.5665 1.17299 10.555 1.16109 10.5465 1.15245C10.5423 1.14813 10.5389 1.14462 10.5362 1.14194C10.5349 1.1406 10.5337 1.13946 10.5328 1.13853C10.5324 1.13806 10.5319 1.13765 10.5316 1.13729C10.5314 1.13711 10.5312 1.13687 10.5311 1.13678C10.5309 1.13656 10.5307 1.13636 10.0003 1.66669C9.47 2.19702 9.46981 2.19684 9.46965 2.19667C9.46961 2.19663 9.46945 2.19647 9.46937 2.19639C9.46921 2.19623 9.4691 2.19612 9.46904 2.19606C9.46893 2.19594 9.46901 2.19603 9.46928 2.1963C9.46984 2.19686 9.47117 2.19822 9.47326 2.20036C9.47744 2.20464 9.48464 2.21206 9.49466 2.22258C9.5147 2.24363 9.54601 2.27704 9.58698 2.3224C9.66895 2.41315 9.78937 2.5515 9.93551 2.73417C10.2281 3.09996 10.6217 3.64075 11.0158 4.33046C11.8058 5.71299 12.5837 7.66785 12.5837 10H14.0837ZM10.0003 1.66669C9.47 1.13636 9.46979 1.13656 9.46957 1.13678C9.46948 1.13687 9.46925 1.13711 9.46907 1.13729C9.4687 1.13765 9.46829 1.13806 9.46783 1.13853C9.4669 1.13946 9.46578 1.1406 9.46445 1.14194C9.4618 1.14462 9.45835 1.14813 9.45413 1.15245C9.4457 1.16109 9.43418 1.17299 9.41979 1.1881C9.39101 1.21832 9.3507 1.26141 9.30052 1.31697C9.2002 1.42803 9.06021 1.58917 8.89384 1.79712C8.56148 2.21258 8.12169 2.81762 7.68248 3.58625C6.80583 5.12038 5.91699 7.33219 5.91699 10H7.41699C7.41699 7.66785 8.19482 5.71299 8.98484 4.33046C9.37896 3.64075 9.77251 3.09996 10.0651 2.73417C10.2113 2.5515 10.3317 2.41315 10.4137 2.3224C10.4546 2.27704 10.4859 2.24363 10.506 2.22258C10.516 2.21206 10.5232 2.20464 10.5274 2.20036C10.5295 2.19822 10.5308 2.19686 10.5314 2.1963C10.5316 2.19603 10.5317 2.19594 10.5316 2.19606C10.5315 2.19612 10.5314 2.19623 10.5313 2.19639C10.5312 2.19647 10.531 2.19663 10.531 2.19667C10.5308 2.19684 10.5307 2.19702 10.0003 1.66669ZM17.5003 11.75H2.50033V13.25H17.5003V11.75ZM17.5003 6.75002H2.50033V8.25002H17.5003V6.75002Z" fill="#212529"/>
</svg>
