<svg width="32" height="33" viewBox="0 0 32 33" fill="none" xmlns="http://www.w3.org/2000/svg">
<g clip-path="url(#clip0_294_3185)">
<path d="M32 16.5C32 7.66344 24.8366 0.5 16 0.5C7.16344 0.5 0 7.66344 0 16.5C0 25.3366 7.16344 32.5 16 32.5C24.8366 32.5 32 25.3366 32 16.5Z" fill="#1FBED0"/>
<mask id="mask0_294_3185" style="mask-type:luminance" maskUnits="userSpaceOnUse" x="5" y="5" width="22" height="23">
<path d="M26.6673 5.83337H5.33398V27.1667H26.6673V5.83337Z" fill="white"/>
</mask>
<g mask="url(#mask0_294_3185)">
<mask id="mask1_294_3185" style="mask-type:luminance" maskUnits="userSpaceOnUse" x="5" y="5" width="22" height="23">
<path d="M26.6673 5.83337H5.33398V27.1667H26.6673V5.83337Z" fill="white"/>
</mask>
<g mask="url(#mask1_294_3185)">
<path d="M18.1801 25.8334C16.0013 25.8334 16.0013 20.6038 13.8225 20.6038C11.3148 20.6038 6.66797 21.1858 6.66797 18.6783C6.66797 16.4997 11.8969 16.4997 11.8969 14.3209C11.8969 11.8142 11.3148 7.16675 13.8225 7.16675C16.0013 7.16675 16.0013 12.3963 18.1801 12.3963C20.6878 12.3963 25.3346 11.8142 25.3346 14.3209C25.3346 16.4997 20.1048 16.4997 20.1048 18.6783C20.1048 21.1858 20.6878 25.8334 18.1801 25.8334Z" fill="white"/>
</g>
</g>
</g>
<defs>
<clipPath id="clip0_294_3185">
<rect width="32" height="32" fill="white" transform="translate(0 0.5)"/>
</clipPath>
</defs>
</svg>
