<svg xmlns="http://www.w3.org/2000/svg" viewBox="0 0 1000 308"><defs><style>.cls-1{fill:#1dbed0;}.cls-2{fill:#3c84ac;}.cls-3{fill:#7dd6f7;}</style></defs><title>Asset 1</title><g id="Layer_2" data-name="Layer 2"><g id="Layer_1-2" data-name="Layer 1"><path class="cls-1" d="M264.18,210.73a84.28,84.28,0,1,1,84.28-84.27A84.37,84.37,0,0,1,264.18,210.73Zm0-128.48a44.21,44.21,0,1,0,44.2,44.21A44.26,44.26,0,0,0,264.18,82.25Z"/><path class="cls-2" d="M444.25,210.73a84.28,84.28,0,1,1,84.27-84.27A84.36,84.36,0,0,1,444.25,210.73Zm0-128.48a44.21,44.21,0,1,0,44.2,44.21A44.26,44.26,0,0,0,444.25,82.25Z"/><path class="cls-3" d="M797.25,41.9A21,21,0,1,0,776.3,21a20.95,20.95,0,0,0,21,20.94"/><polygon class="cls-2" points="817.28 202.81 777.21 202.81 777.21 50.12 817.28 50.12 817.28 122.1 817.28 202.81"/><polygon class="cls-1" points="764.32 50.12 721.92 50.12 690.93 146.57 659.95 50.12 624.73 50.12 594.07 146.57 563.09 50.12 520.69 50.12 576.79 202.81 609.73 202.81 642.66 100.47 676.59 202.81 709.85 202.81 764.32 50.12"/><path class="cls-3" d="M143.5,50.12a25.06,25.06,0,1,0-25.06-25.06A25.06,25.06,0,0,0,143.5,50.12"/><path class="cls-2" d="M84.28,210.73a84.28,84.28,0,1,1,84.28-84.27A84.37,84.37,0,0,1,84.28,210.73Zm0-128.48a44.21,44.21,0,1,0,44.21,44.21A44.26,44.26,0,0,0,84.28,82.25Z"/><polygon class="cls-2" points="1000 202.81 959.93 202.81 959.93 0.45 1000 0.45 1000 59.43 1000 202.81"/><path class="cls-1" d="M915.72,210.73A84.28,84.28,0,1,1,1000,126.46,84.37,84.37,0,0,1,915.72,210.73Zm0-128.48a44.21,44.21,0,1,0,44.21,44.21A44.26,44.26,0,0,0,915.72,82.25Z"/><path class="cls-3" d="M959.93,54.74V198.17a84.21,84.21,0,0,0,0-143.43Z"/><path class="cls-1" d="M97.64,308a68.72,68.72,0,0,1-68.73-68.63H69a28.65,28.65,0,1,0,28.65-28.64H84.28V170.66H97.64a68.67,68.67,0,1,1,0,137.34Z"/><path class="cls-3" d="M97.64,170.66H84.28v40.07a84,84,0,0,0,58.18-23.38A68.42,68.42,0,0,0,97.64,170.66Z"/></g></g></svg>