<svg width="300" height="30" viewBox="0 0 300 30" fill="none" xmlns="http://www.w3.org/2000/svg">
<path d="M1.298 12.516C1.408 11.768 1.61333 11.1117 1.914 10.547C2.222 9.98233 2.607 9.513 3.069 9.139C3.531 8.75767 4.059 8.47167 4.653 8.281C5.25433 8.083 5.90333 7.984 6.6 7.984C7.304 7.984 7.942 8.08667 8.514 8.292C9.09333 8.49 9.58833 8.76867 9.999 9.128C10.417 9.48733 10.736 9.91633 10.956 10.415C11.1833 10.9137 11.297 11.46 11.297 12.054C11.297 12.56 11.2347 13.0073 11.11 13.396C10.9927 13.7773 10.8203 14.1147 10.593 14.408C10.373 14.7013 10.1017 14.947 9.779 15.145C9.45633 15.343 9.09333 15.508 8.69 15.64C9.67267 15.926 10.4097 16.3843 10.901 17.015C11.3923 17.6383 11.638 18.423 11.638 19.369C11.638 20.1317 11.495 20.81 11.209 21.404C10.923 21.998 10.5343 22.5003 10.043 22.911C9.559 23.3217 8.99067 23.637 8.338 23.857C7.69267 24.0697 7.007 24.176 6.281 24.176C5.467 24.176 4.763 24.0807 4.169 23.89C3.575 23.692 3.06167 23.4133 2.629 23.054C2.20367 22.6873 1.848 22.2473 1.562 21.734C1.276 21.2207 1.034 20.645 0.836 20.007L1.859 19.578C2.13033 19.4607 2.387 19.4277 2.629 19.479C2.87833 19.5303 3.058 19.666 3.168 19.886C3.28533 20.1207 3.41733 20.3737 3.564 20.645C3.71067 20.909 3.89767 21.1547 4.125 21.382C4.35967 21.602 4.64567 21.789 4.983 21.943C5.32767 22.0897 5.74933 22.163 6.248 22.163C6.754 22.163 7.194 22.0823 7.568 21.921C7.94933 21.7523 8.26467 21.5397 8.514 21.283C8.77067 21.019 8.96133 20.7257 9.086 20.403C9.21067 20.0803 9.273 19.7613 9.273 19.446C9.273 19.05 9.22533 18.687 9.13 18.357C9.03467 18.0197 8.84767 17.7337 8.569 17.499C8.29767 17.2643 7.909 17.081 7.403 16.949C6.90433 16.8097 6.248 16.74 5.434 16.74V15.035C6.10133 15.0277 6.66233 14.9617 7.117 14.837C7.579 14.705 7.94567 14.529 8.217 14.309C8.49567 14.0817 8.69367 13.8103 8.811 13.495C8.93567 13.1797 8.998 12.835 8.998 12.461C8.998 12.0577 8.93567 11.702 8.811 11.394C8.68633 11.086 8.51033 10.8293 8.283 10.624C8.063 10.4113 7.799 10.2537 7.491 10.151C7.183 10.0483 6.842 9.997 6.468 9.997C6.10867 9.997 5.775 10.0483 5.467 10.151C5.16633 10.2537 4.895 10.3967 4.653 10.58C4.41833 10.7633 4.22033 10.9833 4.059 11.24C3.89767 11.4893 3.78033 11.7643 3.707 12.065C3.60433 12.3657 3.465 12.5673 3.289 12.67C3.12033 12.7727 2.871 12.7947 2.541 12.736L1.298 12.516ZM24.7187 8.16V9.205C24.7187 9.513 24.6857 9.76233 24.6197 9.953C24.5537 10.1437 24.4877 10.305 24.4217 10.437L18.1627 23.175C18.0527 23.4097 17.8951 23.6077 17.6897 23.769C17.4917 23.923 17.2277 24 16.8977 24H15.1927L21.5727 11.471C21.6901 11.2437 21.8074 11.0383 21.9247 10.855C22.0421 10.6717 22.1741 10.4957 22.3207 10.327H14.4117C14.2651 10.327 14.1367 10.272 14.0267 10.162C13.9167 10.0447 13.8617 9.91267 13.8617 9.766V8.16H24.7187ZM37.4804 8.16V9.205C37.4804 9.513 37.4474 9.76233 37.3814 9.953C37.3154 10.1437 37.2494 10.305 37.1834 10.437L30.9244 23.175C30.8144 23.4097 30.6568 23.6077 30.4514 23.769C30.2534 23.923 29.9894 24 29.6594 24H27.9544L34.3344 11.471C34.4518 11.2437 34.5691 11.0383 34.6864 10.855C34.8038 10.6717 34.9358 10.4957 35.0824 10.327H27.1734C27.0268 10.327 26.8984 10.272 26.7884 10.162C26.6784 10.0447 26.6234 9.91267 26.6234 9.766V8.16H37.4804ZM44.6652 22.306C45.1418 22.306 45.5672 22.24 45.9412 22.108C46.3152 21.9687 46.6268 21.778 46.8762 21.536C47.1328 21.2867 47.3272 20.9933 47.4592 20.656C47.5912 20.3187 47.6572 19.952 47.6572 19.556C47.6572 19.072 47.5802 18.654 47.4262 18.302C47.2795 17.95 47.0705 17.6603 46.7992 17.433C46.5352 17.1983 46.2198 17.026 45.8532 16.916C45.4865 16.7987 45.0905 16.74 44.6652 16.74C44.2398 16.74 43.8438 16.7987 43.4772 16.916C43.1105 17.026 42.7915 17.1983 42.5202 17.433C42.2562 17.6603 42.0472 17.95 41.8932 18.302C41.7465 18.654 41.6732 19.072 41.6732 19.556C41.6732 19.952 41.7392 20.3187 41.8712 20.656C42.0032 20.9933 42.1938 21.2867 42.4432 21.536C42.6998 21.778 43.0152 21.9687 43.3892 22.108C43.7632 22.24 44.1885 22.306 44.6652 22.306ZM44.6652 9.799C44.2325 9.799 43.8512 9.865 43.5212 9.997C43.1985 10.129 42.9308 10.305 42.7182 10.525C42.5055 10.745 42.3442 11.0053 42.2342 11.306C42.1315 11.5993 42.0802 11.911 42.0802 12.241C42.0802 12.571 42.1242 12.8937 42.2122 13.209C42.3075 13.5243 42.4542 13.8067 42.6522 14.056C42.8575 14.298 43.1252 14.4923 43.4552 14.639C43.7852 14.7857 44.1885 14.859 44.6652 14.859C45.1418 14.859 45.5452 14.7857 45.8752 14.639C46.2052 14.4923 46.4692 14.298 46.6672 14.056C46.8725 13.8067 47.0192 13.5243 47.1072 13.209C47.2025 12.8937 47.2502 12.571 47.2502 12.241C47.2502 11.911 47.1952 11.5993 47.0852 11.306C46.9825 11.0053 46.8212 10.745 46.6012 10.525C46.3885 10.305 46.1208 10.129 45.7982 9.997C45.4755 9.865 45.0978 9.799 44.6652 9.799ZM47.1622 15.739C48.1375 16.0397 48.8672 16.5163 49.3512 17.169C49.8425 17.8217 50.0882 18.632 50.0882 19.6C50.0882 20.2967 49.9562 20.9273 49.6922 21.492C49.4282 22.0567 49.0578 22.537 48.5812 22.933C48.1045 23.329 47.5325 23.637 46.8652 23.857C46.2052 24.0697 45.4718 24.176 44.6652 24.176C43.8585 24.176 43.1215 24.0697 42.4542 23.857C41.7942 23.637 41.2258 23.329 40.7492 22.933C40.2725 22.537 39.9022 22.0567 39.6382 21.492C39.3742 20.9273 39.2422 20.2967 39.2422 19.6C39.2422 18.632 39.4842 17.8217 39.9682 17.169C40.4595 16.5163 41.1928 16.0397 42.1682 15.739C41.3762 15.4237 40.7785 14.9653 40.3752 14.364C39.9792 13.7627 39.7812 13.0403 39.7812 12.197C39.7812 11.603 39.8985 11.0493 40.1332 10.536C40.3678 10.0227 40.6978 9.579 41.1232 9.205C41.5558 8.82367 42.0728 8.52667 42.6742 8.314C43.2755 8.094 43.9392 7.984 44.6652 7.984C45.3912 7.984 46.0512 8.094 46.6452 8.314C47.2465 8.52667 47.7598 8.82367 48.1852 9.205C48.6178 9.579 48.9515 10.0227 49.1862 10.536C49.4282 11.0493 49.5492 11.603 49.5492 12.197C49.5492 13.0403 49.3475 13.7627 48.9442 14.364C48.5482 14.9653 47.9542 15.4237 47.1622 15.739ZM64.6434 12.373L64.0824 13.352L62.2564 12.296C62.1317 12.2153 62.0144 12.1347 61.9044 12.054C61.7944 11.9733 61.6991 11.8817 61.6184 11.779C61.7211 12.0063 61.7724 12.2703 61.7724 12.571V14.672H60.6284V12.593C60.6284 12.2777 60.6687 12.0137 60.7494 11.801C60.6101 11.9843 60.4084 12.1493 60.1444 12.296L58.3294 13.341L57.7684 12.362L59.5724 11.317C59.8364 11.163 60.0967 11.064 60.3534 11.02C60.0967 10.9907 59.8364 10.8917 59.5724 10.723L57.7574 9.667L58.3184 8.688L60.1444 9.744C60.2691 9.82467 60.3827 9.909 60.4854 9.997C60.5954 10.0777 60.6907 10.1693 60.7714 10.272C60.6761 10.0373 60.6284 9.76967 60.6284 9.469V7.379H61.7724V9.458C61.7724 9.60467 61.7614 9.744 61.7394 9.876C61.7247 10.008 61.6917 10.1327 61.6404 10.25C61.8091 10.052 62.0144 9.88333 62.2564 9.744L64.0714 8.699L64.6324 9.678L62.8284 10.723C62.7037 10.7963 62.5791 10.8623 62.4544 10.921C62.3297 10.9723 62.2051 11.0053 62.0804 11.02C62.2051 11.042 62.3297 11.0787 62.4544 11.13C62.5791 11.174 62.7037 11.2363 62.8284 11.317L64.6434 12.373ZM73.9891 12.373L73.4281 13.352L71.6021 12.296C71.4774 12.2153 71.3601 12.1347 71.2501 12.054C71.1401 11.9733 71.0448 11.8817 70.9641 11.779C71.0668 12.0063 71.1181 12.2703 71.1181 12.571V14.672H69.9741V12.593C69.9741 12.2777 70.0144 12.0137 70.0951 11.801C69.9558 11.9843 69.7541 12.1493 69.4901 12.296L67.6751 13.341L67.1141 12.362L68.9181 11.317C69.1821 11.163 69.4424 11.064 69.6991 11.02C69.4424 10.9907 69.1821 10.8917 68.9181 10.723L67.1031 9.667L67.6641 8.688L69.4901 9.744C69.6148 9.82467 69.7284 9.909 69.8311 9.997C69.9411 10.0777 70.0364 10.1693 70.1171 10.272C70.0218 10.0373 69.9741 9.76967 69.9741 9.469V7.379H71.1181V9.458C71.1181 9.60467 71.1071 9.744 71.0851 9.876C71.0704 10.008 71.0374 10.1327 70.9861 10.25C71.1548 10.052 71.3601 9.88333 71.6021 9.744L73.4171 8.699L73.9781 9.678L72.1741 10.723C72.0494 10.7963 71.9248 10.8623 71.8001 10.921C71.6754 10.9723 71.5508 11.0053 71.4261 11.02C71.5508 11.042 71.6754 11.0787 71.8001 11.13C71.9248 11.174 72.0494 11.2363 72.1741 11.317L73.9891 12.373ZM83.3348 12.373L82.7738 13.352L80.9478 12.296C80.8231 12.2153 80.7058 12.1347 80.5958 12.054C80.4858 11.9733 80.3905 11.8817 80.3098 11.779C80.4125 12.0063 80.4638 12.2703 80.4638 12.571V14.672H79.3198V12.593C79.3198 12.2777 79.3601 12.0137 79.4408 11.801C79.3015 11.9843 79.0998 12.1493 78.8358 12.296L77.0208 13.341L76.4598 12.362L78.2638 11.317C78.5278 11.163 78.7881 11.064 79.0448 11.02C78.7881 10.9907 78.5278 10.8917 78.2638 10.723L76.4488 9.667L77.0098 8.688L78.8358 9.744C78.9605 9.82467 79.0741 9.909 79.1768 9.997C79.2868 10.0777 79.3821 10.1693 79.4628 10.272C79.3675 10.0373 79.3198 9.76967 79.3198 9.469V7.379H80.4638V9.458C80.4638 9.60467 80.4528 9.744 80.4308 9.876C80.4161 10.008 80.3831 10.1327 80.3318 10.25C80.5005 10.052 80.7058 9.88333 80.9478 9.744L82.7628 8.699L83.3238 9.678L81.5198 10.723C81.3951 10.7963 81.2705 10.8623 81.1458 10.921C81.0211 10.9723 80.8965 11.0053 80.7718 11.02C80.8965 11.042 81.0211 11.0787 81.1458 11.13C81.2705 11.174 81.3951 11.2363 81.5198 11.317L83.3348 12.373ZM92.6805 12.373L92.1195 13.352L90.2935 12.296C90.1688 12.2153 90.0515 12.1347 89.9415 12.054C89.8315 11.9733 89.7362 11.8817 89.6555 11.779C89.7582 12.0063 89.8095 12.2703 89.8095 12.571V14.672H88.6655V12.593C88.6655 12.2777 88.7058 12.0137 88.7865 11.801C88.6472 11.9843 88.4455 12.1493 88.1815 12.296L86.3665 13.341L85.8055 12.362L87.6095 11.317C87.8735 11.163 88.1338 11.064 88.3905 11.02C88.1338 10.9907 87.8735 10.8917 87.6095 10.723L85.7945 9.667L86.3555 8.688L88.1815 9.744C88.3062 9.82467 88.4198 9.909 88.5225 9.997C88.6325 10.0777 88.7278 10.1693 88.8085 10.272C88.7132 10.0373 88.6655 9.76967 88.6655 9.469V7.379H89.8095V9.458C89.8095 9.60467 89.7985 9.744 89.7765 9.876C89.7618 10.008 89.7288 10.1327 89.6775 10.25C89.8462 10.052 90.0515 9.88333 90.2935 9.744L92.1085 8.699L92.6695 9.678L90.8655 10.723C90.7408 10.7963 90.6162 10.8623 90.4915 10.921C90.3668 10.9723 90.2422 11.0053 90.1175 11.02C90.2422 11.042 90.3668 11.0787 90.4915 11.13C90.6162 11.174 90.7408 11.2363 90.8655 11.317L92.6805 12.373ZM107.505 12.373L106.944 13.352L105.118 12.296C104.993 12.2153 104.876 12.1347 104.766 12.054C104.656 11.9733 104.56 11.8817 104.48 11.779C104.582 12.0063 104.634 12.2703 104.634 12.571V14.672H103.49V12.593C103.49 12.2777 103.53 12.0137 103.611 11.801C103.471 11.9843 103.27 12.1493 103.006 12.296L101.191 13.341L100.63 12.362L102.434 11.317C102.698 11.163 102.958 11.064 103.215 11.02C102.958 10.9907 102.698 10.8917 102.434 10.723L100.619 9.667L101.18 8.688L103.006 9.744C103.13 9.82467 103.244 9.909 103.347 9.997C103.457 10.0777 103.552 10.1693 103.633 10.272C103.537 10.0373 103.49 9.76967 103.49 9.469V7.379H104.634V9.458C104.634 9.60467 104.623 9.744 104.601 9.876C104.586 10.008 104.553 10.1327 104.502 10.25C104.67 10.052 104.876 9.88333 105.118 9.744L106.933 8.699L107.494 9.678L105.69 10.723C105.565 10.7963 105.44 10.8623 105.316 10.921C105.191 10.9723 105.066 11.0053 104.942 11.02C105.066 11.042 105.191 11.0787 105.316 11.13C105.44 11.174 105.565 11.2363 105.69 11.317L107.505 12.373ZM116.85 12.373L116.289 13.352L114.463 12.296C114.339 12.2153 114.221 12.1347 114.111 12.054C114.001 11.9733 113.906 11.8817 113.825 11.779C113.928 12.0063 113.979 12.2703 113.979 12.571V14.672H112.835V12.593C112.835 12.2777 112.876 12.0137 112.956 11.801C112.817 11.9843 112.615 12.1493 112.351 12.296L110.536 13.341L109.975 12.362L111.779 11.317C112.043 11.163 112.304 11.064 112.56 11.02C112.304 10.9907 112.043 10.8917 111.779 10.723L109.964 9.667L110.525 8.688L112.351 9.744C112.476 9.82467 112.59 9.909 112.692 9.997C112.802 10.0777 112.898 10.1693 112.978 10.272C112.883 10.0373 112.835 9.76967 112.835 9.469V7.379H113.979V9.458C113.979 9.60467 113.968 9.744 113.946 9.876C113.932 10.008 113.899 10.1327 113.847 10.25C114.016 10.052 114.221 9.88333 114.463 9.744L116.278 8.699L116.839 9.678L115.035 10.723C114.911 10.7963 114.786 10.8623 114.661 10.921C114.537 10.9723 114.412 11.0053 114.287 11.02C114.412 11.042 114.537 11.0787 114.661 11.13C114.786 11.174 114.911 11.2363 115.035 11.317L116.85 12.373ZM126.196 12.373L125.635 13.352L123.809 12.296C123.684 12.2153 123.567 12.1347 123.457 12.054C123.347 11.9733 123.252 11.8817 123.171 11.779C123.274 12.0063 123.325 12.2703 123.325 12.571V14.672H122.181V12.593C122.181 12.2777 122.221 12.0137 122.302 11.801C122.163 11.9843 121.961 12.1493 121.697 12.296L119.882 13.341L119.321 12.362L121.125 11.317C121.389 11.163 121.649 11.064 121.906 11.02C121.649 10.9907 121.389 10.8917 121.125 10.723L119.31 9.667L119.871 8.688L121.697 9.744C121.822 9.82467 121.935 9.909 122.038 9.997C122.148 10.0777 122.243 10.1693 122.324 10.272C122.229 10.0373 122.181 9.76967 122.181 9.469V7.379H123.325V9.458C123.325 9.60467 123.314 9.744 123.292 9.876C123.277 10.008 123.244 10.1327 123.193 10.25C123.362 10.052 123.567 9.88333 123.809 9.744L125.624 8.699L126.185 9.678L124.381 10.723C124.256 10.7963 124.132 10.8623 124.007 10.921C123.882 10.9723 123.758 11.0053 123.633 11.02C123.758 11.042 123.882 11.0787 124.007 11.13C124.132 11.174 124.256 11.2363 124.381 11.317L126.196 12.373ZM135.542 12.373L134.981 13.352L133.155 12.296C133.03 12.2153 132.913 12.1347 132.803 12.054C132.693 11.9733 132.597 11.8817 132.517 11.779C132.619 12.0063 132.671 12.2703 132.671 12.571V14.672H131.527V12.593C131.527 12.2777 131.567 12.0137 131.648 11.801C131.508 11.9843 131.307 12.1493 131.043 12.296L129.228 13.341L128.667 12.362L130.471 11.317C130.735 11.163 130.995 11.064 131.252 11.02C130.995 10.9907 130.735 10.8917 130.471 10.723L128.656 9.667L129.217 8.688L131.043 9.744C131.167 9.82467 131.281 9.909 131.384 9.997C131.494 10.0777 131.589 10.1693 131.67 10.272C131.574 10.0373 131.527 9.76967 131.527 9.469V7.379H132.671V9.458C132.671 9.60467 132.66 9.744 132.638 9.876C132.623 10.008 132.59 10.1327 132.539 10.25C132.707 10.052 132.913 9.88333 133.155 9.744L134.97 8.699L135.531 9.678L133.727 10.723C133.602 10.7963 133.477 10.8623 133.353 10.921C133.228 10.9723 133.103 11.0053 132.979 11.02C133.103 11.042 133.228 11.0787 133.353 11.13C133.477 11.174 133.602 11.2363 133.727 11.317L135.542 12.373ZM153.545 22.207V24H144.91V22.207H148.21V12.285C148.21 11.933 148.221 11.5737 148.243 11.207L145.702 13.352C145.592 13.44 145.478 13.4987 145.361 13.528C145.251 13.55 145.145 13.55 145.042 13.528C144.947 13.506 144.859 13.473 144.778 13.429C144.705 13.3777 144.646 13.3227 144.602 13.264L143.865 12.23L148.639 8.127H150.564V22.207H153.545ZM165.834 21.767C166.09 21.767 166.292 21.844 166.439 21.998C166.585 22.1447 166.659 22.3353 166.659 22.57V24H155.945V23.197C155.945 23.0357 155.978 22.867 156.044 22.691C156.11 22.515 156.216 22.3537 156.363 22.207L161.291 17.268C161.709 16.85 162.079 16.4503 162.402 16.069C162.732 15.6877 163.01 15.3063 163.238 14.925C163.472 14.5437 163.648 14.1587 163.766 13.77C163.89 13.374 163.953 12.9597 163.953 12.527C163.953 12.109 163.887 11.7423 163.755 11.427C163.63 11.1043 163.454 10.8403 163.227 10.635C163.007 10.4223 162.739 10.2647 162.424 10.162C162.116 10.052 161.775 9.997 161.401 9.997C161.041 9.997 160.708 10.0483 160.4 10.151C160.099 10.2537 159.828 10.3967 159.586 10.58C159.351 10.7633 159.153 10.9833 158.992 11.24C158.838 11.4893 158.724 11.7643 158.651 12.065C158.541 12.3657 158.398 12.5673 158.222 12.67C158.053 12.7727 157.804 12.7947 157.474 12.736L156.231 12.516C156.341 11.768 156.546 11.1117 156.847 10.547C157.155 9.98233 157.54 9.513 158.002 9.139C158.464 8.75767 158.992 8.47167 159.586 8.281C160.187 8.083 160.836 7.984 161.533 7.984C162.237 7.984 162.882 8.09033 163.469 8.303C164.063 8.50833 164.572 8.80533 164.998 9.194C165.43 9.57533 165.768 10.041 166.01 10.591C166.252 11.141 166.373 11.7607 166.373 12.45C166.373 13.0367 166.285 13.5793 166.109 14.078C165.94 14.5767 165.709 15.0533 165.416 15.508C165.122 15.9627 164.778 16.4063 164.382 16.839C163.993 17.2643 163.582 17.697 163.15 18.137L159.322 22.053C159.637 21.965 159.952 21.8953 160.268 21.844C160.59 21.7927 160.895 21.767 161.181 21.767H165.834ZM169.069 12.516C169.179 11.768 169.385 11.1117 169.685 10.547C169.993 9.98233 170.378 9.513 170.84 9.139C171.302 8.75767 171.83 8.47167 172.424 8.281C173.026 8.083 173.675 7.984 174.371 7.984C175.075 7.984 175.713 8.08667 176.285 8.292C176.865 8.49 177.36 8.76867 177.77 9.128C178.188 9.48733 178.507 9.91633 178.727 10.415C178.955 10.9137 179.068 11.46 179.068 12.054C179.068 12.56 179.006 13.0073 178.881 13.396C178.764 13.7773 178.592 14.1147 178.364 14.408C178.144 14.7013 177.873 14.947 177.55 15.145C177.228 15.343 176.865 15.508 176.461 15.64C177.444 15.926 178.181 16.3843 178.672 17.015C179.164 17.6383 179.409 18.423 179.409 19.369C179.409 20.1317 179.266 20.81 178.98 21.404C178.694 21.998 178.306 22.5003 177.814 22.911C177.33 23.3217 176.762 23.637 176.109 23.857C175.464 24.0697 174.778 24.176 174.052 24.176C173.238 24.176 172.534 24.0807 171.94 23.89C171.346 23.692 170.833 23.4133 170.4 23.054C169.975 22.6873 169.619 22.2473 169.333 21.734C169.047 21.2207 168.805 20.645 168.607 20.007L169.63 19.578C169.902 19.4607 170.158 19.4277 170.4 19.479C170.65 19.5303 170.829 19.666 170.939 19.886C171.057 20.1207 171.189 20.3737 171.335 20.645C171.482 20.909 171.669 21.1547 171.896 21.382C172.131 21.602 172.417 21.789 172.754 21.943C173.099 22.0897 173.521 22.163 174.019 22.163C174.525 22.163 174.965 22.0823 175.339 21.921C175.721 21.7523 176.036 21.5397 176.285 21.283C176.542 21.019 176.733 20.7257 176.857 20.403C176.982 20.0803 177.044 19.7613 177.044 19.446C177.044 19.05 176.997 18.687 176.901 18.357C176.806 18.0197 176.619 17.7337 176.34 17.499C176.069 17.2643 175.68 17.081 175.174 16.949C174.676 16.8097 174.019 16.74 173.205 16.74V15.035C173.873 15.0277 174.434 14.9617 174.888 14.837C175.35 14.705 175.717 14.529 175.988 14.309C176.267 14.0817 176.465 13.8103 176.582 13.495C176.707 13.1797 176.769 12.835 176.769 12.461C176.769 12.0577 176.707 11.702 176.582 11.394C176.458 11.086 176.282 10.8293 176.054 10.624C175.834 10.4113 175.57 10.2537 175.262 10.151C174.954 10.0483 174.613 9.997 174.239 9.997C173.88 9.997 173.546 10.0483 173.238 10.151C172.938 10.2537 172.666 10.3967 172.424 10.58C172.19 10.7633 171.992 10.9833 171.83 11.24C171.669 11.4893 171.552 11.7643 171.478 12.065C171.376 12.3657 171.236 12.5673 171.06 12.67C170.892 12.7727 170.642 12.7947 170.312 12.736L169.069 12.516ZM188.464 18.148V12.362C188.464 11.9 188.497 11.394 188.563 10.844L183.239 18.148H188.464ZM192.71 18.148V19.512C192.71 19.644 192.666 19.7577 192.578 19.853C192.498 19.9483 192.373 19.996 192.204 19.996H190.521V24H188.464V19.996H181.611C181.443 19.996 181.296 19.9483 181.171 19.853C181.054 19.7503 180.977 19.6257 180.94 19.479L180.698 18.269L188.299 8.149H190.521V18.148H192.71Z" fill="white"/>
<circle cx="271" cy="15" r="15" fill="white" fill-opacity="0.5"/>
<circle cx="285" cy="15" r="15" fill="white" fill-opacity="0.5"/>
</svg>
