<svg width="24" height="25" viewBox="0 0 24 25" fill="none" xmlns="http://www.w3.org/2000/svg">
<path d="M8.75052 18.9911L9.74798 18.9199L9.74798 18.9199L8.75052 18.9911ZM15.2518 18.9911L16.2493 19.0624L16.2493 19.0623L15.2518 18.9911ZM2.35139 13.7135L1.36299 13.8654L1.36299 13.8654L2.35139 13.7135ZM2.25617 9.24938L3.17599 9.64171L3.176 9.6417L2.25617 9.24938ZM5.58114 6.14106L4.99522 5.33069L4.99522 5.33069L5.58114 6.14106ZM7.02099 5.1L7.60691 5.91037L7.60691 5.91037L7.02099 5.1ZM16.979 5.1L16.3931 5.91037L16.3931 5.91038L16.979 5.1ZM18.4189 6.14106L19.0048 5.3307L19.0048 5.33068L18.4189 6.14106ZM21.7439 9.24938L20.824 9.6417L20.8241 9.6417L21.7439 9.24938ZM21.6486 13.7135L20.6602 13.5616L20.6602 13.5616L21.6486 13.7135ZM21.3476 15.6724L22.336 15.8243L22.336 15.8243L21.3476 15.6724ZM2.65243 15.6724L3.64083 15.5205L3.64083 15.5205L2.65243 15.6724ZM9.99861 22.4288L9.74798 18.9199L7.75306 19.0623L8.00369 22.5712L9.99861 22.4288ZM9.74798 18.9199C9.65457 17.6122 10.6902 16.5 12.0011 16.5V14.5C9.52957 14.5 7.57696 16.597 7.75306 19.0623L9.74798 18.9199ZM12.0011 16.5C13.3121 16.5 14.3477 17.6122 14.2543 18.9199L16.2493 19.0623C16.4253 16.597 14.4727 14.5 12.0011 14.5V16.5ZM14.2543 18.9198L14.0036 22.4287L15.9986 22.5713L16.2493 19.0624L14.2543 18.9198ZM3.33979 13.5616C3.16013 12.3925 3.03822 11.5909 3.00736 10.9534C2.97766 10.3399 3.0387 9.9636 3.17599 9.64171L1.33635 8.85705C1.03933 9.55341 0.971472 10.2605 1.0097 11.0502C1.04677 11.8159 1.18963 12.7372 1.36299 13.8654L3.33979 13.5616ZM3.176 9.6417C3.3141 9.31791 3.54843 9.00455 4.02253 8.5839C4.51259 8.1491 5.18737 7.65978 6.16706 6.95143L4.99522 5.33069C4.0478 6.01571 3.27725 6.57142 2.69517 7.08787C2.09714 7.61848 1.63254 8.16259 1.33634 8.85706L3.176 9.6417ZM6.16706 6.95143L7.60691 5.91037L6.43507 4.28963L4.99522 5.33069L6.16706 6.95143ZM7.60691 5.91037C8.82435 5.03012 9.66976 4.42076 10.3802 4.02208C11.0675 3.63637 11.5412 3.5 12 3.5V1.5C11.0758 1.5 10.2586 1.79696 9.40147 2.27793C8.56751 2.74591 7.61493 3.43655 6.43507 4.28963L7.60691 5.91037ZM12 3.5C12.4588 3.5 12.9325 3.63638 13.6198 4.02207C14.3302 4.42075 15.1756 5.03011 16.3931 5.91037L17.5649 4.28963C16.385 3.43656 15.4325 2.74592 14.5985 2.27793C13.7414 1.79696 12.9242 1.5 12 1.5V3.5ZM16.3931 5.91038L17.833 6.95144L19.0048 5.33068L17.5649 4.28962L16.3931 5.91038ZM17.833 6.95142C18.8126 7.65978 19.4874 8.1491 19.9775 8.58391C20.4516 9.00456 20.686 9.31792 20.824 9.6417L22.6637 8.85706C22.3675 8.16258 21.9029 7.61847 21.3049 7.08786C20.7228 6.57142 19.9522 6.01571 19.0048 5.3307L17.833 6.95142ZM20.8241 9.6417C20.9613 9.9636 21.0224 10.3399 20.9927 10.9534C20.9618 11.5909 20.8399 12.3925 20.6602 13.5616L22.637 13.8654C22.8104 12.7372 22.9533 11.8159 22.9903 11.0502C23.0286 10.2605 22.9607 9.55341 22.6637 8.85706L20.8241 9.6417ZM20.6602 13.5616L20.3592 15.5205L22.336 15.8243L22.637 13.8654L20.6602 13.5616ZM20.3592 15.5205C20.1049 17.1752 19.9269 18.3205 19.6781 19.1791C19.4381 20.0075 19.1637 20.4485 18.7895 20.7598L20.0684 22.2974C20.8621 21.6373 21.2969 20.7785 21.5991 19.7357C21.8925 18.7232 22.0898 17.4261 22.336 15.8243L20.3592 15.5205ZM18.7895 20.7598C18.4112 21.0745 17.9064 21.2765 17.0059 21.3859C16.0805 21.4983 14.8713 21.5 13.1388 21.5V23.5C14.8212 23.5 16.1731 23.5017 17.2471 23.3713C18.3461 23.2378 19.2789 22.9541 20.0684 22.2974L18.7895 20.7598ZM13.1388 21.5H10.8612V23.5H13.1388V21.5ZM10.8612 21.5C9.1287 21.5 7.91951 21.4983 6.99407 21.3859C6.09364 21.2765 5.5888 21.0745 5.21046 20.7598L3.93154 22.2974C4.72111 22.9541 5.65394 23.2378 6.75292 23.3713C7.82688 23.5017 9.17882 23.5 10.8612 23.5V21.5ZM5.21046 20.7598C4.83624 20.4485 4.56194 20.0075 4.3219 19.1791C4.07312 18.3205 3.89511 17.1752 3.64083 15.5205L1.66403 15.8243C1.91019 17.4261 2.10751 18.7232 2.40093 19.7357C2.70308 20.7785 3.13785 21.6373 3.93154 22.2974L5.21046 20.7598ZM3.64083 15.5205L3.33979 13.5616L1.36299 13.8654L1.66403 15.8243L3.64083 15.5205Z" fill="black"/>
</svg>
