<svg width="20" height="20" viewBox="0 0 20 20" fill="none" xmlns="http://www.w3.org/2000/svg">
<path d="M13.2494 14.7173C13.2659 14.3034 12.9437 13.9545 12.5298 13.9381C12.1159 13.9216 11.767 14.2438 11.7506 14.6577L13.2494 14.7173ZM9.42967 17.499L9.41127 18.2488L9.41132 18.2488L9.42967 17.499ZM7.5426 17.07L7.74622 16.3482H7.74622L7.5426 17.07ZM2.5913 12.7346L3.32728 12.5902L3.32727 12.5902L2.5913 12.7346ZM2.5913 7.26538L3.32728 7.40973L3.32728 7.40973L2.5913 7.26538ZM7.5426 2.93002L7.7462 3.65186L7.74622 3.65185L7.5426 2.93002ZM9.42967 2.50099L9.448 3.25077L9.44801 3.25077L9.42967 2.50099ZM11.7506 5.34229C11.767 5.75618 12.1159 6.07836 12.5298 6.06191C12.9437 6.04547 13.2659 5.69661 13.2494 5.28272L11.7506 5.34229ZM8.33333 9.25C7.91912 9.25 7.58333 9.58578 7.58333 10C7.58333 10.4142 7.91912 10.75 8.33333 10.75V9.25ZM15.9394 7.37885C15.6424 7.09015 15.1676 7.0969 14.8789 7.39392C14.5902 7.69095 14.5969 8.16577 14.8939 8.45448L15.9394 7.37885ZM14.8939 11.5455C14.5969 11.8342 14.5901 12.309 14.8788 12.6061C15.1675 12.9031 15.6424 12.9099 15.9394 12.6212L14.8939 11.5455ZM11.7506 14.6577C11.7053 15.7978 10.7551 16.7812 9.44802 16.7492L9.41132 18.2488C11.5501 18.3011 13.1721 16.6637 13.2494 14.7173L11.7506 14.6577ZM9.44806 16.7492C9.16639 16.7423 8.78618 16.6415 7.74622 16.3482L7.33898 17.7918C8.28065 18.0575 8.89127 18.236 9.41127 18.2488L9.44806 16.7492ZM7.74622 16.3482C5.42384 15.693 3.73748 14.6817 3.32728 12.5902L1.85532 12.8789C2.43844 15.8521 4.89218 17.1016 7.33898 17.7918L7.74622 16.3482ZM3.32727 12.5902C3.25341 12.2137 3.25 11.7777 3.25 10.6977H1.75C1.75 11.713 1.74659 12.3247 1.85533 12.879L3.32727 12.5902ZM3.25 10.6977V9.30225H1.75V10.6977H3.25ZM3.25 9.30225C3.25 8.22232 3.2534 7.78637 3.32728 7.40973L1.85532 7.12103C1.7466 7.67537 1.75 8.28703 1.75 9.30225H3.25ZM3.32728 7.40973C3.73748 5.31822 5.42384 4.30691 7.7462 3.65186L7.339 2.20819C4.89218 2.89835 2.43844 4.14786 1.85532 7.12104L3.32728 7.40973ZM7.74622 3.65185C8.78629 3.35847 9.16639 3.25765 9.448 3.25077L9.41134 1.75121C8.89128 1.76393 8.28054 1.9426 7.33898 2.20819L7.74622 3.65185ZM9.44801 3.25077C10.7551 3.21879 11.7053 4.2022 11.7506 5.34229L13.2494 5.28272C13.1721 3.33625 11.5501 1.69889 9.41132 1.75121L9.44801 3.25077ZM17.5 9.25H8.33333V10.75H17.5V9.25ZM18.25 10C18.25 9.7563 18.1662 9.55002 18.089 9.40587C18.0087 9.25578 17.906 9.11859 17.8047 8.99961C17.6026 8.76227 17.345 8.52746 17.1012 8.32092C16.8542 8.11161 16.5946 7.90916 16.3832 7.74312C16.1548 7.56371 16.0096 7.44708 15.9394 7.37885L14.8939 8.45448C15.0344 8.59106 15.255 8.7643 15.4567 8.92274C15.6754 9.09456 15.9104 9.27793 16.1315 9.46532C16.3559 9.65548 16.5401 9.82823 16.6628 9.97222C16.7238 10.0439 16.7543 10.0908 16.7665 10.1136C16.7819 10.1424 16.75 10.0978 16.75 10H18.25ZM16.75 10C16.75 9.90217 16.7819 9.8576 16.7665 9.88637C16.7543 9.90918 16.7238 9.9561 16.6628 10.0278C16.5401 10.1718 16.3559 10.3445 16.1315 10.5347C15.9104 10.7221 15.6754 10.9054 15.4567 11.0773C15.255 11.2357 15.0345 11.4089 14.8939 11.5455L15.9394 12.6212C16.0096 12.5529 16.1548 12.4363 16.3832 12.2569C16.5946 12.0908 16.8542 11.8884 17.1012 11.6791C17.345 11.4725 17.6026 11.2377 17.8047 11.0004C17.9061 10.8814 18.0087 10.7442 18.089 10.5941C18.1662 10.45 18.25 10.2437 18.25 10H16.75Z" fill="#212529"/>
</svg>
