<?xml version="1.0" encoding="UTF-8"?>
<svg id="Layer_2" data-name="Layer 2" xmlns="http://www.w3.org/2000/svg" viewBox="0 0 191.28 212.47">
  <defs>
    <style>
      .cls-1, .cls-2, .cls-3 {
        stroke-width: 8px;
      }

      .cls-1, .cls-2, .cls-3, .cls-4 {
        stroke-miterlimit: 10;
      }

      .cls-1, .cls-2, .cls-4 {
        fill: none;
      }

      .cls-1, .cls-3 {
        stroke: #1ebed0;
        stroke-linecap: round;
      }

      .cls-2 {
        stroke: #3d84ac;
      }

      .cls-5 {
        fill: #1ebed0;
      }

      .cls-5, .cls-6, .cls-7 {
        stroke-width: 0px;
      }

      .cls-3 {
        fill: #d7f7ff;
      }

      .cls-6 {
        fill: #fff;
      }

      .cls-7 {
        fill: #1dbed0;
      }

      .cls-4 {
        stroke: #7dd6f7;
        stroke-width: 2px;
      }
    </style>
  </defs>
  <g id="Layer_1-2" data-name="Layer 1">
    <g>
      <path class="cls-4" d="M141.93,150.43s-.06.08-.09.12"/>
      <path class="cls-4" d="M156.28,107.11c-.45-14.5-5.57-27.82-13.91-38.52-.17-.23-.35-.46-.53-.68-9.04-11.3-21.7-19.57-36.23-23.04h0"/>
      <path class="cls-4" d="M34.97,145.84c-6.98-10.48-11.04-23.07-11.04-36.61s4.06-26.13,11.04-36.61"/>
      <path class="cls-4" d="M141.84,181.83c11.4-8.14,20.81-18.9,27.33-31.4"/>
      <path class="cls-4" d="M179.24,108.3c-.19-18.61-6.08-35.86-16.02-50.07-3.64-5.21-7.83-10.02-12.47-14.32-2.79-2.6-5.74-5.01-8.85-7.23-.02-.02-.04-.04-.07-.05-.82-.59-1.65-1.16-2.49-1.71-5.1-3.39-10.57-6.26-16.34-8.55-5.29-2.1-10.82-3.71-16.55-4.77h0"/>
      <path class="cls-4" d="M34.97,179.25C14.28,162.93,1,137.63,1,109.23S14.28,55.54,34.97,39.22"/>
    </g>
    <path class="cls-2" d="M141.84,150.43v33.07c0,13.79-11.18,24.97-24.97,24.97h-56.93c-13.79,0-24.97-11.18-24.97-24.97V36.9c0-13.79,11.18-24.97,24.97-24.97h56.93c13.79,0,24.97,11.18,24.97,24.97v70.21"/>
    <path class="cls-1" d="M34.97,36.9c0-13.79,11.18-24.97,24.97-24.97"/>
    <g>
      <circle class="cls-5" cx="138.39" cy="34.41" r="34.41"/>
      <path class="cls-6" d="M122.99,30.15c0-1.25-.02-2.5,0-3.75.05-2.16,1.48-3.94,3.58-4.41,3.58-.82,7.17-1.6,10.76-2.4.93-.21,1.83-.07,2.75.14,3.33.75,6.66,1.48,9.99,2.24,2.3.53,3.7,2.29,3.7,4.64,0,2.25.05,4.5-.02,6.75-.2,6.47-2.79,11.82-7.67,16.07-1.74,1.51-3.7,2.66-5.83,3.54-1.23.51-2.45.53-3.68,0-6.61-2.81-10.9-7.66-12.86-14.57-.56-1.97-.75-3.99-.72-6.03.01-.73,0-1.47,0-2.2,0,0,0,0,0,0ZM137.21,36.98c-.1-.1-.19-.18-.27-.26-.7-.69-1.41-1.38-2.11-2.07-.43-.42-.93-.59-1.52-.44-1.18.31-1.55,1.72-.67,2.6,1.09,1.1,2.21,2.18,3.32,3.26.83.82,1.65.83,2.49.01,1.5-1.47,3-2.95,4.5-4.43.88-.87,1.74-1.76,2.66-2.6.66-.6.77-1.53.16-2.18-.61-.65-1.58-.67-2.25-.02-1.99,1.92-3.97,3.86-5.95,5.78-.11.11-.22.21-.35.33Z"/>
    </g>
    <path class="cls-3" d="M76.7,150.43l3.78,12.79c.12.41.62.54.92.24l13.21-13.03M76.7,150.43c-7.51,0-13.6-6.08-13.6-13.6v-16.12c0-7.51,6.09-13.6,13.6-13.6h96.98c7.51,0,13.6,6.09,13.6,13.6v16.12c0,7.52-6.09,13.6-13.6,13.6h-79.07"/>
    <g>
      <path class="cls-7" d="M89.62,124.17c1.02-.58,1.79-1.06,2.6-1.48,1.47-.76,2.97-.41,3.68.84.72,1.26.28,2.71-1.12,3.6-.77.49-1.58.92-2.52,1.47,1.1.7,2.14,1.27,3.07,1.98,1,.77,1.17,2.19.54,3.25-.59.99-1.89,1.45-3.05,1.02-.45-.16-.86-.43-1.28-.66-.58-.32-1.17-.65-1.82-1.01-.08,1.33-.08,2.52-.26,3.69-.18,1.19-1.19,1.96-2.37,1.99-1.21.03-2.23-.77-2.49-2-.1-.5-.13-1.03-.14-1.55-.02-.66,0-1.33,0-2.2-.97.55-1.75,1.01-2.55,1.44-1.46.79-2.98.48-3.7-.74-.77-1.31-.34-2.78,1.12-3.7.77-.48,1.57-.92,2.54-1.48-.93-.55-1.71-.99-2.48-1.46-1.49-.92-1.95-2.36-1.21-3.67.73-1.28,2.24-1.59,3.79-.76.77.41,1.52.86,2.39,1.35.09-1.34.09-2.56.28-3.76.18-1.16,1.26-1.93,2.42-1.93s2.17.78,2.42,1.94c.12.54.13,1.11.16,1.66.03.64,0,1.28,0,2.14l-.02.03Z"/>
      <path class="cls-7" d="M161.48,133.11c-1.04.59-1.86,1.09-2.7,1.52-1.4.72-2.9.35-3.57-.86-.7-1.25-.33-2.67.99-3.54.8-.53,1.65-.98,2.66-1.57-1.03-.64-1.99-1.15-2.87-1.79-1.15-.82-1.43-2.28-.75-3.4.66-1.09,1.98-1.49,3.27-.95.44.18.85.44,1.27.67.51.28,1.02.58,1.62.92.08-1.34.08-2.53.25-3.7.19-1.24,1.27-2.03,2.48-2,1.18.03,2.13.8,2.38,1.99.11.54.13,1.11.15,1.67.02.63,0,1.25,0,2.1.97-.55,1.74-1.02,2.54-1.44,1.48-.79,2.96-.48,3.71.74.78,1.28.34,2.77-1.13,3.69-.77.48-1.57.92-2.54,1.48.94.55,1.74.99,2.5,1.46,1.48.92,1.94,2.34,1.2,3.67-.71,1.27-2.25,1.59-3.78.76-.77-.42-1.52-.86-2.4-1.36-.09,1.34-.09,2.56-.27,3.75-.18,1.16-1.02,1.78-2.17,1.9-1.17.13-2.05-.4-2.52-1.44-.24-.52-.25-1.16-.29-1.76-.05-.76,0-1.52,0-2.51h-.02Z"/>
      <path class="cls-7" d="M115.24,133.07c0,1.29.05,2.29,0,3.29-.09,1.5-1.16,2.52-2.54,2.51-1.32-.01-2.39-.99-2.51-2.43-.08-1.03-.02-2.08-.02-3.34-.93.52-1.71.97-2.49,1.4-1.54.85-3.05.57-3.79-.69-.79-1.34-.31-2.8,1.23-3.75.74-.45,1.5-.88,2.44-1.42-.67-.4-1.17-.7-1.67-.99-2.22-1.28-2.9-2.67-2.01-4.15.88-1.47,2.36-1.57,4.52-.32.51.3,1.03.59,1.76,1.01v-2.37c0-2.18.9-3.43,2.52-3.39,1.36.03,2.76.83,2.6,3.43-.04.7,0,1.41,0,2.3.64-.35,1.08-.58,1.52-.83,2.42-1.4,3.95-1.33,4.82.22.87,1.57.2,2.82-2.29,4.25-.41.24-.81.48-1.37.82,1.07.67,2.08,1.21,2.98,1.9,1.1.83,1.3,2.17.62,3.32-.59,1-1.88,1.45-3.05,1.02-.41-.15-.79-.39-1.17-.6-.62-.34-1.23-.7-2.08-1.18h-.01Z"/>
      <path class="cls-7" d="M140.96,133.09c0,1.16.03,2.08,0,3-.06,1.66-1.1,2.77-2.55,2.78-1.46,0-2.49-1.09-2.55-2.76-.03-.91,0-1.83,0-2.98-1.07.59-1.97,1.13-2.92,1.59-1.29.63-2.71.22-3.37-.89-.7-1.18-.43-2.52.72-3.4.44-.34.95-.59,1.43-.88.44-.27.88-.53,1.49-.9-.9-.53-1.68-.97-2.45-1.45-1.5-.93-1.97-2.34-1.24-3.65.72-1.29,2.25-1.62,3.78-.81.8.43,1.57.89,2.56,1.46,0-1.18-.03-2.13,0-3.07.07-1.65,1.13-2.74,2.59-2.71,1.41.03,2.43,1.11,2.5,2.7.04.95,0,1.9,0,3.07.93-.53,1.71-.99,2.5-1.41,1.55-.83,3.03-.53,3.79.75.75,1.27.28,2.75-1.19,3.67-.74.46-1.51.88-2.44,1.42,1.1.7,2.13,1.27,3.06,1.98,1.03.79,1.2,2.15.55,3.24-.6,1.01-1.87,1.46-3.04,1.03-.41-.15-.79-.39-1.17-.6-.62-.34-1.24-.7-2.05-1.16v-.02Z"/>
    </g>
  </g>
</svg>