<svg width="24" height="25" viewBox="0 0 24 25" fill="none" xmlns="http://www.w3.org/2000/svg">
<path d="M16.2141 5.48239L17.6158 4.08063C18.39 3.30646 19.6452 3.30646 20.4194 4.08063C21.1935 4.8548 21.1935 6.10998 20.4194 6.88415L19.0176 8.28591M16.2141 5.48239L10.9802 10.7163C9.93493 11.7616 9.41226 12.2842 9.05637 12.9211C8.70047 13.558 8.3424 15.0619 8 16.5C9.43809 16.1576 10.942 15.7995 11.5789 15.4436C12.2158 15.0877 12.7384 14.5651 13.7837 13.5198L19.0176 8.28591M16.2141 5.48239L19.0176 8.28591" stroke="#212529" stroke-width="1.5" stroke-linecap="round" stroke-linejoin="round"/>
<path d="M21 12.5C21 16.7426 21 18.864 19.682 20.182C18.364 21.5 16.2426 21.5 12 21.5C7.75736 21.5 5.63604 21.5 4.31802 20.182C3 18.864 3 16.7426 3 12.5C3 8.25736 3 6.13604 4.31802 4.81802C5.63604 3.5 7.75736 3.5 12 3.5" stroke="#212529" stroke-width="1.5" stroke-linecap="round"/>
</svg>
