<svg width="24" height="24" viewBox="0 0 24 24" fill="none" xmlns="http://www.w3.org/2000/svg">
<path d="M17 14.9996C17 18.2996 17 19.9496 16.0481 20.9748C15.0962 22 13.5641 22 10.5 22C7.43587 22 5.90381 22 4.9519 20.9748C4 19.9496 4 18.2996 4 14.9996V8.99919C4 5.69916 4 4.04914 4.9519 3.02395C5.80236 2.10801 7.11592 2.0104 9.57143 2" stroke="#212529" stroke-width="1.5" stroke-linecap="round"/>
<path d="M10.4922 19H10.5012" stroke="#212529" stroke-width="2" stroke-linecap="round" stroke-linejoin="round"/>
<path d="M16.8638 2.72209L17.7437 4.49644C17.8637 4.74343 18.1836 4.98035 18.4536 5.02571L20.0484 5.29287C21.0683 5.46426 21.3083 6.2103 20.5734 6.94625L19.3335 8.19635C19.1235 8.40805 19.0086 8.81635 19.0735 9.10875L19.4285 10.6562C19.7085 11.8811 19.0635 12.355 17.9887 11.7148L16.4938 10.8226C16.2239 10.6613 15.7789 10.6613 15.5039 10.8226L14.0091 11.7148C12.9392 12.355 12.2893 11.8761 12.5693 10.6562L12.9243 9.10875C12.9892 8.81635 12.8743 8.40805 12.6643 8.19635L11.4244 6.94625C10.6945 6.2103 10.9295 5.46426 11.9494 5.29287L13.5442 5.02571C13.8092 4.98035 14.1291 4.74343 14.2491 4.49644L15.129 2.72209C15.6089 1.7593 16.3888 1.7593 16.8638 2.72209Z" stroke="#212529" stroke-width="1.5" stroke-linecap="round" stroke-linejoin="round"/>
</svg>
