<svg width="110" height="40" viewBox="0 0 110 40" fill="none" xmlns="http://www.w3.org/2000/svg">
<path d="M25.9742 8.4364C26.5259 8.4364 27.0653 8.27279 27.524 7.96627C27.9828 7.65974 28.3403 7.22406 28.5514 6.71433C28.7626 6.20459 28.8178 5.64369 28.7102 5.10256C28.6026 4.56143 28.3369 4.06437 27.9467 3.67424C27.5566 3.2841 27.0595 3.01842 26.5184 2.91078C25.9773 2.80314 25.4164 2.85839 24.9066 3.06953C24.3969 3.28066 23.9612 3.63822 23.6547 4.09696C23.3482 4.55571 23.1846 5.09506 23.1846 5.64679C23.1846 6.38664 23.4785 7.09619 24.0016 7.61934C24.5248 8.1425 25.2343 8.4364 25.9742 8.4364Z" fill="#7DD6F7"/>
<path d="M19.3818 26.3152C17.5262 26.3152 15.7123 25.7649 14.1694 24.734C12.6266 23.703 11.4241 22.2377 10.714 20.5233C10.004 18.809 9.81826 16.9226 10.1804 15.1026C10.5424 13.2827 11.4361 11.611 12.7483 10.299C14.0605 8.98697 15.7322 8.09352 17.5522 7.73165C19.3722 7.36978 21.2586 7.55573 22.9729 8.26599C24.6871 8.97624 26.1523 10.1789 27.1831 11.7219C28.2138 13.2649 28.7639 15.0789 28.7636 16.9344C28.7607 19.4217 27.7713 21.8061 26.0124 23.5647C24.2536 25.3234 21.869 26.3125 19.3818 26.3152ZM19.3818 12.0131C18.4085 12.0131 17.457 12.3017 16.6477 12.8425C15.8384 13.3833 15.2076 14.1519 14.8351 15.0511C14.4626 15.9504 14.3652 16.9399 14.555 17.8946C14.7449 18.8492 15.2137 19.7261 15.9019 20.4144C16.5902 21.1026 17.4671 21.5713 18.4217 21.7612C19.3764 21.9511 20.3659 21.8537 21.2651 21.4812C22.1644 21.1087 22.933 20.4779 23.4738 19.6686C24.0145 18.8593 24.3032 17.9078 24.3032 16.9344C24.3017 15.6297 23.7827 14.3788 22.8601 13.4562C21.9375 12.5336 20.6866 12.0146 19.3818 12.0131Z" fill="#3C84AC"/>
<path d="M20.8696 37.1428C18.8423 37.1431 16.8978 36.3387 15.4632 34.9062C14.0287 33.4737 13.2214 31.5304 13.2188 29.5031H17.6815C17.6812 30.1339 17.8681 30.7506 18.2184 31.2752C18.5687 31.7999 19.0667 32.2088 19.6495 32.4504C20.2322 32.6919 20.8735 32.7552 21.4922 32.6323C22.1109 32.5094 22.6793 32.2057 23.1254 31.7597C23.5716 31.3138 23.8754 30.7455 23.9986 30.1268C24.1217 29.5081 24.0586 28.8668 23.8173 28.284C23.5759 27.7012 23.1672 27.203 22.6427 26.8525C22.1182 26.502 21.5015 26.315 20.8707 26.315H19.3824V21.8545H20.8696C22.8969 21.8545 24.8413 22.6599 26.2748 24.0934C27.7084 25.527 28.5137 27.4713 28.5137 29.4986C28.5137 31.526 27.7084 33.4703 26.2748 34.9039C24.8413 36.3374 22.8969 37.1428 20.8696 37.1428Z" fill="#1DBED0"/>
<path d="M20.869 21.8545H19.3818V26.315C21.7956 26.3159 24.1163 25.3833 25.8583 23.7124C24.4728 22.5131 22.7015 21.8534 20.869 21.8545Z" fill="#7DD6F7"/>
<path d="M53.7159 16.0909C53.6307 15.3712 53.285 14.8125 52.679 14.4148C52.0729 14.017 51.3295 13.8182 50.4489 13.8182C49.8049 13.8182 49.2415 13.9223 48.7585 14.1307C48.2803 14.339 47.9063 14.6255 47.6364 14.9901C47.3712 15.3546 47.2386 15.7689 47.2386 16.233C47.2386 16.6212 47.331 16.955 47.5156 17.2344C47.705 17.509 47.9465 17.7386 48.2401 17.9233C48.5336 18.1032 48.8414 18.2524 49.1634 18.3707C49.4853 18.4844 49.7812 18.5767 50.0511 18.6477L51.5284 19.0455C51.9072 19.1449 52.3286 19.2822 52.7926 19.4574C53.2614 19.6326 53.7088 19.8717 54.1349 20.1747C54.5658 20.473 54.9209 20.8565 55.2003 21.3253C55.4796 21.794 55.6193 22.3693 55.6193 23.0511C55.6193 23.8371 55.4134 24.5473 55.0014 25.1818C54.5942 25.8163 53.9976 26.3205 53.2116 26.6946C52.4304 27.0687 51.4811 27.2557 50.3636 27.2557C49.322 27.2557 48.42 27.0876 47.6577 26.7514C46.9001 26.4152 46.3035 25.9465 45.8679 25.3452C45.437 24.7438 45.1932 24.0455 45.1364 23.25H46.9545C47.0019 23.7992 47.1866 24.2538 47.5085 24.6136C47.8352 24.9687 48.2472 25.2339 48.7443 25.4091C49.2462 25.5795 49.786 25.6648 50.3636 25.6648C51.036 25.6648 51.6397 25.5559 52.1747 25.3381C52.7098 25.1155 53.1335 24.8078 53.446 24.4148C53.7585 24.017 53.9148 23.553 53.9148 23.0227C53.9148 22.5398 53.7798 22.1468 53.5099 21.8438C53.2401 21.5407 52.8849 21.2945 52.4446 21.1051C52.0043 20.9157 51.5284 20.75 51.017 20.608L49.2273 20.0966C48.0909 19.7699 47.1913 19.3035 46.5284 18.6974C45.8655 18.0914 45.5341 17.2983 45.5341 16.3182C45.5341 15.5038 45.7543 14.7936 46.1946 14.1875C46.6397 13.5767 47.2363 13.1032 47.9844 12.767C48.7372 12.4261 49.5777 12.2557 50.5057 12.2557C51.4432 12.2557 52.2765 12.4238 53.0057 12.7599C53.7348 13.0914 54.3125 13.5459 54.7386 14.1236C55.1695 14.7012 55.3968 15.357 55.4205 16.0909H53.7159ZM62.8619 27.2273C61.8107 27.2273 60.904 26.9953 60.1417 26.5312C59.3841 26.0625 58.7994 25.4091 58.3874 24.571C57.9802 23.7282 57.7766 22.7481 57.7766 21.6307C57.7766 20.5133 57.9802 19.5284 58.3874 18.6761C58.7994 17.8191 59.3723 17.1515 60.1062 16.6733C60.8448 16.1903 61.7066 15.9489 62.6914 15.9489C63.2596 15.9489 63.8207 16.0436 64.3746 16.233C64.9286 16.4223 65.4329 16.7301 65.8874 17.1562C66.342 17.5777 66.7042 18.1364 66.9741 18.8324C67.244 19.5284 67.3789 20.3854 67.3789 21.4034V22.1136H58.9698V20.6648H65.6744C65.6744 20.0492 65.5513 19.5 65.305 19.017C65.0636 18.5341 64.7179 18.1529 64.2681 17.8736C63.823 17.5942 63.2975 17.4545 62.6914 17.4545C62.0238 17.4545 61.4461 17.6203 60.9585 17.9517C60.4755 18.2784 60.1038 18.7045 59.8434 19.2301C59.583 19.7557 59.4528 20.3191 59.4528 20.9205V21.8864C59.4528 22.7102 59.5948 23.4086 59.8789 23.9815C60.1677 24.5497 60.5678 24.983 61.0792 25.2812C61.5906 25.5748 62.1848 25.7216 62.8619 25.7216C63.3022 25.7216 63.6999 25.66 64.055 25.5369C64.4149 25.4091 64.725 25.2197 64.9854 24.9688C65.2459 24.7131 65.4471 24.3958 65.5891 24.017L67.2085 24.4716C67.038 25.0208 66.7515 25.5038 66.3491 25.9205C65.9466 26.3324 65.4495 26.6544 64.8576 26.8864C64.2657 27.1136 63.6005 27.2273 62.8619 27.2273ZM73.1388 27.2557C72.4476 27.2557 71.8202 27.1255 71.2567 26.8651C70.6933 26.5999 70.2459 26.2188 69.9144 25.7216C69.583 25.2197 69.4173 24.6136 69.4173 23.9034C69.4173 23.2784 69.5404 22.7718 69.7866 22.3835C70.0328 21.9905 70.3619 21.6828 70.7738 21.4602C71.1857 21.2377 71.6403 21.072 72.1374 20.9631C72.6393 20.8494 73.1436 20.7595 73.6502 20.6932C74.3131 20.608 74.8505 20.544 75.2624 20.5014C75.6791 20.4541 75.9821 20.3759 76.1715 20.267C76.3656 20.1581 76.4627 19.9687 76.4627 19.6989V19.642C76.4627 18.9413 76.271 18.3968 75.8874 18.0085C75.5086 17.6203 74.9334 17.4261 74.1616 17.4261C73.3614 17.4261 72.734 17.6013 72.2795 17.9517C71.8249 18.3021 71.5053 18.6761 71.3207 19.0739L69.7298 18.5057C70.0138 17.8428 70.3926 17.3267 70.8661 16.9574C71.3443 16.5833 71.8652 16.3229 72.4286 16.1761C72.9968 16.0246 73.5555 15.9489 74.1048 15.9489C74.4551 15.9489 74.8576 15.9915 75.3121 16.0767C75.7714 16.1572 76.2141 16.3253 76.6403 16.581C77.0711 16.8366 77.4286 17.2225 77.7127 17.7386C77.9968 18.2547 78.1388 18.946 78.1388 19.8125V27H76.4627V25.5227H76.3775C76.2638 25.7595 76.0745 26.0128 75.8093 26.2827C75.5442 26.5526 75.1914 26.7822 74.7511 26.9716C74.3107 27.161 73.7733 27.2557 73.1388 27.2557ZM73.3945 25.75C74.0574 25.75 74.6161 25.6198 75.0707 25.3594C75.5299 25.099 75.8756 24.7628 76.1076 24.3509C76.3443 23.9389 76.4627 23.5057 76.4627 23.0511V21.517C76.3917 21.6023 76.2354 21.6804 75.994 21.7514C75.7572 21.8177 75.4826 21.8769 75.1701 21.929C74.8623 21.9763 74.5617 22.0189 74.2681 22.0568C73.9793 22.09 73.7449 22.1184 73.565 22.142C73.1294 22.1989 72.7222 22.2912 72.3434 22.419C71.9693 22.5421 71.6663 22.7292 71.4343 22.9801C71.207 23.2263 71.0934 23.5625 71.0934 23.9886C71.0934 24.571 71.3088 25.0114 71.7397 25.3097C72.1753 25.6032 72.7269 25.75 73.3945 25.75ZM81.1982 27V16.0909H82.8175V17.7386H82.9311C83.13 17.1989 83.4898 16.7609 84.0107 16.4247C84.5315 16.0885 85.1186 15.9205 85.772 15.9205C85.8951 15.9205 86.049 15.9228 86.2337 15.9276C86.4183 15.9323 86.558 15.9394 86.6527 15.9489V17.6534C86.5959 17.6392 86.4657 17.6179 86.2621 17.5895C86.0632 17.5563 85.8525 17.5398 85.63 17.5398C85.0997 17.5398 84.6262 17.651 84.2095 17.8736C83.7976 18.0914 83.4709 18.3944 83.2294 18.7827C82.9927 19.1662 82.8743 19.6042 82.8743 20.0966V27H81.1982ZM92.7393 27.2273C91.7166 27.2273 90.8359 26.9858 90.0973 26.5028C89.3587 26.0199 88.7905 25.3546 88.3928 24.5071C87.995 23.6596 87.7962 22.6913 87.7962 21.6023C87.7962 20.4943 87.9998 19.5166 88.407 18.669C88.8189 17.8168 89.3918 17.1515 90.1257 16.6733C90.8643 16.1903 91.7261 15.9489 92.7109 15.9489C93.478 15.9489 94.1693 16.0909 94.7848 16.375C95.4003 16.6591 95.9046 17.0568 96.2976 17.5682C96.6906 18.0795 96.9344 18.6761 97.0291 19.358H95.353C95.2251 18.8608 94.9411 18.4205 94.5007 18.0369C94.0651 17.6487 93.478 17.4545 92.7393 17.4545C92.0859 17.4545 91.513 17.625 91.0206 17.9659C90.5329 18.3021 90.1518 18.7779 89.8771 19.3935C89.6072 20.0043 89.4723 20.7216 89.4723 21.5455C89.4723 22.3883 89.6049 23.1222 89.87 23.7472C90.1399 24.3722 90.5187 24.8575 91.0064 25.2031C91.4988 25.5488 92.0765 25.7216 92.7393 25.7216C93.175 25.7216 93.5703 25.6458 93.9254 25.4943C94.2805 25.3428 94.5812 25.125 94.8274 24.8409C95.0736 24.5568 95.2488 24.2159 95.353 23.8182H97.0291C96.9344 24.4621 96.7 25.0421 96.326 25.5582C95.9567 26.0696 95.4666 26.4768 94.8558 26.7798C94.2498 27.0781 93.5443 27.2273 92.7393 27.2273ZM101.156 20.4375V27H99.4794V12.4545H101.156V17.7955H101.298C101.553 17.232 101.937 16.7846 102.448 16.4531C102.964 16.117 103.651 15.9489 104.508 15.9489C105.251 15.9489 105.902 16.098 106.461 16.3963C107.02 16.6899 107.453 17.142 107.761 17.7528C108.073 18.3589 108.229 19.1307 108.229 20.0682V27H106.553V20.1818C106.553 19.3153 106.328 18.6454 105.879 18.1719C105.433 17.6937 104.816 17.4545 104.025 17.4545C103.476 17.4545 102.983 17.5705 102.548 17.8026C102.117 18.0346 101.776 18.3731 101.525 18.8182C101.279 19.2633 101.156 19.803 101.156 20.4375Z" fill="#475058"/>
</svg>
