<svg width="24" height="24" viewBox="0 0 24 24" fill="none" xmlns="http://www.w3.org/2000/svg">
<path d="M21 15.75C21.4142 15.75 21.75 15.4142 21.75 15C21.75 14.5858 21.4142 14.25 21 14.25V15.75ZM3 14.25C2.58579 14.25 2.25 14.5858 2.25 15C2.25 15.4142 2.58579 15.75 3 15.75V14.25ZM21 9.75C21.4142 9.75 21.75 9.41421 21.75 9C21.75 8.58579 21.4142 8.25 21 8.25V9.75ZM3 8.25C2.58579 8.25 2.25 8.58579 2.25 9C2.25 9.41421 2.58579 9.75 3 9.75V8.25ZM21.25 12C21.25 17.1086 17.1086 21.25 12 21.25V22.75C17.9371 22.75 22.75 17.9371 22.75 12H21.25ZM12 21.25C6.89137 21.25 2.75 17.1086 2.75 12H1.25C1.25 17.9371 6.06294 22.75 12 22.75V21.25ZM2.75 12C2.75 6.89137 6.89137 2.75 12 2.75V1.25C6.06294 1.25 1.25 6.06294 1.25 12H2.75ZM12 2.75C17.1086 2.75 21.25 6.89137 21.25 12H22.75C22.75 6.06294 17.9371 1.25 12 1.25V2.75ZM7.25 12C7.25 15.1678 8.3055 17.7963 9.34882 19.6221C9.87137 20.5366 10.3945 21.2562 10.7893 21.7498C10.987 21.9968 11.153 22.1879 11.2715 22.3191C11.3308 22.3848 11.3783 22.4355 11.412 22.4709C11.4288 22.4885 11.4422 22.5024 11.4519 22.5123C11.4567 22.5173 11.4607 22.5213 11.4636 22.5243C11.4651 22.5258 11.4664 22.527 11.4674 22.528C11.4679 22.5285 11.4683 22.529 11.4687 22.5294C11.4689 22.5296 11.4691 22.5298 11.4692 22.5299C11.4695 22.5301 11.4697 22.5303 12 22C12.5303 21.4697 12.5305 21.4698 12.5307 21.47C12.5307 21.47 12.5309 21.4702 12.5309 21.4703C12.5311 21.4704 12.5311 21.4705 12.5312 21.4705C12.5312 21.4705 12.531 21.4703 12.5306 21.4699C12.5297 21.469 12.5279 21.4672 12.5252 21.4644C12.5197 21.4588 12.5106 21.4495 12.4982 21.4364C12.4733 21.4102 12.4348 21.3691 12.3847 21.3137C12.2845 21.2028 12.138 21.0345 11.9607 20.8127C11.6055 20.3688 11.1286 19.7134 10.6512 18.8779C9.6945 17.2037 8.75 14.8322 8.75 12H7.25ZM12 22C12.5303 22.5303 12.5305 22.5301 12.5308 22.5299C12.5309 22.5298 12.5311 22.5296 12.5313 22.5294C12.5317 22.529 12.5321 22.5285 12.5326 22.528C12.5336 22.527 12.5349 22.5258 12.5364 22.5243C12.5393 22.5213 12.5433 22.5173 12.5481 22.5123C12.5578 22.5024 12.5712 22.4885 12.588 22.4709C12.6217 22.4355 12.6692 22.3848 12.7285 22.3191C12.847 22.1879 13.013 21.9968 13.2107 21.7498C13.6055 21.2562 14.1286 20.5366 14.6512 19.6221C15.6945 17.7963 16.75 15.1678 16.75 12H15.25C15.25 14.8322 14.3055 17.2037 13.3488 18.8779C12.8714 19.7134 12.3945 20.3688 12.0393 20.8127C11.862 21.0345 11.7155 21.2028 11.6153 21.3137C11.5652 21.3691 11.5267 21.4102 11.5018 21.4364C11.4894 21.4495 11.4803 21.4588 11.4748 21.4644C11.4721 21.4672 11.4703 21.469 11.4694 21.4699C11.469 21.4703 11.4688 21.4705 11.4688 21.4705C11.4689 21.4705 11.4689 21.4704 11.4691 21.4703C11.4691 21.4702 11.4693 21.47 11.4693 21.47C11.4695 21.4698 11.4697 21.4697 12 22ZM16.75 12C16.75 8.83217 15.6945 6.2037 14.6512 4.3779C14.1286 3.46344 13.6055 2.74381 13.2107 2.25023C13.013 2.00321 12.847 1.81213 12.7285 1.68088C12.6692 1.61523 12.6217 1.56449 12.588 1.52915C12.5712 1.51147 12.5578 1.49763 12.5481 1.4877C12.5433 1.48274 12.5393 1.47875 12.5364 1.47574C12.5349 1.47424 12.5336 1.47298 12.5326 1.47196C12.5321 1.47146 12.5317 1.47101 12.5313 1.47063C12.5311 1.47044 12.5309 1.4702 12.5308 1.4701C12.5305 1.46988 12.5303 1.46967 12 2C11.4697 2.53033 11.4695 2.53015 11.4693 2.52999C11.4693 2.52995 11.4691 2.5298 11.4691 2.52973C11.4689 2.5296 11.4689 2.52952 11.4688 2.5295C11.4688 2.52946 11.469 2.52966 11.4694 2.5301C11.4703 2.53099 11.4721 2.53283 11.4748 2.53561C11.4803 2.54118 11.4894 2.55054 11.5018 2.56363C11.5267 2.5898 11.5652 2.63086 11.6153 2.68631C11.7155 2.79725 11.862 2.96554 12.0393 3.18727C12.3945 3.63119 12.8714 4.28656 13.3488 5.1221C14.3055 6.7963 15.25 9.16783 15.25 12H16.75ZM12 2C11.4697 1.46967 11.4695 1.46988 11.4692 1.4701C11.4691 1.4702 11.4689 1.47044 11.4687 1.47063C11.4683 1.47101 11.4679 1.47146 11.4674 1.47196C11.4664 1.47298 11.4651 1.47424 11.4636 1.47574C11.4607 1.47875 11.4567 1.48274 11.4519 1.4877C11.4422 1.49763 11.4288 1.51147 11.412 1.52915C11.3783 1.56449 11.3308 1.61523 11.2715 1.68088C11.153 1.81213 10.987 2.00321 10.7893 2.25023C10.3945 2.74381 9.87137 3.46344 9.34882 4.3779C8.3055 6.2037 7.25 8.83217 7.25 12H8.75C8.75 9.16783 9.6945 6.7963 10.6512 5.1221C11.1286 4.28656 11.6055 3.63119 11.9607 3.18727C12.138 2.96554 12.2845 2.79725 12.3847 2.68631C12.4348 2.63086 12.4733 2.5898 12.4982 2.56363C12.5106 2.55054 12.5197 2.54118 12.5252 2.53561C12.5279 2.53283 12.5297 2.53099 12.5306 2.5301C12.531 2.52966 12.5312 2.52946 12.5312 2.5295C12.5311 2.52952 12.5311 2.5296 12.5309 2.52973C12.5309 2.5298 12.5307 2.52995 12.5307 2.52999C12.5305 2.53015 12.5303 2.53033 12 2ZM21 14.25H3V15.75H21V14.25ZM21 8.25H3V9.75H21V8.25Z" fill="#1FBED0"/>
</svg>
