<svg width="20" height="20" viewBox="0 0 20 20" fill="none" xmlns="http://www.w3.org/2000/svg">
<path d="M17.7643 5.95114L17.3529 5.23731C17.0418 4.69745 16.8863 4.42752 16.6217 4.31988C16.357 4.21225 16.0577 4.29718 15.4591 4.46705L14.4423 4.75346C14.0601 4.8416 13.6591 4.7916 13.3102 4.61231L13.0294 4.45033C12.7302 4.25867 12.5 3.97609 12.3726 3.64393L12.0943 2.81278C11.9113 2.26276 11.8198 1.98776 11.602 1.83046C11.3843 1.67316 11.0949 1.67316 10.5163 1.67316H9.58726C9.00867 1.67316 8.71934 1.67316 8.50151 1.83046C8.28371 1.98776 8.19222 2.26276 8.00925 2.81278L7.73095 3.64393C7.60355 3.97609 7.37338 4.25867 7.07415 4.45033L6.79341 4.61231C6.44446 4.7916 6.0435 4.8416 5.66132 4.75346L4.64446 4.46705C4.04585 4.29718 3.74655 4.21225 3.4819 4.31988C3.21725 4.42752 3.06172 4.69745 2.75063 5.23731L2.33932 5.95114C2.04772 6.45718 1.90192 6.71021 1.93022 6.97956C1.95851 7.24891 2.1537 7.46596 2.54406 7.90008L3.40326 8.86065C3.61326 9.12648 3.76235 9.58981 3.76235 10.0064C3.76235 10.4231 3.61331 10.8863 3.40328 11.1522L2.54406 12.1128C2.1537 12.547 1.95852 12.764 1.93022 13.0334C1.90192 13.3027 2.04772 13.5557 2.33932 14.0617L2.75062 14.7756C3.0617 15.3154 3.21725 15.5854 3.4819 15.693C3.74655 15.8006 4.04586 15.7157 4.64448 15.5458L5.66129 15.2594C6.04353 15.1712 6.44456 15.2213 6.79356 15.4006L7.07426 15.5626C7.37343 15.7543 7.60354 16.0368 7.73092 16.369L8.00925 17.2002C8.19222 17.7502 8.28371 18.0252 8.50151 18.1826C8.71934 18.3398 9.00867 18.3398 9.58726 18.3398H10.5163C11.0949 18.3398 11.3843 18.3398 11.602 18.1826C11.8198 18.0252 11.9113 17.7502 12.0943 17.2002L12.3727 16.369C12.5 16.0368 12.7301 15.7543 13.0293 15.5626L13.31 15.4006C13.659 15.2213 14.06 15.1712 14.4423 15.2594L15.4591 15.5458C16.0577 15.7157 16.357 15.8006 16.6217 15.693C16.8863 15.5854 17.0418 15.3154 17.3529 14.7756L17.7643 14.0617C18.0558 13.5557 18.2016 13.3027 18.1733 13.0334C18.145 12.764 17.9498 12.547 17.5595 12.1128L16.7003 11.1522C16.4903 10.8863 16.3412 10.4231 16.3412 10.0064C16.3412 9.58981 16.4903 9.12648 16.7003 8.86065L17.5595 7.90008C17.9498 7.46596 18.145 7.24891 18.1733 6.97956C18.2016 6.71021 18.0558 6.45718 17.7643 5.95114Z" stroke="#212529" stroke-width="1.5"/>
<path d="M12.9293 9.99998C12.9293 11.6108 11.6235 12.9166 10.0127 12.9166C8.40183 12.9166 7.09603 11.6108 7.09603 9.99998C7.09603 8.38915 8.40183 7.08331 10.0127 7.08331C11.6235 7.08331 12.9293 8.38915 12.9293 9.99998Z" stroke="#212529" stroke-width="1.5"/>
</svg>
