<svg width="24" height="25" viewBox="0 0 24 25" fill="none" xmlns="http://www.w3.org/2000/svg">
<path d="M13.7276 3.94418L15.4874 7.49288C15.7274 7.98687 16.3673 8.4607 16.9073 8.55143L20.0969 9.08575C22.1367 9.42853 22.6167 10.9206 21.1468 12.3925L18.6671 14.8927C18.2471 15.3161 18.0172 16.1327 18.1471 16.7175L18.8571 19.8125C19.417 22.2623 18.1271 23.21 15.9774 21.9296L12.9877 20.1452C12.4478 19.8226 11.5579 19.8226 11.0079 20.1452L8.01827 21.9296C5.8785 23.21 4.57865 22.2522 5.13859 19.8125L5.84851 16.7175C5.97849 16.1327 5.74852 15.3161 5.32856 14.8927L2.84884 12.3925C1.389 10.9206 1.85895 9.42853 3.89872 9.08575L7.08837 8.55143C7.61831 8.4607 8.25824 7.98687 8.49821 7.49288L10.258 3.94418C11.2179 2.01861 12.7777 2.01861 13.7276 3.94418Z" stroke="#212529" stroke-width="2" stroke-linecap="round" stroke-linejoin="round"/>
</svg>
