<svg width="144" height="40" viewBox="0 0 144 40" fill="none" xmlns="http://www.w3.org/2000/svg">
<path d="M25.9742 8.4364C26.5259 8.4364 27.0653 8.27279 27.524 7.96627C27.9828 7.65974 28.3403 7.22406 28.5514 6.71433C28.7626 6.20459 28.8178 5.64369 28.7102 5.10256C28.6026 4.56143 28.3369 4.06437 27.9467 3.67424C27.5566 3.2841 27.0595 3.01842 26.5184 2.91078C25.9773 2.80314 25.4164 2.85839 24.9066 3.06953C24.3969 3.28066 23.9612 3.63822 23.6547 4.09696C23.3482 4.55571 23.1846 5.09506 23.1846 5.64679C23.1846 6.38664 23.4785 7.09619 24.0016 7.61934C24.5248 8.1425 25.2343 8.4364 25.9742 8.4364Z" fill="#7DD6F7"/>
<path d="M19.3818 26.3152C17.5262 26.3152 15.7123 25.7649 14.1694 24.734C12.6266 23.703 11.4241 22.2377 10.714 20.5233C10.004 18.809 9.81826 16.9226 10.1804 15.1026C10.5424 13.2827 11.4361 11.611 12.7483 10.299C14.0605 8.98697 15.7322 8.09352 17.5522 7.73165C19.3722 7.36978 21.2586 7.55573 22.9729 8.26599C24.6871 8.97624 26.1523 10.1789 27.1831 11.7219C28.2138 13.2649 28.7639 15.0789 28.7636 16.9344C28.7607 19.4217 27.7713 21.8061 26.0124 23.5647C24.2536 25.3234 21.869 26.3125 19.3818 26.3152ZM19.3818 12.0131C18.4085 12.0131 17.457 12.3017 16.6477 12.8425C15.8384 13.3833 15.2076 14.1519 14.8351 15.0511C14.4626 15.9504 14.3652 16.9399 14.555 17.8946C14.7449 18.8492 15.2137 19.7261 15.9019 20.4144C16.5902 21.1026 17.4671 21.5713 18.4217 21.7612C19.3764 21.9511 20.3659 21.8537 21.2651 21.4812C22.1644 21.1087 22.933 20.4779 23.4738 19.6686C24.0145 18.8593 24.3032 17.9078 24.3032 16.9344C24.3017 15.6297 23.7827 14.3788 22.8601 13.4562C21.9375 12.5336 20.6866 12.0146 19.3818 12.0131Z" fill="#3C84AC"/>
<path d="M20.8696 37.1428C18.8423 37.1431 16.8978 36.3387 15.4632 34.9062C14.0287 33.4737 13.2214 31.5304 13.2188 29.5031H17.6815C17.6812 30.1339 17.8681 30.7506 18.2184 31.2752C18.5687 31.7999 19.0667 32.2088 19.6495 32.4504C20.2322 32.6919 20.8735 32.7552 21.4922 32.6323C22.1109 32.5094 22.6793 32.2057 23.1254 31.7597C23.5716 31.3138 23.8754 30.7455 23.9986 30.1268C24.1217 29.5081 24.0586 28.8668 23.8173 28.284C23.5759 27.7012 23.1672 27.203 22.6427 26.8525C22.1182 26.502 21.5015 26.315 20.8707 26.315H19.3824V21.8545H20.8696C22.8969 21.8545 24.8413 22.6599 26.2748 24.0934C27.7084 25.527 28.5137 27.4713 28.5137 29.4986C28.5137 31.526 27.7084 33.4703 26.2748 34.9039C24.8413 36.3374 22.8969 37.1428 20.8696 37.1428Z" fill="#1DBED0"/>
<path d="M20.869 21.8545H19.3818V26.315C21.7956 26.3159 24.1163 25.3833 25.8583 23.7124C24.4728 22.5131 22.7015 21.8534 20.869 21.8545Z" fill="#7DD6F7"/>
<path d="M44.9659 14.017V12.4545H55.875V14.017H51.3011V27H49.5398V14.017H44.9659ZM58.3661 27V16.0909H60.0423V27H58.3661ZM59.2184 14.2727C58.8917 14.2727 58.61 14.1615 58.3732 13.9389C58.1412 13.7164 58.0252 13.4489 58.0252 13.1364C58.0252 12.8239 58.1412 12.5563 58.3732 12.3338C58.61 12.1113 58.8917 12 59.2184 12C59.5451 12 59.8245 12.1113 60.0565 12.3338C60.2932 12.5563 60.4116 12.8239 60.4116 13.1364C60.4116 13.4489 60.2932 13.7164 60.0565 13.9389C59.8245 14.1615 59.5451 14.2727 59.2184 14.2727ZM63.1122 27V16.0909H64.7315V17.7955H64.8736C65.1009 17.2131 65.4678 16.7609 65.9744 16.4389C66.4811 16.1122 67.0895 15.9489 67.7997 15.9489C68.5194 15.9489 69.1184 16.1122 69.5966 16.4389C70.0795 16.7609 70.456 17.2131 70.7259 17.7955H70.8395C71.1188 17.232 71.5379 16.7846 72.0966 16.4531C72.6553 16.117 73.3253 15.9489 74.1065 15.9489C75.0819 15.9489 75.8797 16.2543 76.5 16.8651C77.1203 17.4711 77.4304 18.4157 77.4304 19.6989V27H75.7543V19.6989C75.7543 18.8939 75.5341 18.3187 75.0938 17.973C74.6534 17.6274 74.1349 17.4545 73.5384 17.4545C72.7713 17.4545 72.1771 17.6866 71.7557 18.1506C71.3343 18.6098 71.1236 19.1922 71.1236 19.8977V27H69.419V19.5284C69.419 18.9081 69.2178 18.4086 68.8153 18.0298C68.4129 17.6463 67.8944 17.4545 67.2599 17.4545C66.8243 17.4545 66.4171 17.5705 66.0384 17.8026C65.6643 18.0346 65.3613 18.3565 65.1293 18.7685C64.902 19.1757 64.7884 19.6468 64.7884 20.1818V27H63.1122ZM85.0689 27.2273C84.0178 27.2273 83.111 26.9953 82.3487 26.5312C81.5911 26.0625 81.0064 25.4091 80.5945 24.571C80.1873 23.7282 79.9837 22.7481 79.9837 21.6307C79.9837 20.5133 80.1873 19.5284 80.5945 18.6761C81.0064 17.8191 81.5793 17.1515 82.3132 16.6733C83.0518 16.1903 83.9136 15.9489 84.8984 15.9489C85.4666 15.9489 86.0277 16.0436 86.5817 16.233C87.1357 16.4223 87.6399 16.7301 88.0945 17.1562C88.549 17.5777 88.9112 18.1364 89.1811 18.8324C89.451 19.5284 89.5859 20.3854 89.5859 21.4034V22.1136H81.1768V20.6648H87.8814C87.8814 20.0492 87.7583 19.5 87.5121 19.017C87.2706 18.5341 86.925 18.1529 86.4751 17.8736C86.0301 17.5942 85.5045 17.4545 84.8984 17.4545C84.2308 17.4545 83.6532 17.6203 83.1655 17.9517C82.6825 18.2784 82.3108 18.7045 82.0504 19.2301C81.79 19.7557 81.6598 20.3191 81.6598 20.9205V21.8864C81.6598 22.7102 81.8018 23.4086 82.0859 23.9815C82.3748 24.5497 82.7749 24.983 83.2862 25.2812C83.7976 25.5748 84.3918 25.7216 85.0689 25.7216C85.5092 25.7216 85.907 25.66 86.2621 25.5369C86.6219 25.4091 86.9321 25.2197 87.1925 24.9688C87.4529 24.7131 87.6541 24.3958 87.7962 24.017L89.4155 24.4716C89.245 25.0208 88.9586 25.5038 88.5561 25.9205C88.1536 26.3324 87.6565 26.6544 87.0646 26.8864C86.4728 27.1136 85.8075 27.2273 85.0689 27.2273ZM99.8629 18.5341L98.3572 18.9602C98.2625 18.7093 98.1229 18.4654 97.9382 18.2287C97.7583 17.9872 97.5121 17.7884 97.1996 17.6321C96.8871 17.4759 96.487 17.3977 95.9993 17.3977C95.3317 17.3977 94.7753 17.5516 94.3303 17.8594C93.8899 18.1624 93.6697 18.5483 93.6697 19.017C93.6697 19.4337 93.8213 19.7628 94.1243 20.0043C94.4273 20.2457 94.9008 20.447 95.5447 20.608L97.1641 21.0057C98.1394 21.2424 98.8662 21.6046 99.3445 22.0923C99.8227 22.5753 100.062 23.1979 100.062 23.9602C100.062 24.5852 99.8819 25.1439 99.522 25.6364C99.1669 26.1288 98.6697 26.517 98.0305 26.8011C97.3913 27.0852 96.648 27.2273 95.8004 27.2273C94.6877 27.2273 93.7668 26.9858 93.0376 26.5028C92.3085 26.0199 91.8468 25.3144 91.6527 24.3864L93.2436 23.9886C93.3951 24.5758 93.6816 25.0161 94.103 25.3097C94.5291 25.6032 95.0855 25.75 95.772 25.75C96.5533 25.75 97.1735 25.5843 97.6328 25.2528C98.0968 24.9167 98.3288 24.5142 98.3288 24.0455C98.3288 23.6667 98.1963 23.3494 97.9311 23.0938C97.666 22.8333 97.2588 22.6392 96.7095 22.5114L94.8913 22.0852C93.8923 21.8485 93.1584 21.4815 92.6896 20.9844C92.2256 20.4825 91.9936 19.8551 91.9936 19.1023C91.9936 18.4867 92.1664 17.9422 92.5121 17.4688C92.8625 16.9953 93.3383 16.6236 93.9396 16.3537C94.5457 16.0838 95.2322 15.9489 95.9993 15.9489C97.0788 15.9489 97.9264 16.1856 98.5419 16.6591C99.1622 17.1326 99.6025 17.7576 99.8629 18.5341ZM104.261 20.4375V27H102.585V12.4545H104.261V17.7955H104.403C104.659 17.232 105.042 16.7846 105.554 16.4531C106.07 16.117 106.756 15.9489 107.613 15.9489C108.357 15.9489 109.008 16.098 109.566 16.3963C110.125 16.6899 110.558 17.142 110.866 17.7528C111.179 18.3589 111.335 19.1307 111.335 20.0682V27H109.659V20.1818C109.659 19.3153 109.434 18.6454 108.984 18.1719C108.539 17.6937 107.921 17.4545 107.13 17.4545C106.581 17.4545 106.089 17.5705 105.653 17.8026C105.222 18.0346 104.881 18.3731 104.63 18.8182C104.384 19.2633 104.261 19.803 104.261 20.4375ZM118.975 27.2273C117.924 27.2273 117.017 26.9953 116.255 26.5312C115.497 26.0625 114.913 25.4091 114.501 24.571C114.094 23.7282 113.89 22.7481 113.89 21.6307C113.89 20.5133 114.094 19.5284 114.501 18.6761C114.913 17.8191 115.486 17.1515 116.219 16.6733C116.958 16.1903 117.82 15.9489 118.805 15.9489C119.373 15.9489 119.934 16.0436 120.488 16.233C121.042 16.4223 121.546 16.7301 122.001 17.1562C122.455 17.5777 122.817 18.1364 123.087 18.8324C123.357 19.5284 123.492 20.3854 123.492 21.4034V22.1136H115.083V20.6648H121.788C121.788 20.0492 121.665 19.5 121.418 19.017C121.177 18.5341 120.831 18.1529 120.381 17.8736C119.936 17.5942 119.411 17.4545 118.805 17.4545C118.137 17.4545 117.559 17.6203 117.072 17.9517C116.589 18.2784 116.217 18.7045 115.957 19.2301C115.696 19.7557 115.566 20.3191 115.566 20.9205V21.8864C115.566 22.7102 115.708 23.4086 115.992 23.9815C116.281 24.5497 116.681 24.983 117.192 25.2812C117.704 25.5748 118.298 25.7216 118.975 25.7216C119.415 25.7216 119.813 25.66 120.168 25.5369C120.528 25.4091 120.838 25.2197 121.099 24.9688C121.359 24.7131 121.56 24.3958 121.702 24.017L123.322 24.4716C123.151 25.0208 122.865 25.5038 122.462 25.9205C122.06 26.3324 121.563 26.6544 120.971 26.8864C120.379 27.1136 119.714 27.2273 118.975 27.2273ZM130.616 27.2273C129.565 27.2273 128.658 26.9953 127.896 26.5312C127.138 26.0625 126.553 25.4091 126.141 24.571C125.734 23.7282 125.531 22.7481 125.531 21.6307C125.531 20.5133 125.734 19.5284 126.141 18.6761C126.553 17.8191 127.126 17.1515 127.86 16.6733C128.599 16.1903 129.46 15.9489 130.445 15.9489C131.013 15.9489 131.575 16.0436 132.129 16.233C132.683 16.4223 133.187 16.7301 133.641 17.1562C134.096 17.5777 134.458 18.1364 134.728 18.8324C134.998 19.5284 135.133 20.3854 135.133 21.4034V22.1136H126.724V20.6648H133.428C133.428 20.0492 133.305 19.5 133.059 19.017C132.817 18.5341 132.472 18.1529 132.022 17.8736C131.577 17.5942 131.051 17.4545 130.445 17.4545C129.778 17.4545 129.2 17.6203 128.712 17.9517C128.229 18.2784 127.858 18.7045 127.597 19.2301C127.337 19.7557 127.207 20.3191 127.207 20.9205V21.8864C127.207 22.7102 127.349 23.4086 127.633 23.9815C127.922 24.5497 128.322 24.983 128.833 25.2812C129.344 25.5748 129.939 25.7216 130.616 25.7216C131.056 25.7216 131.454 25.66 131.809 25.5369C132.169 25.4091 132.479 25.2197 132.739 24.9688C133 24.7131 133.201 24.3958 133.343 24.017L134.962 24.4716C134.792 25.0208 134.505 25.5038 134.103 25.9205C133.701 26.3324 133.203 26.6544 132.612 26.8864C132.02 27.1136 131.354 27.2273 130.616 27.2273ZM142.427 16.0909V17.5114H136.773V16.0909H142.427ZM138.421 13.4773H140.097V23.875C140.097 24.3485 140.166 24.7036 140.303 24.9403C140.445 25.1723 140.625 25.3286 140.843 25.4091C141.066 25.4848 141.3 25.5227 141.546 25.5227C141.731 25.5227 141.882 25.5133 142.001 25.4943C142.119 25.4706 142.214 25.4517 142.285 25.4375L142.626 26.9432C142.512 26.9858 142.353 27.0284 142.15 27.071C141.946 27.1184 141.688 27.142 141.376 27.142C140.902 27.142 140.438 27.0402 139.984 26.8366C139.534 26.633 139.16 26.3229 138.862 25.9062C138.568 25.4896 138.421 24.964 138.421 24.3295V13.4773Z" fill="#475058"/>
</svg>
